<?xml version="1.0" encoding="UTF-8"?>
<svg width="324px" height="144px" viewBox="0 0 324 144" version="1.1" xmlns="http://www.w3.org/2000/svg" xmlns:xlink="http://www.w3.org/1999/xlink">
    <!-- Generator: Sketch 52.6 (67491) - http://www.bohemiancoding.com/sketch -->
    <title>car</title>
    <desc>Created with Sketch.</desc>
    <defs>
        <path d="M12.546,22.085 C10.552,10.58 1.959,0.918 1.959,0.918 C-5.708,14.263 12.546,22.085 12.546,22.085" id="path-1"></path>
        <path d="M2.147,32.277 C2.147,32.277 18.358,16.095 14.219,1.944 L12.348,0.901 C12.337,0.901 12.325,0.9 12.314,0.9 C8.851,0.9 -2.835,28.204 2.147,32.277" id="path-3"></path>
        <polygon id="path-5" points="0 0.178345272 323.9128 0.178345272 323.9128 52.7416 0 52.7416"></polygon>
    </defs>
    <g id="car" stroke="none" stroke-width="1" fill="none" fill-rule="evenodd">
        <g id="Group-50">
            <g id="Group-3" transform="translate(289.000000, 60.848000)">
                <mask id="mask-2" fill="white">
                    <use xlink:href="#path-1"></use>
                </mask>
                <g id="Clip-2"></g>
                <path d="M12.546,22.085 C10.552,10.58 1.959,0.918 1.959,0.918 C-5.708,14.263 12.546,22.085 12.546,22.085" id="Fill-1" mask="url(#mask-2)"></path>
            </g>
            <g id="Group-10" transform="translate(9.000000, 7.848000)">
                <polygon id="Fill-4" fill="#D6D6D6" points="281.653 55.4541 288.248 64.5011 285.639 62.3591 286.563 64.9631 287.945 65.8851 288.869 67.4171 288.869 69.1041 288.248 69.1041 289.779 70.0191 289.779 70.9461 289.475 71.4031 287.486 71.4031 286.101 69.8711 283.802 68.1841 281.498 65.7251 281.498 63.2731 280.736 60.5161"></polygon>
                <path d="M297.2624,117.0274 C299.8924,116.8814 302.5274,116.7254 305.1654,116.5604 L294.0664,80.4684 L253.6944,63.5884 L216.4204,64.9644 L53.8964,65.6554 L8.0014,72.9014 L0.2504,117.0274 L297.2624,117.0274 Z" id="Fill-6" fill="#404041"></path>
                <path d="M181.0739,0.668 L173.2129,2.542 L169.4179,4.955 C169.4179,4.955 191.2389,9.386 213.6629,41.478 L245.4139,37.679 C245.4139,37.679 225.5869,14.816 181.0739,0.668" id="Fill-8" fill="#404041"></path>
            </g>
            <g id="Group-13" transform="translate(4.000000, 32.848000)">
                <mask id="mask-4" fill="white">
                    <use xlink:href="#path-3"></use>
                </mask>
                <g id="Clip-12"></g>
                <path d="M2.147,32.277 C2.147,32.277 18.358,16.095 14.219,1.944 L12.348,0.901 C12.337,0.901 12.325,0.9 12.314,0.9 C8.851,0.9 -2.835,28.204 2.147,32.277" id="Fill-11" mask="url(#mask-4)"></path>
            </g>
            <g id="Group-49" transform="translate(0.000000, 0.848000)">
                <path d="M27.3503,14.9697 C29.3713,11.1457 18.2463,10.5277 20.3473,7.6617 C20.3473,7.6617 125.5443,-9.2383 190.0743,7.6677 L182.2123,9.5417 C182.2123,9.5417 210.2413,20.1457 223.6983,46.3677 L254.7553,42.9197 C281.8503,49.0437 311.4283,53.8547 320.3743,83.7577 L320.0333,109.2907 L322.7943,112.0547 L322.1043,121.7167 L318.6493,122.7467 C318.6493,122.7467 311.2543,124.9417 307.4603,124.9417 C307.4603,124.9417 309.4203,86.3667 273.8013,86.7707 C239.9853,85.7367 240.3323,121.5927 240.3323,121.5927 L75.3163,121.5957 C75.3163,121.5957 78.5983,85.1937 39.6233,86.7707 C6.9483,87.9877 11.4793,125.7407 11.4793,125.7407 L6.6463,124.3587 C6.6463,124.3587 1.8123,94.3387 0.7823,85.0197 C0.7823,85.0197 4.2323,78.8077 4.2323,72.9437 C4.2323,72.9437 12.1673,30.8417 27.3503,14.9697" id="Fill-14" fill="#EF4136"></path>
                <g id="Group-18" transform="translate(0.000000, 73.000000)">
                    <mask id="mask-6" fill="white">
                        <use xlink:href="#path-5"></use>
                    </mask>
                    <g id="Clip-17"></g>
                    <path d="M323.9128,28.8076 L322.1038,48.7166 L318.6488,49.7466 C318.6488,49.7466 311.2548,51.9416 307.4608,51.9416 C307.4608,51.9416 309.4208,13.3676 273.8018,13.7706 C239.9848,12.7366 240.3328,48.5926 240.3328,48.5926 L75.3158,48.5956 C75.3158,48.5956 78.5988,12.1936 39.6238,13.7706 C6.9478,14.9876 11.4788,52.7416 11.4788,52.7416 L3.4058,50.7286 C3.4058,50.7286 1.6518,39.5506 -0.0002,28.8696 C1.9858,28.2776 7.1008,27.8456 7.5578,27.7626 C13.0938,10.2146 27.6208,1.1826 42.8548,0.2496 C70.0428,-1.4164 82.0318,26.5346 84.8668,41.8946 C133.1648,41.6546 181.4628,41.4126 229.7598,41.1726 C239.2548,-12.8494 293.4268,-9.3004 313.8128,27.8536 C313.8128,27.8536 320.8578,28.3946 323.9128,28.8076" id="Fill-16" fill="#BE1E2D" mask="url(#mask-6)"></path>
                </g>
                <path d="M214.3659,47.9776 C209.5389,39.2146 190.5469,10.2556 149.6619,8.7926 C142.5169,8.5386 135.4039,8.4566 128.4679,8.5036 L125.6969,47.9776 L214.3659,47.9776 Z M51.9869,14.2606 C41.6909,15.1496 38.9039,38.0636 37.3179,47.9776 L120.8879,47.9776 L125.0829,8.5356 C111.5449,8.7066 64.2219,9.5946 51.9869,14.2606 Z" id="Fill-19" fill="#404041"></path>
                <path d="M198.1598,37.7725 C198.1598,37.7725 194.0208,45.3625 199.5448,51.5745 C199.5448,51.5745 218.8678,43.9845 198.1598,37.7725" id="Fill-21" fill="#F58F5B"></path>
                <path d="M315.736,79.2744 C311.248,67.3474 304.097,62.6594 294.062,57.6494 C284.385,56.6804 284.171,63.7534 288.092,70.2974 C292.045,76.9044 309.27,90.0394 315.736,79.2744" id="Fill-23" fill="#FFFFFF"></path>
                <path d="M126.7448,58.8184 L126.7408,57.5994 C126.7348,56.4734 127.4248,55.5574 128.2818,55.5514 L146.6088,55.4514 C147.4668,55.4454 148.1658,56.3554 148.1718,57.4794 L148.1768,58.6994 L126.7448,58.8184 Z" id="Fill-25" fill="#594A42"></path>
                <path d="M88.9714,59.3213 L88.9664,58.1033 C88.9614,56.9773 89.6534,56.0603 90.5094,56.0563 L108.8354,55.9553 C109.6934,55.9503 110.3924,56.8583 110.3974,57.9843 L110.4034,59.2033 L88.9714,59.3213 Z" id="Fill-27" fill="#594A42"></path>
                <path d="M286.5358,130.4043 C279.2228,137.7893 267.3068,137.8493 259.9208,130.5363 C252.5348,123.2223 252.4748,111.3063 259.7878,103.9213 C267.1008,96.5343 279.0168,96.4753 286.4038,103.7883 C293.7898,111.1003 293.8488,123.0173 286.5358,130.4043 M254.9828,135.5223 C265.1228,145.5633 281.4818,145.4813 291.5218,135.3413 C301.5628,125.2003 301.4818,108.8423 291.3418,98.8003 C281.2008,88.7603 264.8418,88.8413 254.8018,98.9823 C244.7618,109.1233 244.8428,125.4823 254.9828,135.5223" id="Fill-29" fill="#363638"></path>
                <path d="M273.0563,95.8067 C284.8483,95.7477 294.4573,105.2617 294.5173,117.0547 C294.5763,128.8487 285.0623,138.4577 273.2673,138.5157 C261.4753,138.5747 251.8663,129.0607 251.8073,117.2667 C251.7483,105.4747 261.2623,95.8657 273.0563,95.8067" id="Fill-31" fill="#FFFFFF"></path>
                <path d="M273.069,98.3467 C262.677,98.3987 254.296,106.8637 254.347,117.2547 C254.399,127.6467 262.865,136.0277 273.256,135.9757 C283.647,135.9237 292.029,127.4587 291.976,117.0677 C291.925,106.6767 283.46,98.2947 273.069,98.3467" id="Fill-33" fill="#525458"></path>
                <path d="M276.9333,122.2158 C279.4763,119.6468 279.4563,115.5018 276.8873,112.9588 C274.3183,110.4148 270.1733,110.4358 267.6293,113.0048 C265.0863,115.5728 265.1073,119.7188 267.6753,122.2628 C270.2453,124.8058 274.3893,124.7838 276.9333,122.2158" id="Fill-35" fill="#696B6F"></path>
                <path d="M271.0251,120.6895 L273.5691,120.6755 L275.3591,118.8685 L275.3471,116.3225 L273.5391,114.5325 L270.9941,114.5445 L269.2031,116.3535 L269.2151,118.8975 L271.0251,120.6895 Z M271.0381,137.8025 L269.8481,123.5665 L259.0341,132.9015 L257.1231,131.0085 L266.3491,120.1025 L252.1021,119.0545 L252.0871,116.3665 L266.3241,115.1765 L256.9911,104.3625 L258.8811,102.4535 L269.7901,111.6775 L270.8371,97.4295 L273.5241,97.4175 L274.7131,111.6545 L285.5291,102.3205 L287.4391,104.2105 L278.2131,115.1195 L292.4611,116.1665 L292.4741,118.8545 L278.2381,120.0435 L287.5721,130.8585 L285.6801,132.7685 L274.7731,123.5425 L273.7261,137.7905 L271.0381,137.8025 Z" id="Fill-37" fill="#FFFFFF"></path>
                <path d="M56.3268,130.4043 C49.0138,137.7893 37.0978,137.8493 29.7108,130.5363 C22.3248,123.2223 22.2658,111.3063 29.5788,103.9213 C36.8918,96.5343 48.8068,96.4753 56.1938,103.7883 C63.5808,111.1003 63.6388,123.0173 56.3268,130.4043 M24.7728,135.5223 C34.9138,145.5633 51.2728,145.4813 61.3128,135.3413 C71.3528,125.2003 71.2718,108.8423 61.1328,98.8003 C50.9908,88.7603 34.6328,88.8413 24.5918,98.9823 C14.5518,109.1233 14.6338,125.4823 24.7728,135.5223" id="Fill-39" fill="#363638"></path>
                <path d="M42.8473,95.8067 C54.6393,95.7477 64.2483,105.2617 64.3073,117.0547 C64.3663,128.8487 54.8523,138.4577 43.0583,138.5157 C31.2653,138.5747 21.6573,129.0607 21.5983,117.2667 C21.5393,105.4747 31.0533,95.8657 42.8473,95.8067" id="Fill-41" fill="#FFFFFF"></path>
                <path d="M42.8591,98.3467 C32.4681,98.3987 24.0871,106.8637 24.1381,117.2547 C24.1901,127.6467 32.6551,136.0277 43.0461,135.9757 C53.4381,135.9237 61.8191,127.4587 61.7671,117.0677 C61.7151,106.6767 53.2501,98.2947 42.8591,98.3467" id="Fill-43" fill="#525458"></path>
                <path d="M46.7243,122.2158 C49.2663,119.6468 49.2463,115.5018 46.6773,112.9588 C44.1083,110.4148 39.9643,110.4358 37.4203,113.0048 C34.8763,115.5728 34.8973,119.7188 37.4663,122.2628 C40.0353,124.8058 44.1793,124.7838 46.7243,122.2158" id="Fill-45" fill="#696B6F"></path>
                <path d="M40.8161,120.6895 L43.3601,120.6755 L45.1501,118.8685 L45.1371,116.3225 L43.3301,114.5325 L40.7851,114.5445 L38.9941,116.3535 L39.0061,118.8975 L40.8161,120.6895 Z M40.8291,137.8025 L39.6391,123.5665 L28.8241,132.9015 L26.9141,131.0085 L36.1391,120.1025 L21.8921,119.0545 L21.8791,116.3665 L36.1141,115.1765 L26.7821,104.3625 L28.6721,102.4535 L39.5811,111.6775 L40.6281,97.4295 L43.3151,97.4175 L44.5041,111.6545 L55.3201,102.3205 L57.2301,104.2105 L48.0041,115.1195 L62.2521,116.1665 L62.2651,118.8545 L48.0291,120.0435 L57.3621,130.8585 L55.4711,132.7685 L44.5631,123.5425 L43.5161,137.7905 L40.8291,137.8025 Z" id="Fill-47" fill="#FFFFFF"></path>
            </g>
        </g>
    </g>
</svg>