<?xml version="1.0" encoding="UTF-8"?>
<svg width="661px" height="425px" viewBox="0 0 661 425" version="1.1" xmlns="http://www.w3.org/2000/svg" xmlns:xlink="http://www.w3.org/1999/xlink">
    <!-- Generator: Sketch 52.6 (67491) - http://www.bohemiancoding.com/sketch -->
    <title>faucet</title>
    <desc>Created with Sketch.</desc>
    <defs>
        <polygon id="path-1" points="0 424.479 660.423 424.479 660.423 0 0 0"></polygon>
    </defs>
    <g id="faucet" stroke="none" stroke-width="1" fill="none" fill-rule="evenodd">
        <g id="Group-91">
            <path d="M657.5294,61.9405 L657.5294,193.1875 L637.6904,193.1875 L637.6904,61.9405 C637.6904,50.8235 628.5544,41.7085 617.4374,41.7085 L617.4374,21.8745 C639.5744,21.8745 657.5294,39.8075 657.5294,61.9405" id="Fill-1" fill="#A1BED3"></path>
            <mask id="mask-2" fill="white">
                <use xlink:href="#path-1"></use>
            </mask>
            <g id="Clip-4"></g>
            <polygon id="Fill-3" fill="#E4E7F2" mask="url(#mask-2)" points="596.689 44.552 617.438 44.552 617.438 18.821 596.689 18.821"></polygon>
            <polygon id="Fill-5" fill="#E4E7F2" mask="url(#mask-2)" points="635.002 72.447 660.423 72.447 660.423 62.768 635.002 62.768"></polygon>
            <polygon id="Fill-6" fill="#D9DCE6" mask="url(#mask-2)" points="636.478 77.824 658.742 77.824 658.742 72.447 636.478 72.447"></polygon>
            <polygon id="Fill-7" fill="#DCE2E1" mask="url(#mask-2)" points="637.69 82.955 657.529 82.955 657.529 77.824 637.69 77.824"></polygon>
            <path d="M623.3165,22.3009 L621.9095,42.1989 C620.4755,41.8909 618.9915,41.7109 617.4785,41.7109 L617.4785,21.8639 C619.4755,21.8639 621.4215,22.0169 623.3165,22.3009" id="Fill-8" fill="#DCE2E1" mask="url(#mask-2)"></path>
            <polygon id="Fill-9" fill="#A1BED3" mask="url(#mask-2)" points="637.69 258.493 657.529 258.493 657.529 193.187 637.69 193.187"></polygon>
            <path d="M604.09,110.4776 L604.09,258.4936 L596.382,258.4936 L596.382,181.5216 L596.455,181.5216 L596.455,155.7166 L596.473,155.7166 L596.473,110.4776 C596.473,107.3386 593.904,104.7696 590.767,104.7696 C587.628,104.7696 585.059,107.3386 585.059,110.4776 L585.059,166.1776 C585.059,173.5376 579.056,179.5216 571.715,179.5216 C564.356,179.5216 558.373,173.5376 558.373,166.1776 L558.373,147.0166 L558.356,147.0536 L558.356,108.6046 L558.373,108.6046 L558.373,63.3656 C558.373,60.2276 555.803,57.6576 552.664,57.6576 C549.527,57.6576 546.939,60.2276 546.939,63.3656 L546.939,119.0666 C546.939,126.4246 540.955,132.4086 533.614,132.4086 C526.255,132.4086 520.272,126.4246 520.272,119.0666 L520.272,72.9076 L527.889,72.9076 L527.889,119.0666 C527.889,122.2226 530.458,124.7916 533.614,124.7916 C536.735,124.7916 539.323,122.2226 539.323,119.0666 L539.323,63.3656 C539.323,56.0246 545.306,50.0396 552.664,50.0396 C559.694,50.0396 565.476,55.4926 565.935,62.4286 C565.99,62.7406 565.99,63.0516 565.99,63.3656 L565.99,166.1776 C565.99,169.3336 568.559,171.9046 571.715,171.9046 C574.853,171.9046 577.423,169.3336 577.423,166.1776 L577.423,110.4776 C577.423,103.1366 583.405,97.1526 590.767,97.1526 C597.794,97.1526 603.576,102.6036 604.035,109.5406 C604.09,109.8516 604.09,110.1656 604.09,110.4776" id="Fill-10" fill="#83CFD2" mask="url(#mask-2)"></path>
            <polygon id="Fill-11" fill="#DBCD65" mask="url(#mask-2)" points="519.5831 72.8936 528.5241 72.8956 528.5241 70.0766 519.5831 70.0746"></polygon>
            <polygon id="Fill-12" fill="#F6E672" mask="url(#mask-2)" points="518.223 70.072 529.89 70.072 529.89 63.365 518.223 63.365"></polygon>
            <path d="M526.6788,63.3653 L526.6788,67.8823 C526.6748,68.3033 527.0268,68.6543 527.4518,68.6543 L529.8898,68.6533 L529.8898,63.3653 L526.6788,63.3653 Z" id="Fill-13" fill="#FFFFFF" mask="url(#mask-2)"></path>
            <path d="M521.857465,63.3653 L521.8575,67.8823 C521.8535,68.3033 522.1925,68.6513 522.6175,68.6533 L525.4845,68.6533 C525.9115,68.6543 526.2585,68.3043 526.2545,67.8823 L526.254534,63.3653 L521.857465,63.3653 Z" id="Fill-14" fill="#DBC6B8" mask="url(#mask-2)"></path>
            <path d="M518.2228,63.3653 L518.2228,68.6533021 L520.6648,68.6533 C521.0898,68.6543 521.4228,68.3033 521.4228,67.8843 L521.4228,63.3673 L518.2228,63.3653 Z" id="Fill-15" fill="#DBC6B8" mask="url(#mask-2)"></path>
            <polygon id="Fill-16" fill="#DBC6B8" mask="url(#mask-2)" points="520.2687 75.3956 527.8877 75.3956 527.8897 72.8956 520.2657 72.8936"></polygon>
            <polygon id="Fill-17" fill="#CDBFCC" mask="url(#mask-2)" points="657.5323 96.5587 657.5323 100.5037 652.2473 100.5037 652.2473 107.9737 637.6913 107.9737 637.6913 100.6327 650.1723 100.6327 650.1723 96.5587"></polygon>
            <polygon id="Fill-18" fill="#CDBFCC" mask="url(#mask-2)" points="657.5323 151.4503 657.5323 156.6643 648.9063 156.6643 648.9063 152.0203 637.6913 152.0203 637.6913 144.6793 652.2473 144.6793 652.2473 151.4503"></polygon>
            <path d="M603.8302,107.9737 L599.0412,107.9737 C597.9762,107.9737 596.9302,107.9917 595.9032,108.0297 C595.0032,106.1007 593.0392,104.7617 590.7652,104.7617 C588.0852,104.7617 585.8272,106.6157 585.2212,109.1117 C582.5062,109.5707 579.8982,110.1767 577.4212,110.9097 L577.4212,110.4687 C577.4212,107.5507 578.3562,104.8347 579.9912,102.6327 C585.8092,101.3297 592.1592,100.6327 599.0412,100.6327 L599.7382,100.6327 C601.8302,102.5237 603.2982,105.0737 603.8302,107.9737" id="Fill-19" fill="#CDBFCC" mask="url(#mask-2)"></path>
            <path d="M565.9884,107.2032 L565.9884,115.4622 C563.2534,116.8742 560.7204,118.4532 558.3534,120.1782 L558.3534,111.2222 C560.7574,109.7532 563.2894,108.4142 565.9884,107.2032" id="Fill-20" fill="#CDBFCC" mask="url(#mask-2)"></path>
            <path d="M546.8829,120.1036 C546.4419,125.7936 542.4219,130.4926 537.0819,131.9236 C539.8709,127.7206 543.1209,123.7386 546.8829,120.1036" id="Fill-21" fill="#CDBFCC" mask="url(#mask-2)"></path>
            <path d="M604.089,144.6798 L604.089,152.0208 L599.041,152.0208 C598.142,152.0208 597.298,152.0388 596.472,152.0938 L596.472,144.7358 C597.316,144.6978 598.16,144.6798 599.041,144.6798 L604.089,144.6798 Z" id="Fill-22" fill="#CDBFCC" mask="url(#mask-2)"></path>
            <path d="M585.0568,147.0099 L585.0568,155.2149 C581.8068,157.2149 579.9918,159.9119 578.6508,162.5919 C578.1738,163.5469 577.7708,164.5189 577.4208,165.4739 L577.4208,151.9299 C579.5858,149.8189 582.1198,148.1859 585.0568,147.0099" id="Fill-23" fill="#CDBFCC" mask="url(#mask-2)"></path>
            <path d="M576.1007,169.8419 C575.3477,173.0709 575.2007,175.5679 575.1827,176.0089 L575.1827,179.0349 C574.0797,179.3479 572.9067,179.5129 571.7127,179.5129 C570.3737,179.5129 569.0717,179.3119 567.8417,178.9269 L567.8417,175.8799 C567.8417,175.8419 567.8977,173.8239 568.4097,170.8509 C569.3457,171.5119 570.4837,171.8979 571.7127,171.8979 C573.4747,171.8979 575.0537,171.0889 576.1007,169.8419" id="Fill-24" fill="#CDBFCC" mask="url(#mask-2)"></path>
            <path d="M239.9074,93.127 C225.9534,98.181 170.2874,73.236 142.2594,96.744 C82.0054,147.279 183.9964,291.109 173.0004,321.877 C151.6434,381.629 25.5244,333.359 1.2794,391.999 C0.4754,393.942 -0.2876,396.038 0.1074,398.105 C0.8104,401.77 4.7134,403.757 8.1804,405.135 C59.8654,425.661 117.8434,430.011 172.0114,417.424 C191.4724,412.901 211.0124,405.917 225.7594,392.436 C248.6204,371.534 256.2434,338.091 253.8804,307.205 C251.5164,276.319 240.5784,246.854 231.5944,217.209 C222.6114,187.565 179.3294,116.635 227.2494,121.156" id="Fill-25" fill="#60C6CB" mask="url(#mask-2)"></path>
            <path d="M224.4425,100.5108 C212.0715,104.9898 162.7205,82.8758 137.8725,103.7168 C84.4555,148.5188 174.8755,276.0318 165.1265,303.3078 C146.1925,356.2808 34.3825,313.4878 12.8875,365.4738 C12.1755,367.1968 11.4985,369.0548 11.8495,370.8858 C12.4725,374.1358 15.9315,375.8978 19.0065,377.1188 C64.8275,395.3178 116.2265,399.1718 164.2505,388.0138 C181.5035,384.0038 198.8265,377.8128 211.8985,365.8608 C232.1665,347.3308 238.9245,317.6818 236.8305,290.2998 C234.7345,262.9178 225.0375,236.7958 217.0735,210.5148 C209.1095,184.2328 170.7375,121.3518 213.2195,125.3598" id="Fill-26" fill="#329EA4" mask="url(#mask-2)"></path>
            <polygon id="Fill-27" fill="#7EA1A9" mask="url(#mask-2)" points="289.458 77.819 314.723 77.819 314.723 54.622 289.458 54.622"></polygon>
            <path d="M365.0236,77.712 L365.0236,135.119 L348.6746,135.119 L348.6746,132.115 L335.2066,132.115 C327.5716,141.954 315.6016,148.285 302.1856,148.285 C288.7406,148.285 276.7736,141.954 269.1376,132.115 L257.1446,132.115 L257.1446,135.119 L240.7726,135.119 L240.7726,77.712 L257.1446,77.712 L257.1446,81.194 L268.7616,81.194 C276.3996,71.076 288.5406,64.543 302.1856,64.543 C315.8306,64.543 327.9476,71.076 335.5826,81.194 L348.6746,81.194 L348.6746,77.712 L365.0236,77.712 Z" id="Fill-28" fill="#92CDD9" mask="url(#mask-2)"></path>
            <path d="M339.4122,98.4503 C338.0392,97.6033 336.3972,97.1063 334.6432,97.1063 C332.6132,97.1063 330.7432,97.7663 329.2362,98.8793 C326.6552,89.2583 319.0622,81.6593 309.4332,79.0823 C310.5522,77.5563 311.2142,75.6833 311.2142,73.6723 C311.2142,71.9363 310.7092,70.3003 309.8442,68.9063 C324.6752,71.9623 336.3522,83.6193 339.4122,98.4503" id="Fill-29" fill="#F86A6F" mask="url(#mask-2)"></path>
            <path d="M339.4122,114.0099 C336.3742,128.6549 324.9462,140.2189 310.3702,143.4299 C310.9202,142.2679 311.2142,140.9919 311.2142,139.6459 C311.2142,137.3179 310.3232,135.1719 308.8662,133.5539 C318.7662,131.1139 326.5882,123.4019 329.2362,113.5729 C330.7432,114.6889 332.6132,115.3539 334.6432,115.3539 C336.3972,115.3539 338.0392,114.8489 339.4122,114.0099" id="Fill-30" fill="#F86A6F" mask="url(#mask-2)"></path>
            <path d="M292.962,139.6456 C292.962,140.9926 293.262,142.2676 293.809,143.4296 C279.188,140.2186 267.736,128.5806 264.746,113.8686 C266.16,114.8066 267.87,115.3536 269.719,115.3536 C271.657,115.3536 273.485,114.7336 274.967,113.6866 C277.636,123.4696 285.463,131.1136 295.316,133.5536 C293.856,135.1716 292.962,137.3176 292.962,139.6456" id="Fill-31" fill="#F86A6F" mask="url(#mask-2)"></path>
            <path d="M294.7423,79.0821 C285.1393,81.6591 277.5893,89.1891 274.9673,98.7691 C273.4853,97.7161 271.6573,97.1061 269.7193,97.1061 C267.8703,97.1061 266.1603,97.6531 264.7463,98.5871 C267.7573,83.7111 279.4583,71.9621 294.3353,68.9061 C293.4673,70.3001 292.9623,71.9361 292.9623,73.6721 C292.9623,75.6841 293.6273,77.5571 294.7423,79.0821" id="Fill-32" fill="#F86A6F" mask="url(#mask-2)"></path>
            <path d="M325.5167,106.2296 C325.5167,108.0976 326.0877,109.8336 327.0247,111.2666 L312.3317,111.2666 C311.2137,113.5256 309.3887,115.3536 307.1297,116.4456 L307.1297,132.0526 C305.6697,131.0946 303.9367,130.5216 302.0907,130.5216 C300.2447,130.5216 298.5087,131.0946 297.0487,132.0526 L297.0487,116.4456 C294.7887,115.3536 292.9617,113.5256 291.8467,111.2666 L277.3387,111.2666 C278.2757,109.8336 278.8427,108.0976 278.8427,106.2296 C278.8427,104.3576 278.2957,102.6456 277.3387,101.2066 L291.8467,101.2066 C292.9617,98.9496 294.7887,97.1066 297.0487,96.0036 L297.0487,81.2726 C298.5087,82.2246 300.2447,82.7986 302.0907,82.7986 C303.9367,82.7986 305.6697,82.2246 307.1297,81.2726 L307.1297,96.0036 C309.3887,97.1066 311.2137,98.9496 312.3317,101.2066 L327.0247,101.2066 C326.0617,102.6456 325.5167,104.3576 325.5167,106.2296" id="Fill-33" fill="#F86A6F" mask="url(#mask-2)"></path>
            <path d="M311.214,73.672 C311.214,75.684 310.552,77.557 309.434,79.082 C308.798,79.947 308.022,80.681 307.13,81.273 C305.67,82.225 303.937,82.799 302.091,82.799 C300.244,82.799 298.509,82.225 297.049,81.273 C296.157,80.681 295.387,79.947 294.742,79.082 C293.627,77.557 292.962,75.684 292.962,73.672 C292.962,71.937 293.467,70.3 294.335,68.906 C295.907,66.284 298.803,64.548 302.091,64.548 C305.376,64.548 308.275,66.284 309.844,68.906 C310.709,70.3 311.214,71.937 311.214,73.672" id="Fill-34" fill="#F86A6F" mask="url(#mask-2)"></path>
            <path d="M311.214,139.6456 C311.214,140.9926 310.92,142.2676 310.37,143.4296 C308.955,146.5816 305.786,148.7716 302.091,148.7716 C298.393,148.7716 295.221,146.5816 293.809,143.4296 C293.262,142.2676 292.962,140.9926 292.962,139.6456 C292.962,137.3176 293.856,135.1716 295.316,133.5536 C295.816,132.9806 296.383,132.4626 297.049,132.0526 C298.509,131.0946 300.244,130.5216 302.091,130.5216 C303.937,130.5216 305.67,131.0946 307.13,132.0526 C307.793,132.4626 308.36,132.9806 308.866,133.5536 C310.323,135.1716 311.214,137.3176 311.214,139.6456" id="Fill-35" fill="#F86A6F" mask="url(#mask-2)"></path>
            <path d="M343.7677,106.2296 C343.7677,109.5096 342.0347,112.4116 339.4127,114.0096 C338.0387,114.8486 336.3977,115.3536 334.6437,115.3536 C332.6137,115.3536 330.7437,114.6886 329.2367,113.5736 C328.3717,112.9586 327.6137,112.1556 327.0247,111.2666 C326.0877,109.8336 325.5167,108.0976 325.5167,106.2296 C325.5167,104.3576 326.0617,102.6456 327.0247,101.2066 C327.6137,100.2936 328.3717,99.5206 329.2367,98.8786 C330.7437,97.7666 332.6137,97.1066 334.6437,97.1066 C336.3977,97.1066 338.0387,97.6036 339.4127,98.4506 C342.0347,100.0436 343.7677,102.9396 343.7677,106.2296" id="Fill-36" fill="#F86A6F" mask="url(#mask-2)"></path>
            <path d="M278.8429,106.2296 C278.8429,108.0976 278.2759,109.8336 277.3389,111.2666 C276.6989,112.2056 275.9049,113.0266 274.9669,113.6866 C273.4859,114.7336 271.6569,115.3536 269.7189,115.3536 C267.8699,115.3536 266.1599,114.8066 264.7459,113.8686 C262.2369,112.2476 260.5959,109.4416 260.5959,106.2296 C260.5959,103.0076 262.2369,100.2046 264.7459,98.5866 C266.1599,97.6536 267.8699,97.1066 269.7189,97.1066 C271.6569,97.1066 273.4859,97.7156 274.9669,98.7686 C275.9049,99.4286 276.6989,100.2496 277.3389,101.2066 C278.2959,102.6456 278.8429,104.3576 278.8429,106.2296" id="Fill-37" fill="#F86A6F" mask="url(#mask-2)"></path>
            <path d="M306.2726,106.2296 C306.2726,108.5366 304.3996,110.4096 302.0906,110.4096 C299.7816,110.4096 297.9036,108.5366 297.9036,106.2296 C297.9036,103.9156 299.7816,102.0426 302.0906,102.0426 C304.3996,102.0426 306.2726,103.9156 306.2726,106.2296" id="Fill-38" fill="#F86A6F" mask="url(#mask-2)"></path>
            <path d="M329.2228,98.8946 C328.3728,99.5206 327.6208,100.2936 327.0218,101.1986 L312.3248,101.1986 C311.2228,98.9446 309.3948,97.1146 307.1408,96.0146 L307.1408,81.2676 C308.0188,80.6656 308.7948,79.9426 309.4448,79.0896 C319.0578,81.6666 326.6428,89.2526 329.2228,98.8946" id="Fill-39" fill="#CAD7D8" mask="url(#mask-2)"></path>
            <path d="M329.2228,113.5655 C326.5958,123.4015 318.7578,131.1135 308.8688,133.5445 C308.3688,132.9915 307.7898,132.4675 307.1408,132.0425 L307.1408,116.4455 C309.3948,115.3435 311.2228,113.5155 312.3248,111.2605 L327.0218,111.2605 C327.6208,112.1615 328.3728,112.9625 329.2228,113.5655" id="Fill-40" fill="#CAD7D8" mask="url(#mask-2)"></path>
            <path d="M297.0538,116.4454 L297.0538,132.0424 C296.3748,132.4674 295.8258,132.9914 295.3238,133.5444 C285.4598,131.1134 277.6228,123.4804 274.9718,113.6914 C275.8978,113.0094 276.6978,112.2114 277.3488,111.2604 L291.8468,111.2604 C292.9698,113.5154 294.7998,115.3434 297.0538,116.4454" id="Fill-41" fill="#CAD7D8" mask="url(#mask-2)"></path>
            <path d="M297.0538,81.2677 L297.0538,96.0147 C294.7998,97.1147 292.9698,98.9447 291.8468,101.1987 L277.3488,101.1987 C276.6978,100.2447 275.8978,99.4177 274.9718,98.7687 C277.5988,89.1787 285.1348,81.6667 294.7468,79.0897 C295.3728,79.9427 296.1528,80.6647 297.0538,81.2677" id="Fill-42" fill="#CAD7D8" mask="url(#mask-2)"></path>
            <path d="M327.0216,111.2667 L312.3246,111.2667 C311.2226,113.5437 309.3946,115.3717 307.1406,116.4487 L307.1406,132.0707 C305.6656,131.0947 303.9346,130.5167 302.0846,130.5167 L302.0846,112.9177 C305.7886,112.9177 308.7686,109.9417 308.7686,106.2357 L325.5166,106.2357 C325.5166,108.1137 326.0926,109.8377 327.0216,111.2667" id="Fill-43" fill="#DEBFAC" mask="url(#mask-2)"></path>
            <path d="M291.8175,111.2667 L277.3465,111.2667 C278.2755,109.8377 278.8505,108.1137 278.8505,106.2357 L290.6415,106.2357 C290.6415,108.0347 291.0675,109.7647 291.8175,111.2667" id="Fill-44" fill="#DEBFAC" mask="url(#mask-2)"></path>
            <path d="M307.1407,81.2725 L307.1407,95.9695 C305.6157,95.2175 303.9107,94.7925 302.0847,94.7925 L302.0847,82.7985 C303.9347,82.7985 305.6647,82.2245 307.1407,81.2725" id="Fill-45" fill="#DEBFAC" mask="url(#mask-2)"></path>
            <path d="M311.2228,73.6876 C311.2228,75.6866 310.5458,77.5646 309.4448,79.0946 C308.7948,79.9476 308.0188,80.6946 307.1408,81.2726 C305.6648,82.2246 303.9348,82.7986 302.0848,82.7986 C300.2548,82.7986 298.5028,82.2246 297.0518,81.2726 C296.1528,80.6946 295.3998,79.9476 294.7468,79.0946 C293.6238,77.5646 292.9698,75.6866 292.9698,73.6876 C292.9698,72.5596 293.1718,71.5066 293.5718,70.5346 C293.5958,71.6336 293.9478,72.6356 294.4968,73.4876 C294.8738,74.0356 295.3498,74.5406 295.8998,74.9396 C296.8518,75.6396 298.0298,76.0656 299.3058,76.0656 C300.4078,76.0656 301.4588,75.7416 302.3088,75.2126 C303.9628,74.2106 305.0628,72.3886 305.0628,70.3076 C305.0628,68.2306 303.9628,66.4026 302.3088,65.4006 C301.7838,65.0776 301.1828,64.8216 300.5578,64.7006 C301.0568,64.5976 301.5598,64.5476 302.0848,64.5476 C305.3888,64.5476 308.2688,66.2996 309.8438,68.9066 C310.7228,70.3076 311.2228,71.9336 311.2228,73.6876" id="Fill-46" fill="#DEBFAC" mask="url(#mask-2)"></path>
            <path d="M311.2228,139.6563 C311.2228,141.0053 310.9198,142.2863 310.3698,143.4353 C308.9688,146.5893 305.7878,148.7713 302.0848,148.7713 C298.4038,148.7713 295.2238,146.5893 293.8248,143.4353 C293.2718,142.2863 292.9698,141.0053 292.9698,139.6563 C292.9698,138.5563 293.1718,137.4803 293.5478,136.4783 C293.5478,137.6513 293.9208,138.7323 294.4968,139.6323 C294.8738,140.2083 295.3498,140.7083 295.8998,141.0843 C296.8518,141.7833 298.0298,142.2103 299.3058,142.2103 C300.4078,142.2103 301.4588,141.8853 302.3088,141.3573 C303.9628,140.3553 305.0628,138.5303 305.0628,136.4523 C305.0628,134.3753 303.9628,132.5473 302.3088,131.5453 C301.6598,131.1423 300.9078,130.8693 300.1308,130.7423 C300.7568,130.5943 301.4068,130.5163 302.0848,130.5163 C303.9348,130.5163 305.6648,131.0943 307.1408,132.0703 C307.7898,132.4723 308.3688,132.9963 308.8688,133.5493 C310.3238,135.1773 311.2228,137.3283 311.2228,139.6563" id="Fill-47" fill="#DEBFAC" mask="url(#mask-2)"></path>
            <path d="M343.7677,106.2354 C343.7677,109.5144 342.0417,112.4164 339.4137,114.0174 C338.0337,114.8454 336.4087,115.3724 334.6567,115.3724 C332.6027,115.3724 330.7507,114.6934 329.2467,113.5684 C328.3727,112.9674 327.6217,112.1664 327.0217,111.2664 C326.0927,109.8384 325.5167,108.1134 325.5167,106.2354 C325.5167,105.6094 325.5667,105.0304 325.6937,104.4554 C325.8427,105.1044 326.1197,105.7304 326.4657,106.2824 C326.8447,106.8354 327.3217,107.3344 327.8717,107.7344 C328.8237,108.4334 329.9987,108.8604 331.2777,108.8604 C332.3757,108.8604 333.4047,108.5364 334.2807,108.0104 C335.9327,107.0104 337.0347,105.1834 337.0347,103.1054 C337.0347,101.0274 335.9327,99.1974 334.2807,98.1954 C333.6807,97.8474 333.0017,97.5684 332.2767,97.4484 C333.0287,97.2214 333.8287,97.1194 334.6567,97.1194 C336.4087,97.1194 338.0337,97.6244 339.4137,98.4444 C342.0417,100.0484 343.7677,102.9534 343.7677,106.2354" id="Fill-48" fill="#DEBFAC" mask="url(#mask-2)"></path>
            <path d="M278.8507,106.2354 C278.8507,108.1134 278.2757,109.8384 277.3467,111.2664 C276.6977,112.2134 275.8947,113.0424 274.9717,113.6964 C273.4937,114.7464 271.6657,115.3724 269.7137,115.3724 C267.8857,115.3724 266.1607,114.8194 264.7557,113.8684 C262.2287,112.2684 260.6007,109.4624 260.6007,106.2354 C260.6007,105.6324 260.6487,105.0564 260.7777,104.4784 C260.9237,105.1324 261.2007,105.7304 261.5497,106.2824 C261.9267,106.8354 262.4057,107.3344 262.9527,107.7344 C263.9047,108.4334 265.0817,108.8604 266.3587,108.8604 C267.4597,108.8604 268.4857,108.5364 269.3617,108.0104 C271.0157,107.0104 272.1157,105.1834 272.1157,103.1054 C272.1157,101.0274 271.0157,99.1974 269.3617,98.1954 C268.7617,97.8474 268.0857,97.5684 267.3607,97.4484 C268.1097,97.2214 268.9127,97.1194 269.7137,97.1194 C271.6657,97.1194 273.4937,97.7214 274.9717,98.7734 C275.8947,99.4234 276.6977,100.2494 277.3467,101.2274 C278.3007,102.6554 278.8507,104.3574 278.8507,106.2354" id="Fill-49" fill="#DEBFAC" mask="url(#mask-2)"></path>
            <polygon id="Fill-50" fill="#E0E8E9" mask="url(#mask-2)" points="218.869 126.771 240.783 126.771 240.783 85.448 218.869 85.448"></polygon>
            <polygon id="Fill-51" fill="#E0E8E9" mask="url(#mask-2)" points="365.029 126.771 530.708 126.771 530.708 85.448 365.029 85.448"></polygon>
            <path d="M332.6974,30.5177 C332.6974,47.3717 319.0364,61.0347 302.1794,61.0347 C285.3264,61.0347 271.6634,47.3717 271.6634,30.5177 C271.6634,13.6617 285.3264,-0.0003 302.1794,-0.0003 C319.0364,-0.0003 332.6974,13.6617 332.6974,30.5177" id="Fill-52" fill="#F86A6F" mask="url(#mask-2)"></path>
            <path d="M328.7316,30.5177 C328.7316,45.2297 316.8036,57.1607 302.0906,57.1607 C287.3756,57.1607 275.4476,45.2297 275.4476,30.5177 C275.4476,15.8017 287.3756,3.8767 302.0906,3.8767 C316.8036,3.8767 328.7316,15.8017 328.7316,30.5177" id="Fill-53" fill="#D6E0E0" mask="url(#mask-2)"></path>
            <path d="M296.1466,24.5938 C293.8216,25.4358 291.7566,26.7698 290.0446,28.4868 L283.2406,21.6858 C285.9156,19.0158 289.1686,16.8938 292.8006,15.5828 L296.1466,24.5938 Z" id="Fill-54" fill="#56AE2C" mask="url(#mask-2)"></path>
            <path d="M309.3712,14.9132 L306.7252,24.1602 C305.2442,23.7472 303.7002,23.5182 302.1062,23.5182 C300.0102,23.5182 298.0062,23.8942 296.1462,24.5942 L292.8012,15.5832 C295.7072,14.5082 298.8182,13.9002 302.1062,13.9002 C304.6312,13.9002 307.0722,14.2472 309.3712,14.9132" id="Fill-55" fill="#F0F220" mask="url(#mask-2)"></path>
            <path d="M320.9357,21.6856 L314.1337,28.4866 C312.1007,26.4546 309.5737,24.9416 306.7247,24.1606 L309.3717,14.9136 C313.7897,16.1356 317.7657,18.5216 320.9357,21.6856" id="Fill-56" fill="#F98A1F" mask="url(#mask-2)"></path>
            <polygon id="Fill-57" fill="#0C4352" mask="url(#mask-2)" points="283.361 44.925 288.737 44.925 288.737 38.202 283.361 38.202"></polygon>
            <path d="M284.5187,40.4903 C284.5187,40.0273 284.6797,39.6753 285.0027,39.4303 C285.2847,39.2153 285.6497,39.1073 286.1027,39.1073 C286.5207,39.1073 286.8777,39.2253 287.1697,39.4693 C287.4647,39.7093 287.6147,39.9933 287.6147,40.3143 C287.6147,40.6533 287.5147,40.9693 287.3257,41.2823 C287.2197,41.4533 286.9777,41.7483 286.5937,42.1683 C286.4897,42.2873 286.3337,42.4603 286.1287,42.7053 L285.9567,42.9073 C285.8447,43.0343 285.7627,43.1363 285.7057,43.2153 C285.6757,43.2553 285.6647,43.2733 285.6647,43.2833 L287.5387,43.2833 L287.5387,44.0073 L284.5027,44.0073 L284.5027,43.3283 C284.5027,43.3123 284.5747,43.2253 284.7107,43.0573 C284.7767,42.9833 284.8477,42.9023 284.9287,42.8073 L285.1787,42.5313 C285.3247,42.3793 285.5497,42.1343 285.8607,41.7923 C286.1557,41.4733 286.3707,41.1893 286.5177,40.9323 C286.6357,40.7213 286.6947,40.5193 286.6947,40.3413 C286.6947,40.1933 286.6417,40.0643 286.5337,39.9623 C286.4147,39.8513 286.2627,39.7963 286.0787,39.7963 C285.8107,39.7963 285.6227,39.9143 285.5127,40.1543 C285.4767,40.2323 285.4577,40.3253 285.4577,40.4323 L285.4577,40.6223 L284.5187,40.6223 L284.5187,40.4903 Z" id="Fill-58" fill="#FFFFFF" mask="url(#mask-2)"></path>
            <polygon id="Fill-59" fill="#0C4352" mask="url(#mask-2)" points="289.777 44.925 295.15 44.925 295.15 38.202 289.777 38.202"></polygon>
            <path d="M292.1281,44.0118 L292.1281,40.2388 L291.3161,40.2388 L291.3161,39.7228 C291.5441,39.7038 291.7621,39.6358 291.9681,39.5228 C292.1751,39.4088 292.3251,39.2678 292.4141,39.1078 L293.0821,39.1078 L293.0821,44.0118 L292.1281,44.0118 Z" id="Fill-60" fill="#FFFFFF" mask="url(#mask-2)"></path>
            <polygon id="Fill-61" fill="#0C4352" mask="url(#mask-2)" points="296.191 44.925 301.57 44.925 301.57 38.202 296.191 38.202"></polygon>
            <path d="M298.382,39.8458 L298.382,40.8988 C298.48,40.7958 298.613,40.7168 298.784,40.6568 C298.874,40.6268 298.982,40.6148 299.103,40.6148 C299.522,40.6148 299.831,40.7248 300.028,40.9558 C300.199,41.1508 300.289,41.4238 300.289,41.7828 L300.289,42.8388 C300.289,43.1998 300.139,43.4988 299.842,43.7278 C299.558,43.9538 299.205,44.0648 298.772,44.0648 C298.356,44.0648 298.009,43.9498 297.733,43.7118 C297.47,43.4898 297.335,43.2148 297.335,42.8918 L297.335,42.7738 L298.248,42.7208 L298.269,42.8868 C298.293,43.0838 298.396,43.2148 298.577,43.2788 C298.629,43.3018 298.688,43.3128 298.748,43.3128 C299.14,43.3128 299.331,43.1528 299.331,42.8388 L299.331,41.6398 C299.331,41.4918 299.266,41.3768 299.129,41.2828 C299.067,41.2408 298.977,41.2138 298.863,41.2138 C298.691,41.2138 298.567,41.2688 298.485,41.3668 C298.416,41.4578 298.382,41.5528 298.382,41.6508 L298.382,41.7828 L297.43,41.7828 L297.43,39.1078 L300.221,39.1078 L300.221,39.8458 L298.382,39.8458 Z" id="Fill-62" fill="#FFFFFF" mask="url(#mask-2)"></path>
            <polygon id="Fill-63" fill="#0C4352" mask="url(#mask-2)" points="302.608 44.925 307.987 44.925 307.987 38.202 302.608 38.202"></polygon>
            <path d="M305.4357,42.2081 L305.4357,40.6771 L304.6477,42.2081 L305.4357,42.2081 Z M303.7497,42.2081 L305.4357,39.1071 L306.3907,39.1071 L306.3907,42.2081 L306.9977,42.2081 L306.9977,42.9491 L306.3907,42.9491 L306.3907,44.0071 L305.4357,44.0071 L305.4357,42.9491 L303.7497,42.9491 L303.7497,42.2081 Z" id="Fill-64" fill="#FFFFFF" mask="url(#mask-2)"></path>
            <polygon id="Fill-65" fill="#0C4352" mask="url(#mask-2)" points="309.027 44.925 314.4 44.925 314.4 38.202 309.027 38.202"></polygon>
            <path d="M311.0958,42.8809 C311.0958,42.9989 311.1358,43.1029 311.2138,43.1759 C311.2958,43.2629 311.4168,43.3079 311.5698,43.3079 C311.7198,43.3079 311.8408,43.2629 311.9218,43.1759 C312.0028,43.1029 312.0448,42.9989 312.0448,42.8809 L312.0448,41.9739 C312.0448,41.8369 311.9778,41.7189 311.8428,41.6209 C311.7808,41.5769 311.6878,41.5589 311.5728,41.5589 C311.4068,41.5589 311.2828,41.6059 311.1988,41.7079 C311.1298,41.7919 311.0958,41.8849 311.0958,41.9869 L311.0958,42.8809 Z M312.0448,40.3249 L312.0448,40.2039 C312.0448,40.0849 312.0028,39.9829 311.9188,39.8989 C311.8408,39.8179 311.7218,39.7769 311.5728,39.7769 C311.4198,39.7769 311.3008,39.8179 311.2228,39.8989 C311.1378,39.9829 311.0958,40.0849 311.0958,40.2039 L311.0958,41.1799 C311.3148,41.0289 311.5568,40.9559 311.8168,40.9559 C312.2378,40.9559 312.5528,41.0689 312.7608,41.2929 C312.9478,41.4919 313.0398,41.7659 313.0398,42.1179 L313.0398,42.9599 L313.0338,42.9599 C313.0138,43.2739 312.8688,43.5329 312.5978,43.7439 C312.3268,43.9569 311.9928,44.0599 311.6008,44.0599 C311.1808,44.0599 310.8358,43.9429 310.5628,43.7119 C310.2968,43.4889 310.1618,43.2149 310.1618,42.8919 L310.1618,40.2169 C310.1618,39.9779 310.2388,39.7619 310.3888,39.5719 C310.5358,39.3749 310.7488,39.2339 311.0258,39.1419 C311.2008,39.0779 311.3938,39.0489 311.6008,39.0489 C312.0198,39.0489 312.3668,39.1649 312.6428,39.4019 C312.9058,39.6199 313.0398,39.8939 313.0398,40.2169 L313.0398,40.3249 L312.0448,40.3249 Z" id="Fill-66" fill="#FFFFFF" mask="url(#mask-2)"></path>
            <polygon id="Fill-67" fill="#0C4352" mask="url(#mask-2)" points="315.439 44.925 320.815 44.925 320.815 38.202 315.439 38.202"></polygon>
            <path d="M318.7238,42.545 C318.7238,42.253 318.6368,42.056 318.4658,41.958 C318.3838,41.913 318.2738,41.89 318.1288,41.89 C317.8768,41.89 317.7028,41.974 317.6138,42.14 C317.5588,42.242 317.5328,42.374 317.5328,42.545 L317.5328,42.778 C317.5328,42.941 317.5948,43.073 317.7238,43.171 C317.8318,43.255 317.9658,43.297 318.1288,43.302 C318.3868,43.294 318.5658,43.194 318.6678,43.005 C318.7048,42.947 318.7238,42.868 318.7238,42.778 L318.7238,42.545 Z M318.7548,40.388 C318.7468,40.057 318.6108,39.846 318.3448,39.757 C318.2848,39.738 318.2108,39.728 318.1288,39.728 C317.9608,39.728 317.8268,39.762 317.7238,39.83 C317.6398,39.891 317.5788,39.962 317.5428,40.051 C317.5108,40.144 317.4948,40.257 317.5028,40.388 C317.5108,40.604 317.5558,40.756 317.6348,40.849 C317.7348,40.975 317.8978,41.035 318.1288,41.035 C318.3558,41.035 318.5208,40.969 318.6258,40.838 C318.7158,40.725 318.7578,40.574 318.7548,40.388 Z M319.6758,42.892 C319.6758,43.221 319.5288,43.494 319.2338,43.723 C318.9368,43.949 318.5808,44.06 318.1628,44.06 L318.0868,44.06 C317.6658,44.06 317.3088,43.949 317.0188,43.718 C316.7248,43.489 316.5778,43.215 316.5778,42.892 L316.5778,42.447 C316.5778,42.148 316.7088,41.885 316.9668,41.661 C317.0778,41.566 317.2058,41.484 317.3558,41.424 C317.0978,41.321 316.9008,41.15 316.7588,40.917 C316.6908,40.796 316.6538,40.638 316.6538,40.451 L316.6538,40.189 C316.6538,39.87 316.7778,39.607 317.0188,39.401 C317.2868,39.165 317.6448,39.049 318.0868,39.049 L318.1628,39.049 C318.6108,39.049 318.9678,39.165 319.2388,39.401 C319.4808,39.612 319.5988,39.875 319.5988,40.189 L319.5988,40.451 C319.5988,40.759 319.4838,41.009 319.2468,41.211 C319.1418,41.303 319.0288,41.371 318.8998,41.424 C319.1808,41.548 319.4028,41.732 319.5568,41.982 C319.6358,42.11 319.6758,42.266 319.6758,42.447 L319.6758,42.892 Z" id="Fill-68" fill="#FFFFFF" mask="url(#mask-2)"></path>
            <path d="M284.174,26.6485 C284.174,27.7875 283.254,28.7085 282.12,28.7085 C280.982,28.7085 280.059,27.7875 280.059,26.6485 C280.059,25.5145 280.982,24.5935 282.12,24.5935 C283.254,24.5935 284.174,25.5145 284.174,26.6485" id="Fill-69" fill="#E0EDEE" mask="url(#mask-2)"></path>
            <path d="M284.174,33.9102 C284.174,35.0432 283.254,35.9642 282.12,35.9642 C280.982,35.9642 280.059,35.0432 280.059,33.9102 C280.059,32.7712 280.982,31.8502 282.12,31.8502 C283.254,31.8502 284.174,32.7712 284.174,33.9102" id="Fill-70" fill="#E0EDEE" mask="url(#mask-2)"></path>
            <path d="M324.42,26.6485 C324.42,27.7875 323.5,28.7085 322.366,28.7085 C321.228,28.7085 320.307,27.7875 320.307,26.6485 C320.307,25.5145 321.228,24.5935 322.366,24.5935 C323.5,24.5935 324.42,25.5145 324.42,26.6485" id="Fill-71" fill="#E0EDEE" mask="url(#mask-2)"></path>
            <path d="M324.42,33.9102 C324.42,35.0432 323.5,35.9642 322.366,35.9642 C321.228,35.9642 320.307,35.0432 320.307,33.9102 C320.307,32.7712 321.228,31.8502 322.366,31.8502 C323.5,31.8502 324.42,32.7712 324.42,33.9102" id="Fill-72" fill="#E0EDEE" mask="url(#mask-2)"></path>
            <polygon id="Fill-73" fill="#0C4352" mask="url(#mask-2)" points="300.2755 31.3321 310.3205 21.2251 302.6615 33.2391"></polygon>
            <path d="M324.2941,15.794 C320.0861,13.017 315.0301,11.389 309.5971,11.389 C294.8761,11.389 282.9591,23.303 282.9591,38.021 C282.9591,43.455 284.5871,48.515 287.3671,52.721 C280.1821,47.939 275.4471,39.777 275.4471,30.512 C275.4471,15.817 287.3911,3.877 302.0881,3.877 C311.3521,3.877 319.5131,8.608 324.2941,15.794" id="Fill-74" fill="#CAD7D8" mask="url(#mask-2)"></path>
            <polygon id="Fill-75" fill="#DEBFAC" mask="url(#mask-2)" points="283.361 40.285 288.737 40.285 288.737 38.202 283.361 38.202"></polygon>
            <polygon id="Fill-76" fill="#DEBFAC" mask="url(#mask-2)" points="283.361 44.925 288.737 44.925 288.737 42.842 283.361 42.842"></polygon>
            <polygon id="Fill-77" fill="#DEBFAC" mask="url(#mask-2)" points="289.776 40.285 295.152 40.285 295.152 38.202 289.776 38.202"></polygon>
            <polygon id="Fill-78" fill="#DEBFAC" mask="url(#mask-2)" points="289.776 44.925 295.152 44.925 295.152 42.842 289.776 42.842"></polygon>
            <polygon id="Fill-79" fill="#DEBFAC" mask="url(#mask-2)" points="296.191 40.285 301.57 40.285 301.57 38.202 296.191 38.202"></polygon>
            <polygon id="Fill-80" fill="#DEBFAC" mask="url(#mask-2)" points="296.191 44.925 301.57 44.925 301.57 42.842 296.191 42.842"></polygon>
            <polygon id="Fill-81" fill="#DEBFAC" mask="url(#mask-2)" points="302.608 40.285 307.984 40.285 307.984 38.202 302.608 38.202"></polygon>
            <polygon id="Fill-82" fill="#DEBFAC" mask="url(#mask-2)" points="302.608 44.925 307.984 44.925 307.984 42.842 302.608 42.842"></polygon>
            <polygon id="Fill-83" fill="#DEBFAC" mask="url(#mask-2)" points="309.024 40.285 314.4 40.285 314.4 38.202 309.024 38.202"></polygon>
            <polygon id="Fill-84" fill="#DEBFAC" mask="url(#mask-2)" points="309.024 44.925 314.4 44.925 314.4 42.842 309.024 42.842"></polygon>
            <polygon id="Fill-85" fill="#DEBFAC" mask="url(#mask-2)" points="315.439 40.285 320.815 40.285 320.815 38.202 315.439 38.202"></polygon>
            <polygon id="Fill-86" fill="#DEBFAC" mask="url(#mask-2)" points="315.439 44.925 320.815 44.925 320.815 42.842 315.439 42.842"></polygon>
            <path d="M298.756,148.1407 C294.9,147.8357 291.221,147.0097 287.738,145.7097 L287.715,145.7097 C280.279,143.0067 273.896,138.2487 269.138,132.1157 L257.145,132.1157 L257.145,135.1197 L240.773,135.1197 L240.773,124.4777 L257.145,124.4777 L257.145,120.0727 L266.61,120.0727 C268.313,124.5337 270.863,128.5857 274.069,132.0417 L274.146,132.1157 C274.795,132.8697 275.545,133.6177 276.297,134.2667 L276.348,134.3167 C281.179,138.7747 287.165,141.9787 293.798,143.4297 C294.774,145.5807 296.552,147.2647 298.756,148.1407" id="Fill-87" fill="#CAD7D8" mask="url(#mask-2)"></path>
            <path d="M365.047,124.4776 L365.047,135.1196 L348.675,135.1196 L348.675,132.1156 L335.206,132.1156 C328.197,141.1286 317.532,147.2096 305.439,148.1406 C307.643,147.2646 309.395,145.5816 310.37,143.4296 C324.941,140.2296 336.385,128.6596 339.414,114.0146 C342.042,112.4116 343.768,109.5046 343.768,106.2296 C343.768,102.9476 342.042,100.0436 339.414,98.4396 C337.986,91.4836 334.656,85.2476 329.999,80.2396 L348.675,98.9176 L348.675,124.4776 L365.047,124.4776 Z" id="Fill-88" fill="#CAD7D8" mask="url(#mask-2)"></path>
            <polygon id="Fill-89" fill="#9AB7BD" mask="url(#mask-2)" points="530.713 119.1544 530.713 126.7604 365.024 126.7604 365.024 85.4524 371.418 85.4524 375.316 119.1544"></polygon>
            <polygon id="Fill-90" fill="#9AB7BD" mask="url(#mask-2)" points="240.796 119.1485 240.796 126.7575 218.866 126.7575 218.866 119.1485 235.139 119.1485 238.694 85.4475 240.773 85.4475"></polygon>
        </g>
    </g>
</svg>