<?xml version="1.0" encoding="UTF-8"?>
<svg width="98px" height="316px" viewBox="0 0 98 316" version="1.1" xmlns="http://www.w3.org/2000/svg" xmlns:xlink="http://www.w3.org/1999/xlink">
    <!-- Generator: Sketch 52.6 (67491) - http://www.bohemiancoding.com/sketch -->
    <title>girl</title>
    <desc>Created with Sketch.</desc>
    <defs>
        <polygon id="path-1" points="0.0001 0.322867667 97.591 0.322867667 97.591 82.772462 0.0001 82.772462"></polygon>
        <polygon id="path-3" points="0.811308483 0.4554 31.2016445 0.4554 31.2016445 19 0.811308483 19"></polygon>
        <polygon id="path-5" points="0.879167055 0.4554 31.3837893 0.4554 31.3837893 19 0.879167055 19"></polygon>
    </defs>
    <g id="girl" stroke="none" stroke-width="1" fill="none" fill-rule="evenodd">
        <g id="Group-57">
            <g id="Group-3" transform="translate(0.000000, 1.041000)">
                <mask id="mask-2" fill="white">
                    <use xlink:href="#path-1"></use>
                </mask>
                <g id="Clip-2"></g>
                <path d="M0.0001,64.776 C0.0001,64.776 16.5091,83.25 49.8311,82.763 C83.1521,82.276 97.5911,61.51 97.5911,61.51 C97.5911,61.51 66.4481,38.317 65.3821,12.573 C64.3151,-13.172 24.5091,9.658 24.5091,9.658 C24.5091,9.658 20.0811,51.174 0.0001,64.776" id="Fill-1" fill="#000000" mask="url(#mask-2)"></path>
            </g>
            <polygon id="Fill-4" fill="#EBC7A7" points="52.8673 164.1656 66.3693 164.1656 66.3353 299.9196 78.9533 308.7976 52.8673 308.7976"></polygon>
            <polygon id="Fill-6" fill="#EBC7A7" points="44.3263 164.1656 30.8263 164.1656 30.8603 299.9196 18.2403 308.7976 44.3263 308.7976"></polygon>
            <polygon id="Fill-8" fill="#EBC7A7" points="66.3351 299.92 66.3691 164.166 62.4811 164.166 62.4461 299.92 75.0641 308.797 78.9531 308.797"></polygon>
            <polygon id="Fill-10" fill="#EBC7A7" points="40.438 308.797 44.327 308.797 44.327 164.165 40.438 164.165"></polygon>
            <path d="M58.9474,86.4498 C57.6684,86.2768 56.8884,86.2448 56.8884,86.2448 C56.8884,86.2448 57.4244,96.7608 48.5974,96.7608 C39.7694,96.7608 40.3044,86.2448 40.3044,86.2448 C40.3044,86.2448 39.5424,86.2768 38.2854,86.4438 C31.9584,87.2928 12.8694,91.6578 12.8694,113.5118 L12.8694,128.5208 L12.9014,128.5208 C13.5754,128.5398 24.3614,128.8338 24.3614,128.5208 C24.3614,128.2888 24.4154,128.2338 24.4184,128.0138 C24.5584,116.6218 28.1854,118.5548 28.1854,118.5548 L69.0104,118.5548 C69.0104,118.5548 72.7014,116.2628 72.7764,128.0138 C72.7774,128.1318 72.8344,128.3998 72.8344,128.5208 C72.8344,128.8338 83.6194,128.5398 84.2944,128.5208 L84.3264,128.5208 L84.3264,113.5118 C84.3264,91.7018 65.3124,87.3098 58.9474,86.4498" id="Fill-12" fill="#EBC7A7"></path>
            <g id="Group-18" transform="translate(20.000000, 86.041000)" fill="#EBC7A7">
                <path d="M0.4728,42.4801 C0.4728,42.5481 3.8108,42.0671 4.4178,41.9731 C4.4178,30.8181 8.1858,32.5141 8.1858,32.5141 C8.1858,32.5141 0.4728,30.3271 0.4728,42.4801" id="Fill-14"></path>
                <path d="M38.9474,0.4088 C37.6684,0.2358 36.8884,0.2038 36.8884,0.2038 C36.8884,0.2038 36.8974,0.3898 36.8934,0.7068 C44.4564,2.1208 60.4374,7.4708 60.4374,27.4708 L60.4374,42.4798 L60.4044,42.4798 C60.0574,42.4898 57.0344,42.5728 54.1784,42.6068 C57.0924,42.6778 63.7674,42.4948 64.2944,42.4798 L64.3264,42.4798 L64.3264,27.4708 C64.3264,5.6608 45.3124,1.2688 38.9474,0.4088" id="Fill-16"></path>
            </g>
            <g id="Group-21" transform="translate(14.000000, 296.041000)">
                <mask id="mask-4" fill="white">
                    <use xlink:href="#path-3"></use>
                </mask>
                <g id="Clip-20"></g>
                <path d="M30.3537,0.5934 C30.4737,0.5554 30.7077,0.4874 30.8237,0.4554 C31.4137,5.5234 31.2237,10.7114 30.8587,15.8004 C30.7357,17.4564 29.1897,17.6294 28.1857,17.8454 C27.1607,15.5634 25.5137,13.8164 23.6367,12.7674 C23.0107,12.8174 22.5167,13.3964 21.9577,13.7024 C18.4017,15.7014 14.6647,17.2744 10.7977,17.9554 C7.6707,18.5214 4.5007,19.3424 1.3337,18.8484 C0.2567,17.8744 1.0777,16.2274 1.7197,15.2814 C3.6057,12.6364 10.3857,7.1564 9.2777,8.4054 C13.7587,9.2094 18.7757,9.6574 23.0087,7.3384 C25.7547,5.6864 28.4297,3.6414 30.3537,0.5934" id="Fill-19" fill="#000000" mask="url(#mask-4)"></path>
            </g>
            <g id="Group-24" transform="translate(51.000000, 296.041000)">
                <mask id="mask-6" fill="white">
                    <use xlink:href="#path-5"></use>
                </mask>
                <g id="Clip-23"></g>
                <path d="M1.7287,0.5934 C1.6107,0.5554 1.3747,0.4874 1.2587,0.4554 C0.6667,5.5234 0.8567,10.7114 1.2227,15.8004 C1.3467,17.4564 2.8977,17.6294 3.9067,17.8454 C4.9357,15.5634 6.5877,13.8164 8.4717,12.7674 C9.0997,12.8174 9.5957,13.3964 10.1557,13.7024 C13.7277,15.7014 17.4787,17.2744 21.3597,17.9554 C24.4987,18.5214 27.6807,19.3424 30.8587,18.8484 C31.9407,17.8744 31.1167,16.2274 30.4727,15.2814 C28.5797,12.6364 21.7737,7.1564 22.8867,8.4054 C18.3877,9.2094 13.3497,9.6574 9.1037,7.3384 C6.3467,5.6864 3.6617,3.6414 1.7287,0.5934" id="Fill-22" fill="#000000" mask="url(#mask-6)"></path>
            </g>
            <path d="M88.379,43.2178 C88.449,42.2488 88.498,41.2728 88.498,40.2838 C88.498,18.2478 70.633,0.3838 48.596,0.3838 C26.56,0.3838 8.695,18.2478 8.695,40.2838 C8.695,41.2738 8.743,42.2508 8.814,43.2218 C6.347,43.5788 4.444,45.6808 4.444,48.2478 C4.444,51.0648 6.728,53.3468 9.543,53.3468 C9.991,53.3468 10.418,53.2708 10.831,53.1628 C16.19,68.8788 31.067,80.1868 48.596,80.1868 C66.13,80.1868 81.01,68.8728 86.365,53.1518 C86.791,53.2648 87.229,53.3468 87.689,53.3468 C90.505,53.3468 92.787,51.0648 92.787,48.2478 C92.787,45.6678 90.865,43.5578 88.379,43.2178" id="Fill-25" fill="#EBC7A7"></path>
            <path d="M56.8878,86.2447 C56.8878,86.2447 55.8788,86.1197 53.9578,86.0167 L53.9578,79.4407 C53.9578,74.8337 51.5458,71.0657 48.5948,71.0657 C45.6478,71.0657 43.2348,74.8337 43.2348,79.4407 L43.2348,86.0167 C41.3188,86.1197 40.3038,86.2447 40.3038,86.2447 C40.3038,86.2447 39.4008,96.7607 48.6168,96.7607 C57.8328,96.7607 56.8878,86.2447 56.8878,86.2447" id="Fill-27" fill="#EBC7A7"></path>
            <path d="M88.379,43.2178 C88.449,42.2488 88.498,41.2728 88.498,40.2838 C88.498,18.2478 70.633,0.3838 48.596,0.3838 C47.613,0.3838 46.643,0.4308 45.679,0.5008 C66.354,1.9968 82.664,19.2298 82.664,40.2838 C82.664,41.2728 82.616,42.2488 82.546,43.2178 C82.626,47.0728 81.785,49.4158 80.531,53.1518 C76.361,65.3938 66.409,74.9548 53.93,78.5898 C52.525,78.8938 51.614,79.0758 50.068,79.4408 C48.631,79.7058 44.723,79.7218 43.234,79.8278 C44.199,79.8978 47.615,80.1868 48.596,80.1868 C49.089,80.1868 51.554,81.1728 51.554,82.2358 C51.554,83.2998 51.614,82.2968 51.675,86.1558 L56.894,86.7478 L56.888,86.2448 C56.888,86.2448 55.879,86.1188 53.958,86.0168 L53.958,79.8228 C69.113,77.7848 81.567,67.2418 86.365,53.1518 C86.791,53.2648 87.229,53.3468 87.689,53.3468 C90.505,53.3468 92.787,51.0648 92.787,48.2478 C92.787,45.6678 90.865,43.5578 88.379,43.2178" id="Fill-29" fill="#EBC7A7"></path>
            <path d="M42.0021,63.3185 C42.5611,67.8725 53.4621,71.4025 55.5651,62.8345 C51.0431,62.9955 46.5231,63.1565 42.0021,63.3185" id="Fill-31" fill="#FFFFFF"></path>
            <path d="M58.8517,41.7008 C62.1787,41.2888 62.6967,46.9318 59.1977,46.8248 C56.0447,46.9798 55.7137,41.9018 58.8517,41.7008" id="Fill-33" fill="#000000"></path>
            <path d="M37.3019,41.7047 C40.4719,40.5627 41.9849,45.6067 38.8899,46.5177 C35.8229,47.9137 34.1249,42.5537 37.3019,41.7047" id="Fill-35" fill="#000000"></path>
            <path d="M69.4503,143.5865 C69.2283,143.2225 69.0103,118.5555 69.0103,118.5555 L69.0543,112.6055 L81.4313,100.5395 C78.6313,95.1335 74.1833,91.7705 69.8373,89.6775 C69.6033,100.6235 60.1883,109.4285 48.5973,109.4285 C37.0083,109.4285 27.5933,100.6235 27.3593,89.6775 C23.0123,91.7705 18.5663,95.1335 15.7633,100.5415 L28.1423,112.6055 L28.1853,118.5555 C28.1853,118.5555 27.9663,143.2225 27.7433,143.5865 C22.2013,152.6635 9.6173,214.5795 5.9013,233.2835 L91.2943,233.2835 C87.5793,214.5795 74.9943,152.6635 69.4503,143.5865" id="Fill-37" fill="#F06669"></path>
            <path d="M48.5978,109.4288 C60.1888,109.4288 69.6038,100.6228 69.8368,89.6778 C68.2188,88.8978 66.6138,88.2878 65.1148,87.8208 C65.1158,87.9138 65.1268,88.0028 65.1268,88.0958 C65.1268,97.2238 57.7268,104.6248 48.5978,104.6248 C39.4688,104.6248 32.0688,97.2238 32.0688,88.0958 C32.0688,88.0028 32.0808,87.9118 32.0828,87.8208 C30.5828,88.2858 28.9778,88.8978 27.3598,89.6778 C27.5928,100.6228 37.0078,109.4288 48.5978,109.4288" id="Fill-39" fill="#FAF18C"></path>
            <path d="M15.7638,100.5416 C15.1338,101.7586 14.5848,103.0766 14.1418,104.5106 L28.1858,118.5556 L28.1428,112.6056 L15.7638,100.5416 Z" id="Fill-41" fill="#FAF18C"></path>
            <path d="M69.0099,118.5553 L83.0549,104.5103 C82.6119,103.0763 82.0629,101.7573 81.4319,100.5393 L69.0539,112.6053 L69.0099,118.5553 Z" id="Fill-43" fill="#FAF18C"></path>
            <path d="M92.3468,238.6309 C92.3468,238.6309 91.9628,236.6559 91.2938,233.2839 L5.9018,233.2839 C5.2328,236.6559 4.8488,238.6309 4.8488,238.6309 L92.3468,238.6309 Z" id="Fill-45" fill="#FAF18C"></path>
            <path d="M12.8683,128.0138 L12.8683,162.3008 C13.0813,165.9768 13.0233,169.6608 13.0033,173.3468 L13.0033,173.8118 C13.0143,179.5678 13.0923,181.3948 12.9363,187.1508 C12.9363,187.3838 12.9553,189.9038 12.9553,190.1468 C12.9553,201.3088 27.4123,202.2228 30.0483,194.4348 C31.7683,189.9138 29.3283,184.7118 24.9633,182.8358 L24.5453,182.5438 C24.2733,179.3368 24.3603,176.1178 24.3703,172.9088 C24.3603,169.3028 24.4183,128.0138 24.4183,128.0138 L12.8683,128.0138 Z" id="Fill-47" fill="#EBC7A7"></path>
            <path d="M84.3263,128.0138 L84.3263,162.3008 C84.1133,165.9768 84.1703,169.6608 84.1903,173.3468 L84.1903,173.8118 C84.1803,179.5678 84.1013,181.3948 84.2573,187.1508 C84.2573,187.3838 84.2383,189.9038 84.2383,190.1468 C84.2383,201.3088 69.7813,202.2228 67.1453,194.4348 C65.4263,189.9138 67.8653,184.7118 72.2313,182.8358 L72.6493,182.5438 C72.9213,179.3368 72.8333,176.1178 72.8243,172.9088 C72.8333,169.3028 72.7763,128.0138 72.7763,128.0138 L84.3263,128.0138 Z" id="Fill-49" fill="#EBC7A7"></path>
            <path d="M24.963,182.836 L24.545,182.544 C24.274,179.336 24.36,176.118 24.37,172.908 C24.36,169.302 24.418,128.014 24.418,128.014 L20.528,128.014 C20.528,128.014 20.472,169.302 20.482,172.908 C20.472,176.118 20.384,179.336 20.655,182.544 L21.073,182.836 C25.44,184.712 27.879,189.914 26.159,194.435 C25.24,197.147 22.889,198.799 20.214,199.336 C24.239,200.126 28.696,198.426 30.048,194.435 C31.769,189.914 29.328,184.712 24.963,182.836" id="Fill-51" fill="#EBC7A7"></path>
            <path d="M84.3263,128.0138 L80.4363,128.0138 L80.4363,162.3008 C80.2233,165.9768 80.2813,169.6608 80.3023,173.3468 L80.3023,173.8118 C80.2903,179.5678 80.2133,181.3948 80.3683,187.1508 C80.3683,187.3838 80.3493,189.9038 80.3493,190.1468 C80.3493,195.5858 76.9143,198.5838 73.0903,199.3358 C78.0973,200.3408 84.2383,197.4218 84.2383,190.1468 C84.2383,189.9038 84.2573,187.3838 84.2573,187.1508 C84.1013,181.3948 84.1803,179.5678 84.1903,173.8118 L84.1903,173.3468 C84.1703,169.6608 84.1133,165.9768 84.3263,162.3008 L84.3263,128.0138 Z" id="Fill-53" fill="#EBC7A7"></path>
            <path d="M88.716,41.755 C89.412,41.731 89.815,41.322 90.094,40.795 C90.01,40.787 89.932,40.762 89.847,40.758 C89.823,40.758 89.802,40.764 89.778,40.762 C89.612,30.211 85.498,20.617 78.854,13.391 C74.914,9.494 70.16,6.341 65.353,3.646 C60.166,1.311 54.422,0 48.365,0 C25.485,0 6.937,18.547 6.937,41.426 C6.937,42.028 6.957,42.622 6.983,43.218 C6.67,43.25 6.364,43.311 6.069,43.394 C6.237,43.93 6.553,44.389 7.181,44.64 C8.782,44.984 9.645,43.206 9.828,41.914 C11.932,31.519 17.345,21.841 24.966,14.483 C32.547,21.945 40.464,29.438 50.237,33.942 C58.543,37.793 67.345,41.086 76.574,41.603 C80.601,42.002 84.699,42.616 88.716,41.755" id="Fill-55" fill="#000000"></path>
        </g>
    </g>
</svg>