<?xml version="1.0" encoding="UTF-8"?>
<svg width="352px" height="741px" viewBox="0 0 352 741" version="1.1" xmlns="http://www.w3.org/2000/svg" xmlns:xlink="http://www.w3.org/1999/xlink">
    <!-- Generator: Sketch 52.6 (67491) - http://www.bohemiancoding.com/sketch -->
    <title>man</title>
    <desc>Created with Sketch.</desc>
    <defs>
        <polygon id="path-1" points="0.107 0 351.3051 0 351.3051 734.596143 0.107 734.596143"></polygon>
        <polygon id="path-3" points="0.107 0 34.7745 0 34.7745 324.909 0.107 324.909"></polygon>
        <polygon id="path-5" points="0.4601 0 238.3051 0 238.3051 324.9095 0.4601 324.9095"></polygon>
        <polygon id="path-7" points="0.0548 0 85.3488 0 85.3488 734.562809 0.0548 734.562809"></polygon>
        <path d="M292.146,0 L292.146,234.618 C273.055,240.254 259.113,257.892 259.113,278.811 C259.113,304.263 279.747,324.91 305.206,324.91 C330.665,324.91 351.305,304.263 351.305,278.811 L351.305,0 L292.146,0 Z M13.669,0 L13.669,111.319 C13.669,154.361 38.42,191.885 74.382,210.426 C74.879,215.836 75.263,226.409 75.559,240.969 L75.559,681.405 C56.693,699.238 36.632,715.71 18.441,734.22 C36.64,734.678 54.853,734.616 73.073,734.554 C85.177,734.514 97.284,734.473 109.391,734.584 C115.442,734.382 121.53,734.141 127.654,733.94 C127.546,706.436 127.507,678.933 127.445,651.437 L127.445,248.509 C127.453,241.8 127.453,235.092 127.46,228.383 C133.949,228.584 140.089,228.471 146.239,228.358 C152.194,228.248 158.161,228.138 164.463,228.313 L164.463,677.098 L164.47,677.098 L164.47,734.538 C174.291,734.526 184.113,734.535 193.934,734.544 C213.489,734.563 233.042,734.582 252.594,734.421 C259.598,734.421 266.564,734.382 273.571,734.305 C255.303,716.029 235.64,699.199 216.454,681.926 C216.376,653.886 216.391,625.815 216.345,597.767 L216.345,264.709 C216.376,246.838 216.368,228.935 216.407,211.063 C253.03,192.748 278.348,154.859 278.348,111.319 L278.348,0 L13.669,0 Z M0.107,0 L0.107,323.473 C20.037,318.389 34.774,300.318 34.774,278.811 C34.774,257.892 20.832,240.254 1.744,234.618 L1.744,0 L0.107,0 Z" id="path-9"></path>
        <path d="M292.146,0 L292.146,234.618 C273.055,240.254 259.113,257.892 259.113,278.811 C259.113,304.263 279.747,324.91 305.206,324.91 C330.665,324.91 351.305,304.263 351.305,278.811 L351.305,0 L292.146,0 Z M13.669,0 L13.669,111.319 C13.669,154.361 38.42,191.885 74.382,210.426 C74.879,215.836 75.263,226.409 75.559,240.969 L75.559,681.405 C56.693,699.238 36.632,715.71 18.441,734.22 C36.64,734.678 54.853,734.616 73.073,734.554 C85.177,734.514 97.284,734.473 109.391,734.584 C115.442,734.382 121.53,734.141 127.654,733.94 C127.546,706.436 127.507,678.933 127.445,651.437 L127.445,248.509 C127.453,241.8 127.453,235.092 127.46,228.383 C133.949,228.584 140.089,228.471 146.239,228.358 C152.194,228.248 158.161,228.138 164.463,228.313 L164.463,677.098 L164.47,677.098 L164.47,734.538 C174.291,734.526 184.113,734.535 193.934,734.544 C213.489,734.563 233.042,734.582 252.594,734.421 C259.598,734.421 266.564,734.382 273.571,734.305 C255.303,716.029 235.64,699.199 216.454,681.926 C216.376,653.886 216.391,625.815 216.345,597.767 L216.345,264.709 C216.376,246.838 216.368,228.935 216.407,211.063 C253.03,192.748 278.348,154.859 278.348,111.319 L278.348,0 L13.669,0 Z M0.107,0 L0.107,323.473 C20.037,318.389 34.774,300.318 34.774,278.811 C34.774,257.892 20.832,240.254 1.744,234.618 L1.744,0 L0.107,0 Z" id="path-11"></path>
    </defs>
    <g id="man" stroke="none" stroke-width="1" fill="none" fill-rule="evenodd">
        <g id="Group-52">
            <g id="Group-18">
                <g id="Group-3">
                    <mask id="mask-2" fill="white">
                        <use xlink:href="#path-1"></use>
                    </mask>
                    <g id="Clip-2"></g>
                    <path d="M298.1631,-166.1025 C272.1641,-189.5715 236.2691,-204.0695 210.2421,-212.2005 C200.5571,-216.3205 190.1831,-219.0885 179.3571,-220.3085 C179.0781,-220.3635 178.7901,-220.4255 178.5571,-220.4725 L178.5571,-242.1215 C241.1161,-252.4685 291.4631,-298.9555 307.4101,-359.4355 C309.1161,-358.9835 310.8731,-358.6735 312.7241,-358.6735 C324.2601,-358.6735 333.6191,-368.0245 333.6191,-379.5685 C333.6191,-391.1055 324.2601,-400.4645 312.7241,-400.4645 C312.7241,-489.1235 240.8481,-560.9995 152.1881,-560.9995 C63.5291,-560.9995 -8.3469,-489.1235 -8.3469,-400.4645 C-19.8909,-400.4645 -29.2419,-391.1055 -29.2419,-379.5685 C-29.2419,-368.0245 -19.8909,-358.6735 -8.3469,-358.6735 C-6.4959,-358.6735 -4.7389,-358.9835 -3.0369,-359.4355 C11.8501,-302.9905 56.6881,-258.7335 113.4601,-244.6645 L113.4601,-220.4095 C102.5071,-219.2595 92.0131,-216.4995 82.2171,-212.3795 C57.0771,-204.7455 20.7971,-190.4265 -6.1469,-166.1025 C-51.6699,-125.0025 -57.9509,-88.4425 -59.2879,-56.7265 L-59.2879,278.8115 C-59.2879,304.2625 -38.6489,324.9095 -13.1899,324.9095 C-12.8629,324.9095 -12.5449,324.8625 -12.2179,324.8555 C-11.9189,324.8625 -11.6269,324.9015 -11.3239,324.9015 C14.1351,324.9015 34.7741,304.2625 34.7741,278.8115 C34.7741,257.8915 20.8321,240.2535 1.7441,234.6175 L1.7441,-56.7185 C1.7441,-56.7185 -1.3939,-79.7285 13.6691,-96.9085 L13.6691,111.3185 C13.6691,154.3615 38.4201,191.8855 74.3821,210.4255 C74.8791,215.8355 75.2641,226.4085 75.5591,240.9685 L75.5591,681.4045 C56.6921,699.2375 36.6321,715.7095 18.4411,734.2195 C48.7311,734.9805 79.0611,734.3045 109.3911,734.5845 C115.4421,734.3825 121.5291,734.1415 127.6541,733.9395 C127.5461,706.4365 127.5071,678.9325 127.4441,651.4375 L127.4441,248.5085 C127.4531,241.8005 127.4531,235.0915 127.4601,228.3825 C140.2321,228.7795 151.6521,227.9555 164.4631,228.3135 L164.4631,677.0985 L164.4711,677.0985 L164.4711,734.5385 C193.8481,734.4995 223.2251,734.6625 252.5941,734.4215 C259.5981,734.4215 266.5631,734.3825 273.5711,734.3045 C255.3031,716.0285 235.6401,699.1985 216.4541,681.9255 C216.3761,653.8855 216.3921,625.8145 216.3451,597.7675 L216.3451,264.7095 C216.3761,246.8375 216.3681,228.9355 216.4071,211.0635 C253.0291,192.7485 278.3491,154.8585 278.3491,111.3185 L278.3491,-98.8825 C295.5131,-81.5475 292.1461,-56.7265 292.1461,-56.7265 L292.1461,234.6175 C273.0551,240.2535 259.1121,257.8915 259.1121,278.8115 C259.1121,304.2625 279.7471,324.9095 305.2061,324.9095 C330.6651,324.9095 351.3051,304.2625 351.3051,278.8115 L351.3051,-56.7265 C349.9681,-88.4425 343.6901,-125.0025 298.1631,-166.1025" id="Fill-1" fill="#C29969" mask="url(#mask-2)"></path>
                </g>
                <g id="Group-17">
                    <g id="Group-6">
                        <mask id="mask-4" fill="white">
                            <use xlink:href="#path-3"></use>
                        </mask>
                        <g id="Clip-5"></g>
                        <path d="M34.7745,278.811 C34.7745,257.892 20.8325,240.253 1.7445,234.618 L1.7445,-56.719 C1.7445,-56.719 -1.7545,-78.213 13.6695,-96.909 C5.3745,-103.672 -3.5805,-96.909 -3.5805,-96.909 C-18.6385,-79.729 -15.5055,-56.719 -15.5055,-56.719 L-15.5055,234.618 C3.5865,240.253 17.5245,257.892 17.5245,278.811 C17.5245,301.643 0.9045,320.548 -20.8935,324.21 C-18.3825,324.637 -15.8215,324.909 -13.1895,324.909 C-12.8635,324.909 -12.5445,324.863 -12.2175,324.855 C-11.9185,324.863 -11.6265,324.901 -11.3245,324.901 C14.1345,324.901 34.7745,304.262 34.7745,278.811" id="Fill-4" fill="#EBC7A7" mask="url(#mask-4)"></path>
                    </g>
                    <path d="M51.0948,734.5688 C60.0388,734.5768 68.9788,734.5688 77.9258,734.5378 C68.9828,734.5298 60.0388,734.5378 51.0948,734.5688" id="Fill-7" fill="#EBC7A7"></path>
                    <g id="Group-11" transform="translate(113.000000, 0.000000)">
                        <mask id="mask-6" fill="white">
                            <use xlink:href="#path-5"></use>
                        </mask>
                        <g id="Clip-10"></g>
                        <path d="M185.1631,-166.1025 C159.1641,-189.5715 123.2691,-204.0695 97.2421,-212.2005 C87.5571,-216.3205 77.1831,-219.0885 66.3571,-220.3085 C66.0781,-220.3635 65.7901,-220.4255 65.5571,-220.4725 L65.5571,-242.1215 C128.1161,-252.4685 178.4631,-298.9555 194.4101,-359.4355 C196.1161,-358.9835 197.8731,-358.6735 199.7241,-358.6735 C211.2601,-358.6735 220.6191,-368.0245 220.6191,-379.5685 C220.6191,-391.1055 211.2601,-400.4645 199.7241,-400.4645 C199.7241,-489.1235 127.8481,-560.9995 39.1881,-560.9995 C36.2971,-560.9995 33.4211,-560.9145 30.5671,-560.7595 C115.2161,-556.2815 182.4741,-486.2245 182.4741,-400.4645 C183.2591,-383.6035 181.3861,-372.1525 177.1641,-359.4355 C161.2211,-298.9555 104.0681,-244.6645 0.4601,-244.6645 L34.9601,-227.2195 C35.1921,-227.1735 65.2381,-214.9215 65.5111,-214.8675 C70.6641,-214.1285 74.2711,-214.2525 79.9931,-212.2005 C106.0191,-204.0695 141.9181,-189.5715 167.9141,-166.1025 C213.4441,-125.0025 219.7181,-88.4425 221.0591,-56.7265 L221.0551,278.8115 C221.0551,301.3155 204.9171,320.0275 183.5851,324.0695 C186.3841,324.6065 189.2611,324.9095 192.2061,324.9095 C217.6651,324.9095 238.3051,304.2625 238.3051,278.8115 L238.3051,-56.7265 C236.9681,-88.4425 230.6901,-125.0025 185.1631,-166.1025" id="Fill-9" fill="#EBC7A7" mask="url(#mask-6)"></path>
                    </g>
                    <g id="Group-14" transform="translate(193.000000, 0.000000)">
                        <mask id="mask-8" fill="white">
                            <use xlink:href="#path-7"></use>
                        </mask>
                        <g id="Clip-13"></g>
                        <path d="M23.3448,597.7671 L23.3448,264.7091 C23.3758,246.8381 23.3678,228.9351 23.4068,211.0631 C52.1388,196.6971 73.8508,170.2511 81.8968,138.5111 C81.8968,138.5111 85.3488,126.3841 85.3488,111.3181 L85.3488,-98.8829 C85.3488,-98.8829 77.3878,-107.9009 68.0988,-98.8829 L68.0988,111.3181 C68.0988,154.8591 42.7798,192.7481 6.1578,211.0631 C6.1218,228.9351 6.1258,246.8381 6.0958,264.7091 L6.0958,597.7671 C6.1418,625.8141 6.1298,653.8851 6.2078,681.9261 C25.3898,699.1991 45.0568,716.0291 63.3248,734.3051 C56.3138,734.3821 49.3478,734.4211 42.3478,734.4211 C28.2498,734.5381 14.1568,734.5541 0.0548,734.5541 C19.9018,734.5691 39.7468,734.5841 59.5938,734.4211 C66.5978,734.4211 73.5638,734.3821 80.5718,734.3051 C62.3028,716.0291 42.6398,699.1991 23.4538,681.9261 C23.3758,653.8851 23.3918,625.8141 23.3448,597.7671" id="Fill-12" fill="#EBC7A7" mask="url(#mask-8)"></path>
                    </g>
                    <path d="M127.46,228.3828 C134.286,228.6008 140.737,228.4688 147.213,228.3438 L147.213,228.3128 C134.402,227.9558 122.982,228.7788 110.21,228.3828 C110.21,235.0918 110.203,241.7998 110.194,248.5088 L110.194,651.4368 C110.257,678.9328 110.3,706.4358 110.412,733.9398 C104.737,734.1258 99.102,734.3438 93.497,734.5378 C98.791,734.5378 104.093,734.5298 109.391,734.5848 C115.442,734.3828 121.529,734.1418 127.654,733.9398 C127.546,706.4358 127.507,678.9328 127.444,651.4368 L127.444,248.5088 C127.453,241.7998 127.453,235.0918 127.46,228.3828" id="Fill-15" fill="#EBC7A7"></path>
                </g>
            </g>
            <g id="Group-34">
                <g id="Group-21">
                    <mask id="mask-10" fill="white">
                        <use xlink:href="#path-9"></use>
                    </mask>
                    <g id="Clip-20"></g>
                    <path d="M103.3311,-227.4531 L115.4151,-204.0851 C122.7721,-189.8591 133.9041,-163.8901 145.0101,-163.9801 C156.1141,-164.0701 167.1911,-190.2171 174.4341,-204.5591 L189.4011,-234.2011 L365.9701,-199.2111 L368.5781,180.7999 L-78.1929,180.7999 L-116.9999,-216.2201 L103.3311,-227.4531 Z" id="Fill-19" fill="#C7E2B4" mask="url(#mask-10)"></path>
                </g>
                <mask id="mask-12" fill="white">
                    <use xlink:href="#path-11"></use>
                </mask>
                <g id="Clip-23"></g>
                <polygon id="Fill-22" fill="#89B07C" mask="url(#mask-12)" points="142.829 180.8 147.124 180.8 147.124 -163.98 142.829 -163.98"></polygon>
                <polygon id="Fill-24" fill="#89B07C" mask="url(#mask-12)" points="-86.123 145.293 14.345 145.293 14.345 140.998 -86.123 140.998"></polygon>
                <polygon id="Fill-25" fill="#89B07C" mask="url(#mask-12)" points="281.046 145.293 381.514 145.293 381.514 140.998 281.046 140.998"></polygon>
                <polygon id="Fill-26" fill="#6E6035" mask="url(#mask-12)" points="207.0479 -245.146 146.3159 -134.627 87.8149 -238.608 12.3549 -223.745 12.3549 157.914 279.0249 157.914 279.0249 -229.897"></polygon>
                <polygon id="Fill-27" fill="#A79357" mask="url(#mask-12)" points="18.881 157.914 276.039 157.914 276.039 144.87 18.881 144.87"></polygon>
                <polygon id="Fill-28" fill="#4E3F17" mask="url(#mask-12)" points="193.459 -12.8979 146.009 74.9921 98.558 -12.8979 146.009 -100.7949"></polygon>
                <polygon id="Fill-29" fill="#4E3F17" mask="url(#mask-12)" points="249.1739 -12.8979 221.3199 38.6961 193.4589 -12.8979 221.3199 -64.4959"></polygon>
                <polygon id="Fill-30" fill="#4E3F17" mask="url(#mask-12)" points="98.5577 -12.8979 70.6967 38.6961 42.8427 -12.8979 70.6967 -64.4959"></polygon>
                <polygon id="Fill-31" fill="#772542" mask="url(#mask-12)" points="281.0147 681.3037 8.3747 681.3037 54.1467 273.3387 8.3747 145.9737 281.0147 145.9737 236.2387 271.3477"></polygon>
                <polygon id="Fill-32" fill="#943D5D" mask="url(#mask-12)" points="54.147 681.304 231.263 681.304 231.263 637.522 54.147 637.522"></polygon>
                <polygon id="Fill-33" fill="#943D5D" mask="url(#mask-12)" points="140.715 228.231 150.665 228.231 150.665 145.973 140.715 145.973"></polygon>
            </g>
            <g id="Group-51" transform="translate(9.000000, 681.000000)">
                <path d="M37.2207,2.1147 C41.9507,0.6767 46.9577,1.0267 51.8387,0.9917 C55.3677,7.8437 57.1837,15.4157 57.7467,23.0767 C59.0067,31.8187 56.3477,40.5207 57.4287,49.2697 C65.9097,50.3037 74.4527,49.5767 82.9647,49.7167 C95.1167,49.8807 107.2657,49.6937 119.4277,49.9147 C120.7767,52.6827 121.8257,55.6917 120.9287,58.7847 C114.5537,59.6757 108.1207,59.1737 101.7237,59.2907 C70.0837,59.2437 38.4297,59.3677 6.7837,59.2287 C3.1917,59.8147 1.9017,56.0107 0.1287,53.6857 C0.8437,52.3407 1.5667,51.0037 2.2827,49.6587 C1.8307,49.2237 0.9247,48.3687 0.4707,47.9367 C-0.6403,38.9277 1.1937,29.4697 6.7437,22.1397 C13.5927,11.5247 25.4087,5.5037 37.2207,2.1147" id="Fill-35" fill="#DBDAD9"></path>
                <path d="M59.0616,0.9448 C61.6726,0.9448 64.2926,0.9328 66.9206,0.9098 C71.2656,10.4788 74.5236,21.5068 71.7086,31.9658 C70.2326,31.9658 68.7476,31.9658 67.2706,31.9818 C65.5216,21.4128 64.8606,10.3088 59.0616,0.9448" id="Fill-37" fill="#DBDAD9"></path>
                <path d="M202.5567,0.9097 C205.1837,0.9327 207.7957,0.9447 210.4197,0.9447 C204.6167,10.3087 203.9407,21.4017 202.2297,31.9657 C200.7297,31.9577 199.2447,31.9657 197.7677,31.9817 C194.9467,21.5177 198.2107,10.4787 202.5567,0.9097" id="Fill-39" fill="#DBDAD9"></path>
                <path d="M217.6455,0.9917 C230.2895,-0.1323 242.6615,4.6957 252.9075,11.7697 C262.1345,18.9407 269.5275,29.9407 269.2085,42.0097 C269.0445,44.6797 270.0865,48.1357 267.1795,49.6707 C267.8945,51.0037 268.6175,52.3407 269.3485,53.6627 C268.1665,55.4347 267.0625,57.2967 265.5785,58.8317 C263.8755,59.2677 262.1115,59.2677 260.3745,59.3137 C227.5255,59.2677 194.6735,59.2907 161.8375,59.2907 C157.3915,59.3677 152.9445,59.3917 148.5365,58.7847 C147.6505,55.6917 148.7005,52.6907 150.0485,49.9147 C162.1875,49.6937 174.3225,49.8807 186.4605,49.7167 C194.9925,49.5767 203.5435,50.3047 212.0325,49.2857 C212.2925,45.6397 212.4365,41.9867 212.0475,38.3407 C210.5005,25.7467 211.8225,12.4147 217.6455,0.9917" id="Fill-41" fill="#DBDAD9"></path>
                <path d="M98.5518,15.439 C104.3268,12.369 112.3968,19.396 109.8228,25.724 C108.4398,31.204 100.8918,32.961 96.9818,29.074 C92.8458,25.397 94.1828,18.284 98.5518,15.439" id="Fill-43" fill="#DBDAD9"></path>
                <path d="M166.6963,14.7471 C170.2573,13.6661 173.3893,16.8931 174.3843,20.0291 C176.6933,24.7401 173.0153,30.8541 167.8073,31.1341 C162.7943,31.9581 158.4013,26.7891 159.3423,21.9541 C159.7733,18.1211 163.2833,15.7531 166.6963,14.7471" id="Fill-45" fill="#DBDAD9"></path>
                <path d="M98.5518,15.439 C94.1828,18.284 92.8458,25.397 96.9818,29.074 C100.8918,32.961 108.4398,31.204 109.8228,25.724 C112.3968,19.396 104.3268,12.369 98.5518,15.439 M51.8388,0.992 C54.2408,0.98 56.6438,0.968 59.0618,0.945 C64.8608,10.309 65.5218,21.413 67.2708,31.981 C68.7468,31.966 70.2328,31.966 71.7088,31.966 C74.5238,21.506 71.2658,10.479 66.9208,0.91 C84.8308,1.112 102.7578,0.689 120.6598,1.135 C122.3778,6.802 120.9518,12.71 121.2668,18.494 C121.5378,28.992 120.9628,39.475 121.0688,49.95 L119.4278,49.915 C107.2658,49.694 95.1158,49.88 82.9648,49.717 C74.4528,49.577 65.9098,50.304 57.4288,49.27 C56.3478,40.521 59.0068,31.818 57.7468,23.077 C57.1838,15.416 55.3678,7.844 51.8388,0.992" id="Fill-47" fill="#D53433"></path>
                <path d="M166.6963,14.7471 C163.2833,15.7531 159.7733,18.1211 159.3423,21.9541 C158.4013,26.7891 162.7943,31.9581 167.8073,31.1341 C173.0153,30.8541 176.6933,24.7401 174.3843,20.0291 C173.3893,16.8931 170.2573,13.6661 166.6963,14.7471 M148.7693,1.0961 C166.6963,0.7351 184.6333,1.0891 202.5563,0.9101 C198.2113,10.4791 194.9463,21.5181 197.7673,31.9811 C199.2453,31.9661 200.7293,31.9581 202.2293,31.9661 C203.9403,21.4011 204.6163,10.3091 210.4203,0.9451 C212.8333,0.9681 215.2353,0.9791 217.6453,0.9921 C211.8223,12.4151 210.5013,25.7471 212.0483,38.3401 C212.4363,41.9861 212.2933,45.6401 212.0323,49.2861 C203.5443,50.3041 194.9923,49.5771 186.4613,49.7171 C174.3223,49.8801 162.1873,49.6941 150.0493,49.9151 L148.4083,49.9621 C148.5293,39.8751 147.9543,29.7781 148.2103,19.6911 C148.4313,13.4921 147.4323,7.2141 148.7693,1.0961" id="Fill-49" fill="#D53433"></path>
            </g>
        </g>
    </g>
</svg>