<?xml version="1.0" encoding="UTF-8"?>
<svg width="471px" height="177px" viewBox="0 0 471 177" version="1.1" xmlns="http://www.w3.org/2000/svg" xmlns:xlink="http://www.w3.org/1999/xlink">
    <!-- Generator: Sketch 52.6 (67491) - http://www.bohemiancoding.com/sketch -->
    <title>train</title>
    <desc>Created with Sketch.</desc>
    <defs>
        <polygon id="path-1" points="0 176 470.348 176 470.348 0.006 0 0.006"></polygon>
    </defs>
    <g id="train" stroke="none" stroke-width="1" fill="none" fill-rule="evenodd">
        <g id="Group-86">
            <polygon id="Fill-1" fill="#060F0D" points="130.577 154.793 156.406 154.793 156.406 152.054 130.577 152.054"></polygon>
            <g id="Group-85" transform="translate(0.000000, 0.994000)">
                <path d="M135.0919,154.5111 C134.7219,155.3131 133.7719,155.6641 132.9699,155.2941 C132.1679,154.9241 131.8189,153.9751 132.1879,153.1721 C132.5579,152.3701 133.5079,152.0191 134.3099,152.3891 C135.1119,152.7591 135.4619,153.7101 135.0919,154.5111 M131.3209,150.8191 C130.5199,150.4491 130.1689,149.4981 130.5389,148.6971 C130.9089,147.8941 131.8589,147.5441 132.6609,147.9141 C133.4619,148.2841 133.8129,149.2351 133.4429,150.0361 C133.0719,150.8391 132.1229,151.1881 131.3209,150.8191 M130.6159,156.1611 C130.2459,156.9631 129.2969,157.3131 128.4939,156.9431 C127.6939,156.5731 127.3429,155.6231 127.7129,154.8211 C128.0829,154.0201 129.0319,153.6691 129.8349,154.0391 C130.6359,154.4091 130.9869,155.3591 130.6159,156.1611 M126.8449,152.4681 C126.0429,152.0981 125.6939,151.1491 126.0639,150.3461 C126.4339,149.5441 127.3829,149.1951 128.1849,149.5651 C128.9879,149.9351 129.3369,150.8841 128.9669,151.6871 C128.5979,152.4871 127.6479,152.8381 126.8449,152.4681 M130.5769,145.3791 C126.6849,145.3791 123.5289,148.5351 123.5289,152.4291 C123.5289,156.3221 126.6849,159.4781 130.5769,159.4781 C134.4709,159.4781 137.6269,156.3221 137.6269,152.4291 C137.6269,148.5351 134.4709,145.3791 130.5769,145.3791" id="Fill-2" fill="#194037"></path>
                <path d="M130.7686,146.9515 C130.7366,146.9515 130.7056,146.9575 130.6726,146.9575 C133.6536,147.0085 136.0536,149.4355 136.0536,152.4295 C136.0536,155.4535 133.6016,157.9055 130.5776,157.9055 C127.5846,157.9055 125.1576,155.5045 125.1066,152.5245 C125.1056,152.5565 125.1006,152.5875 125.1006,152.6195 C125.1006,155.7495 127.6386,158.2865 130.7686,158.2865 C133.8976,158.2865 136.4346,155.7495 136.4346,152.6195 C136.4346,149.4895 133.8976,146.9515 130.7686,146.9515" id="Fill-4" fill="#3D9986"></path>
                <path d="M132.9698,155.2943 C132.1678,154.9243 131.8188,153.9753 132.1878,153.1723 C132.5578,152.3703 133.5078,152.0193 134.3098,152.3893 C135.1118,152.7593 135.4618,153.7103 135.0918,154.5113 C134.7218,155.3133 133.7718,155.6643 132.9698,155.2943 M131.3208,150.8183 C130.5198,150.4483 130.1688,149.4983 130.5388,148.6963 C130.9088,147.8943 131.8588,147.5443 132.6608,147.9143 C133.4618,148.2843 133.8128,149.2343 133.4428,150.0363 C133.0728,150.8393 132.1228,151.1883 131.3208,150.8183 M130.6158,156.1613 C130.2458,156.9633 129.2968,157.3133 128.4938,156.9423 C127.6938,156.5723 127.3428,155.6233 127.7128,154.8203 C128.0828,154.0203 129.0318,153.6693 129.8348,154.0393 C130.6358,154.4093 130.9868,155.3583 130.6158,156.1613 M126.8448,152.4683 C126.0428,152.0983 125.6938,151.1483 126.0638,150.3463 C126.4338,149.5443 127.3828,149.1943 128.1848,149.5653 C128.9878,149.9353 129.3368,150.8843 128.9668,151.6873 C128.5978,152.4863 127.6478,152.8383 126.8448,152.4683 M130.5768,146.9513 C127.5528,146.9513 125.1008,149.4043 125.1008,152.4293 C125.1008,155.4533 127.5528,157.9053 130.5768,157.9053 C133.6018,157.9053 136.0538,155.4533 136.0538,152.4293 C136.0538,149.4043 133.6018,146.9513 130.5768,146.9513" id="Fill-6" fill="#0F2621"></path>
                <path d="M131.9473,152.429 C131.9473,153.186 131.3343,153.799 130.5773,153.799 C129.8203,153.799 129.2083,153.186 129.2083,152.429 C129.2083,151.671 129.8203,151.06 130.5773,151.06 C131.3343,151.06 131.9473,151.671 131.9473,152.429" id="Fill-8" fill="#194037"></path>
                <path d="M131.0049,151.9886 C131.0049,152.3346 130.7309,152.6156 130.3909,152.6156 C130.0519,152.6156 129.7769,152.3346 129.7769,151.9886 C129.7769,151.6406 130.0519,151.3596 130.3909,151.3596 C130.7309,151.3596 131.0049,151.6406 131.0049,151.9886" id="Fill-10" fill="#3D9986"></path>
                <path d="M160.921,154.5111 C160.551,155.3131 159.602,155.6641 158.799,155.2941 C157.997,154.9241 157.648,153.9751 158.018,153.1721 C158.387,152.3701 159.337,152.0191 160.14,152.3891 C160.941,152.7591 161.291,153.7101 160.921,154.5111 M157.15,150.8191 C156.348,150.4491 155.997,149.4981 156.367,148.6971 C156.737,147.8941 157.688,147.5441 158.489,147.9141 C159.291,148.2841 159.642,149.2351 159.272,150.0361 C158.901,150.8391 157.951,151.1881 157.15,150.8191 M156.445,156.1611 C156.075,156.9631 155.126,157.3131 154.323,156.9431 C153.523,156.5731 153.172,155.6231 153.542,154.8211 C153.912,154.0201 154.861,153.6691 155.663,154.0391 C156.465,154.4091 156.816,155.3591 156.445,156.1611 M152.675,152.4681 C151.872,152.0981 151.522,151.1491 151.892,150.3461 C152.262,149.5441 153.213,149.1951 154.014,149.5651 C154.817,149.9351 155.166,150.8841 154.796,151.6871 C154.427,152.4871 153.476,152.8381 152.675,152.4681 M156.406,145.3791 C152.513,145.3791 149.358,148.5351 149.358,152.4291 C149.358,156.3221 152.513,159.4781 156.406,159.4781 C160.3,159.4781 163.456,156.3221 163.456,152.4291 C163.456,148.5351 160.3,145.3791 156.406,145.3791" id="Fill-12" fill="#194037"></path>
                <path d="M156.5977,146.9515 C156.5657,146.9515 156.5347,146.9575 156.5017,146.9575 C159.4827,147.0085 161.8827,149.4355 161.8827,152.4295 C161.8827,155.4535 159.4317,157.9055 156.4067,157.9055 C153.4137,157.9055 150.9867,155.5045 150.9347,152.5245 C150.9347,152.5565 150.9297,152.5875 150.9297,152.6195 C150.9297,155.7495 153.4677,158.2865 156.5977,158.2865 C159.7267,158.2865 162.2637,155.7495 162.2637,152.6195 C162.2637,149.4895 159.7267,146.9515 156.5977,146.9515" id="Fill-14" fill="#3D9986"></path>
                <path d="M158.7989,155.2943 C157.9969,154.9243 157.6479,153.9753 158.0179,153.1723 C158.3869,152.3703 159.3369,152.0193 160.1399,152.3893 C160.9409,152.7593 161.2909,153.7103 160.9209,154.5113 C160.5509,155.3133 159.6019,155.6643 158.7989,155.2943 M157.1499,150.8183 C156.3479,150.4483 155.9969,149.4983 156.3669,148.6963 C156.7369,147.8943 157.6879,147.5443 158.4889,147.9143 C159.2909,148.2843 159.6419,149.2343 159.2719,150.0363 C158.9019,150.8393 157.9509,151.1883 157.1499,150.8183 M156.4449,156.1613 C156.0749,156.9633 155.1259,157.3133 154.3229,156.9423 C153.5229,156.5723 153.1719,155.6233 153.5419,154.8203 C153.9119,154.0203 154.8609,153.6693 155.6629,154.0393 C156.4649,154.4093 156.8159,155.3583 156.4449,156.1613 M152.6749,152.4683 C151.8719,152.0983 151.5219,151.1483 151.8919,150.3463 C152.2619,149.5443 153.2129,149.1943 154.0139,149.5653 C154.8169,149.9353 155.1659,150.8843 154.7959,151.6873 C154.4269,152.4863 153.4759,152.8383 152.6749,152.4683 M156.4059,146.9513 C153.3829,146.9513 150.9299,149.4043 150.9299,152.4293 C150.9299,155.4533 153.3829,157.9053 156.4059,157.9053 C159.4319,157.9053 161.8829,155.4533 161.8829,152.4293 C161.8829,149.4043 159.4319,146.9513 156.4059,146.9513" id="Fill-16" fill="#0F2621"></path>
                <path d="M157.7764,152.429 C157.7764,153.186 157.1634,153.799 156.4064,153.799 C155.6494,153.799 155.0374,153.186 155.0374,152.429 C155.0374,151.671 155.6494,151.06 156.4064,151.06 C157.1634,151.06 157.7764,151.671 157.7764,152.429" id="Fill-18" fill="#194037"></path>
                <path d="M156.834,151.9886 C156.834,152.3346 156.559,152.6156 156.22,152.6156 C155.881,152.6156 155.605,152.3346 155.605,151.9886 C155.605,151.6406 155.881,151.3596 156.22,151.3596 C156.559,151.3596 156.834,151.6406 156.834,151.9886" id="Fill-20" fill="#3D9986"></path>
                <path d="M138.4307,154.5638 C138.1267,154.4848 137.9487,154.1728 138.0287,153.8708 L138.8317,150.8488 C138.9137,150.5458 139.2237,150.3668 139.5277,150.4468 C139.8287,150.5278 140.0097,150.8388 139.9297,151.1408 L139.1247,154.1618 C139.0437,154.4658 138.7337,154.6448 138.4307,154.5638" id="Fill-22" fill="#194037"></path>
                <path d="M140.588,154.5638 C140.285,154.4848 140.105,154.1728 140.186,153.8708 L140.99,150.8488 C141.07,150.5458 141.381,150.3668 141.684,150.4468 C141.987,150.5278 142.167,150.8388 142.086,151.1408 L141.282,154.1618 C141.202,154.4658 140.891,154.6448 140.588,154.5638" id="Fill-24" fill="#194037"></path>
                <path d="M142.7452,154.5638 C142.4422,154.4848 142.2632,154.1728 142.3432,153.8708 L143.1472,150.8488 C143.2282,150.5458 143.5392,150.3668 143.8422,150.4468 C144.1442,150.5278 144.3242,150.8388 144.2442,151.1408 L143.4392,154.1618 C143.3582,154.4658 143.0482,154.6448 142.7452,154.5638" id="Fill-26" fill="#194037"></path>
                <path d="M144.9034,154.5638 C144.5994,154.4848 144.4204,154.1728 144.5004,153.8708 L145.3044,150.8488 C145.3854,150.5458 145.6964,150.3668 145.9994,150.4468 C146.3014,150.5278 146.4824,150.8388 146.4014,151.1408 L145.5964,154.1618 C145.5164,154.4658 145.2054,154.6448 144.9034,154.5638" id="Fill-28" fill="#194037"></path>
                <path d="M147.0596,154.5638 C146.7566,154.4848 146.5776,154.1728 146.6586,153.8708 L147.4616,150.8488 C147.5426,150.5458 147.8536,150.3668 148.1566,150.4468 C148.4586,150.5278 148.6386,150.8388 148.5586,151.1408 L147.7546,154.1618 C147.6736,154.4658 147.3636,154.6448 147.0596,154.5638" id="Fill-30" fill="#194037"></path>
                <mask id="mask-2" fill="white">
                    <use xlink:href="#path-1"></use>
                </mask>
                <g id="Clip-33"></g>
                <polygon id="Fill-32" fill="#060F0D" mask="url(#mask-2)" points="242.257 153.799 268.085 153.799 268.085 151.06 242.257 151.06"></polygon>
                <path d="M246.7706,154.5111 C246.4006,155.3131 245.4516,155.6641 244.6486,155.2941 C243.8476,154.9241 243.4976,153.9751 243.8676,153.1721 C244.2376,152.3701 245.1866,152.0191 245.9896,152.3891 C246.7906,152.7591 247.1406,153.7101 246.7706,154.5111 M242.9996,150.8191 C242.1976,150.4491 241.8466,149.4981 242.2166,148.6971 C242.5866,147.8941 243.5386,147.5441 244.3386,147.9141 C245.1416,148.2841 245.4926,149.2351 245.1226,150.0361 C244.7516,150.8391 243.8006,151.1881 242.9996,150.8191 M242.2956,156.1611 C241.9256,156.9631 240.9756,157.3131 240.1736,156.9431 C239.3726,156.5731 239.0216,155.6231 239.3916,154.8211 C239.7616,154.0201 240.7116,153.6691 241.5136,154.0391 C242.3156,154.4091 242.6666,155.3591 242.2956,156.1611 M238.5246,152.4681 C237.7216,152.0981 237.3726,151.1491 237.7426,150.3461 C238.1126,149.5441 239.0626,149.1951 239.8646,149.5651 C240.6666,149.9351 241.0166,150.8841 240.6466,151.6871 C240.2766,152.4871 239.3266,152.8381 238.5246,152.4681 M242.2566,145.3791 C238.3636,145.3791 235.2076,148.5351 235.2076,152.4291 C235.2076,156.3221 238.3636,159.4781 242.2566,159.4781 C246.1496,159.4781 249.3056,156.3221 249.3056,152.4291 C249.3056,148.5351 246.1496,145.3791 242.2566,145.3791" id="Fill-34" fill="#194037" mask="url(#mask-2)"></path>
                <path d="M242.4473,146.9515 C242.4153,146.9515 242.3853,146.9575 242.3523,146.9575 C245.3323,147.0085 247.7323,149.4355 247.7323,152.4295 C247.7323,155.4535 245.2813,157.9055 242.2573,157.9055 C239.2643,157.9055 236.8373,155.5045 236.7853,152.5245 C236.7853,152.5565 236.7803,152.5875 236.7803,152.6195 C236.7803,155.7495 239.3173,158.2865 242.4473,158.2865 C245.5763,158.2865 248.1143,155.7495 248.1143,152.6195 C248.1143,149.4895 245.5763,146.9515 242.4473,146.9515" id="Fill-35" fill="#3D9986" mask="url(#mask-2)"></path>
                <path d="M244.6485,155.2943 C243.8475,154.9243 243.4975,153.9753 243.8675,153.1723 C244.2375,152.3703 245.1865,152.0193 245.9895,152.3893 C246.7905,152.7593 247.1405,153.7103 246.7705,154.5113 C246.4005,155.3133 245.4515,155.6643 244.6485,155.2943 M243.0005,150.8183 C242.1975,150.4483 241.8465,149.4983 242.2165,148.6963 C242.5865,147.8943 243.5385,147.5443 244.3385,147.9143 C245.1415,148.2843 245.4925,149.2343 245.1225,150.0363 C244.7525,150.8393 243.8005,151.1883 243.0005,150.8183 M242.2955,156.1613 C241.9255,156.9633 240.9755,157.3133 240.1735,156.9423 C239.3725,156.5723 239.0215,155.6233 239.3915,154.8203 C239.7615,154.0203 240.7115,153.6693 241.5135,154.0393 C242.3155,154.4093 242.6665,155.3583 242.2955,156.1613 M238.5245,152.4683 C237.7215,152.0983 237.3725,151.1483 237.7425,150.3463 C238.1125,149.5443 239.0625,149.1943 239.8645,149.5653 C240.6665,149.9353 241.0165,150.8843 240.6465,151.6873 C240.2765,152.4863 239.3265,152.8383 238.5245,152.4683 M242.2565,146.9513 C239.2325,146.9513 236.7805,149.4043 236.7805,152.4293 C236.7805,155.4533 239.2325,157.9053 242.2565,157.9053 C245.2815,157.9053 247.7325,155.4533 247.7325,152.4293 C247.7325,149.4043 245.2815,146.9513 242.2565,146.9513" id="Fill-36" fill="#0F2621" mask="url(#mask-2)"></path>
                <path d="M243.626,152.429 C243.626,153.186 243.013,153.799 242.257,153.799 C241.5,153.799 240.887,153.186 240.887,152.429 C240.887,151.671 241.5,151.06 242.257,151.06 C243.013,151.06 243.626,151.671 243.626,152.429" id="Fill-37" fill="#194037" mask="url(#mask-2)"></path>
                <path d="M242.6846,151.9886 C242.6846,152.3346 242.4096,152.6156 242.0706,152.6156 C241.7316,152.6156 241.4556,152.3346 241.4556,151.9886 C241.4556,151.6406 241.7316,151.3596 242.0706,151.3596 C242.4096,151.3596 242.6846,151.6406 242.6846,151.9886" id="Fill-38" fill="#3D9986" mask="url(#mask-2)"></path>
                <path d="M272.5997,154.5111 C272.2297,155.3131 271.2807,155.6641 270.4777,155.2941 C269.6767,154.9241 269.3267,153.9751 269.6967,153.1721 C270.0667,152.3701 271.0157,152.0191 271.8177,152.3891 C272.6207,152.7591 272.9697,153.7101 272.5997,154.5111 M268.8287,150.8191 C268.0267,150.4491 267.6767,149.4981 268.0457,148.6971 C268.4157,147.8941 269.3677,147.5441 270.1677,147.9141 C270.9707,148.2841 271.3217,149.2351 270.9517,150.0361 C270.5807,150.8391 269.6297,151.1881 268.8287,150.8191 M268.1247,156.1611 C267.7547,156.9631 266.8037,157.3131 266.0027,156.9431 C265.2007,156.5731 264.8507,155.6231 265.2207,154.8211 C265.5907,154.0201 266.5407,153.6691 267.3417,154.0391 C268.1447,154.4091 268.4957,155.3591 268.1247,156.1611 M264.3537,152.4681 C263.5517,152.0981 263.2017,151.1491 263.5717,150.3461 C263.9417,149.5441 264.8917,149.1951 265.6937,149.5651 C266.4957,149.9351 266.8447,150.8841 266.4747,151.6871 C266.1047,152.4871 265.1557,152.8381 264.3537,152.4681 M268.0847,145.3791 C264.1927,145.3791 261.0367,148.5351 261.0367,152.4291 C261.0367,156.3221 264.1927,159.4781 268.0847,159.4781 C271.9787,159.4781 275.1347,156.3221 275.1347,152.4291 C275.1347,148.5351 271.9787,145.3791 268.0847,145.3791" id="Fill-39" fill="#194037" mask="url(#mask-2)"></path>
                <path d="M268.2764,146.9515 C268.2434,146.9515 268.2134,146.9575 268.1814,146.9575 C271.1614,147.0085 273.5614,149.4355 273.5614,152.4295 C273.5614,155.4535 271.1104,157.9055 268.0854,157.9055 C265.0934,157.9055 262.6664,155.5045 262.6144,152.5245 C262.6144,152.5565 262.6094,152.5875 262.6094,152.6195 C262.6094,155.7495 265.1464,158.2865 268.2764,158.2865 C271.4064,158.2865 273.9434,155.7495 273.9434,152.6195 C273.9434,149.4895 271.4064,146.9515 268.2764,146.9515" id="Fill-40" fill="#3D9986" mask="url(#mask-2)"></path>
                <path d="M270.4776,155.2943 C269.6766,154.9243 269.3266,153.9753 269.6966,153.1723 C270.0666,152.3703 271.0156,152.0193 271.8176,152.3893 C272.6206,152.7593 272.9696,153.7103 272.5996,154.5113 C272.2296,155.3133 271.2806,155.6643 270.4776,155.2943 M268.8296,150.8183 C268.0266,150.4483 267.6766,149.4983 268.0456,148.6963 C268.4156,147.8943 269.3676,147.5443 270.1676,147.9143 C270.9706,148.2843 271.3216,149.2343 270.9516,150.0363 C270.5816,150.8393 269.6296,151.1883 268.8296,150.8183 M268.1246,156.1613 C267.7546,156.9633 266.8036,157.3133 266.0026,156.9423 C265.2006,156.5723 264.8506,155.6233 265.2206,154.8203 C265.5906,154.0203 266.5406,153.6693 267.3416,154.0393 C268.1446,154.4093 268.4956,155.3583 268.1246,156.1613 M264.3536,152.4683 C263.5516,152.0983 263.2016,151.1483 263.5716,150.3463 C263.9416,149.5443 264.8916,149.1943 265.6936,149.5653 C266.4956,149.9353 266.8446,150.8843 266.4746,151.6873 C266.1046,152.4863 265.1556,152.8383 264.3536,152.4683 M268.0846,146.9513 C265.0616,146.9513 262.6096,149.4043 262.6096,152.4293 C262.6096,155.4533 265.0616,157.9053 268.0846,157.9053 C271.1106,157.9053 273.5616,155.4533 273.5616,152.4293 C273.5616,149.4043 271.1106,146.9513 268.0846,146.9513" id="Fill-41" fill="#0F2621" mask="url(#mask-2)"></path>
                <path d="M269.4561,152.429 C269.4561,153.186 268.8421,153.799 268.0851,153.799 C267.3291,153.799 266.7161,153.186 266.7161,152.429 C266.7161,151.671 267.3291,151.06 268.0851,151.06 C268.8421,151.06 269.4561,151.671 269.4561,152.429" id="Fill-42" fill="#194037" mask="url(#mask-2)"></path>
                <path d="M268.5128,151.9886 C268.5128,152.3346 268.2388,152.6156 267.8998,152.6156 C267.5608,152.6156 267.2838,152.3346 267.2838,151.9886 C267.2838,151.6406 267.5608,151.3596 267.8998,151.3596 C268.2388,151.3596 268.5128,151.6406 268.5128,151.9886" id="Fill-43" fill="#3D9986" mask="url(#mask-2)"></path>
                <path d="M250.1094,154.5638 C249.8064,154.4848 249.6274,154.1728 249.7074,153.8708 L250.5114,150.8488 C250.5914,150.5458 250.9034,150.3668 251.2064,150.4468 C251.5084,150.5278 251.6884,150.8388 251.6074,151.1408 L250.8024,154.1618 C250.7224,154.4658 250.4124,154.6448 250.1094,154.5638" id="Fill-44" fill="#194037" mask="url(#mask-2)"></path>
                <path d="M252.2667,154.5638 C251.9637,154.4848 251.7847,154.1728 251.8647,153.8708 L252.6697,150.8488 C252.7497,150.5458 253.0607,150.3668 253.3637,150.4468 C253.6657,150.5278 253.8457,150.8388 253.7657,151.1408 L252.9607,154.1618 C252.8797,154.4658 252.5697,154.6448 252.2667,154.5638" id="Fill-45" fill="#194037" mask="url(#mask-2)"></path>
                <path d="M254.4239,154.5638 C254.1209,154.4848 253.9419,154.1728 254.0229,153.8708 L254.8259,150.8488 C254.9059,150.5458 255.2179,150.3668 255.5209,150.4468 C255.8229,150.5278 256.0039,150.8388 255.9219,151.1408 L255.1179,154.1618 C255.0379,154.4658 254.7279,154.6448 254.4239,154.5638" id="Fill-46" fill="#194037" mask="url(#mask-2)"></path>
                <path d="M256.5811,154.5638 C256.2791,154.4848 256.0991,154.1728 256.1791,153.8708 L256.9841,150.8488 C257.0641,150.5458 257.3751,150.3668 257.6781,150.4468 C257.9811,150.5278 258.1601,150.8388 258.0801,151.1408 L257.2761,154.1618 C257.1941,154.4658 256.8841,154.6448 256.5811,154.5638" id="Fill-47" fill="#194037" mask="url(#mask-2)"></path>
                <path d="M258.7393,154.5638 C258.4363,154.4848 258.2563,154.1728 258.3373,153.8708 L259.1403,150.8488 C259.2213,150.5458 259.5333,150.3668 259.8353,150.4468 C260.1373,150.5278 260.3183,150.8388 260.2373,151.1408 L259.4323,154.1618 C259.3523,154.4658 259.0423,154.6448 258.7393,154.5638" id="Fill-48" fill="#194037" mask="url(#mask-2)"></path>
                <polygon id="Fill-49" fill="#34495E" mask="url(#mask-2)" points="87.844 5.073 126.071 5.073 126.071 0.005 87.844 0.005"></polygon>
                <polygon id="Fill-50" fill="#34495E" mask="url(#mask-2)" points="341.48 5.073 379.708 5.073 379.708 0.005 341.48 0.005"></polygon>
                <path d="M402.1446,5.0736 L73.0406,5.0736 C57.3456,5.0736 43.1556,14.4106 36.9426,28.8236 L3.2116,107.0656 C-0.4654,115.5976 -1.0034,125.1516 1.6926,134.0416 L5.9586,148.1006 C10.9846,164.6726 26.2606,176.0006 43.5756,176.0006 L426.4576,176.0006 C443.7746,176.0006 459.0486,164.6726 464.0746,148.1006 L468.6566,133.0076 C471.1606,124.7476 470.8766,115.8956 467.8536,107.8146 L438.9606,30.6066 C433.2136,15.2536 418.5396,5.0736 402.1446,5.0736" id="Fill-51" fill="#45617D" mask="url(#mask-2)"></path>
                <path d="M425.7393,13.0746 L49.3583,13.0746 C45.6313,15.8956 42.3753,19.3636 39.8253,23.3976 L435.2643,23.3976 C432.7123,19.3726 429.4633,15.9046 425.7393,13.0746" id="Fill-52" fill="#E3E7E8" mask="url(#mask-2)"></path>
                <path d="M0.1671,123.7943 C0.2691,127.2403 0.6761,130.6883 1.6921,134.0413 L5.9591,148.1013 C10.9841,164.6723 26.2611,176.0003 43.5751,176.0003 L426.4581,176.0003 C443.7741,176.0003 459.0491,164.6723 464.0741,148.1013 L468.6561,133.0073 C469.5681,129.9933 469.9831,126.8963 470.1581,123.7943 L0.1671,123.7943 Z" id="Fill-53" fill="#2C3E50" mask="url(#mask-2)"></path>
                <polygon id="Fill-54" fill="#F1C40F" mask="url(#mask-2)" points="2.6563 137.2201 5.0643 145.1571 464.9683 145.1571 467.3773 137.2201"></polygon>
                <path d="M8.7755,154.7914 C10.3025,157.6634 12.1335,160.3314 14.2585,162.7234 L455.7745,162.7234 C457.8995,160.3314 459.7305,157.6634 461.2555,154.7914 L8.7755,154.7914 Z" id="Fill-55" fill="#F39C12" mask="url(#mask-2)"></path>
                <path d="M469.9493,117.0101 L0.5533,117.0101 C-0.1397,121.8021 0.0073,126.6841 1.0713,131.4371 L469.0343,131.4371 C470.2413,126.7041 470.5153,121.8231 469.9493,117.0101" id="Fill-56" fill="#34495E" mask="url(#mask-2)"></path>
                <path d="M59.6417,103.9076 L59.6417,43.9346 C59.6417,36.7006 53.7757,30.8326 46.5387,30.8326 L36.0747,30.8326 L3.2117,107.0656 C1.8347,110.2616 1.0447,113.6146 0.5537,117.0106 L46.5387,117.0106 C53.7757,117.0106 59.6417,111.1426 59.6417,103.9076" id="Fill-57" fill="#3498DB" mask="url(#mask-2)"></path>
                <path d="M59.6417,72.8685 L59.6417,43.9345 C59.6417,36.7005 53.7757,30.8325 46.5387,30.8325 L36.0747,30.8325 L3.2117,107.0655 C1.8797,110.1505 1.1187,113.3935 0.6217,116.6705 C15.9227,97.2775 36.6127,81.9205 59.6417,72.8685" id="Fill-58" fill="#3DB1FF" mask="url(#mask-2)"></path>
                <path d="M216.5733,30.8324 L167.3163,30.8324 C160.0793,30.8324 154.2133,36.7004 154.2133,43.9354 L154.2133,103.9074 C154.2133,111.1434 160.0793,117.0104 167.3163,117.0104 L216.5733,117.0104 C223.8113,117.0104 229.6773,111.1434 229.6773,103.9074 L229.6773,43.9354 C229.6773,36.7004 223.8113,30.8324 216.5733,30.8324" id="Fill-59" fill="#3498DB" mask="url(#mask-2)"></path>
                <path d="M229.6778,63.8294 L229.6778,43.9344 C229.6778,36.7004 223.8118,30.8324 216.5738,30.8324 L167.3168,30.8324 C160.0788,30.8324 154.2128,36.7004 154.2128,43.9344 L154.2128,63.8294 L229.6778,63.8294 Z" id="Fill-60" fill="#3DB1FF" mask="url(#mask-2)"></path>
                <path d="M239.2296,43.9349 L239.2296,103.9079 C239.2296,111.1429 245.0956,117.0099 252.3336,117.0099 L301.1156,117.0099 C308.3516,117.0099 314.2176,111.1429 314.2176,103.9079 L314.2176,43.9349 C314.2176,36.7009 308.3516,30.8319 301.1156,30.8319 L252.3336,30.8319 C245.0956,30.8319 239.2296,36.7009 239.2296,43.9349" id="Fill-61" fill="#3498DB" mask="url(#mask-2)"></path>
                <path d="M314.2178,63.8294 L314.2178,43.9344 C314.2178,36.7004 308.3518,30.8324 301.1148,30.8324 L252.3338,30.8324 C245.0978,30.8324 239.2298,36.7004 239.2298,43.9344 L239.2298,63.8294 L314.2178,63.8294 Z" id="Fill-62" fill="#3DB1FF" mask="url(#mask-2)"></path>
                <path d="M407.3555,103.9076 C407.3555,111.1426 413.2215,117.0106 420.4585,117.0106 L469.9495,117.0106 C469.5815,113.8906 468.9685,110.7936 467.8535,107.8146 L439.0435,30.8326 L420.4585,30.8326 C413.2215,30.8326 407.3555,36.7006 407.3555,43.9346 L407.3555,103.9076 Z" id="Fill-63" fill="#3498DB" mask="url(#mask-2)"></path>
                <path d="M415.9542,63.8294 C429.1432,63.8294 441.6842,65.8254 453.4722,69.3874 L439.0442,30.8324 L420.4582,30.8324 C413.2222,30.8324 407.3552,36.7004 407.3552,43.9344 L407.3552,63.8294 L415.9542,63.8294 Z" id="Fill-64" fill="#3DB1FF" mask="url(#mask-2)"></path>
                <polygon id="Fill-65" fill="#F39C12" mask="url(#mask-2)" points="68.2 154.833 103.397 154.833 103.397 23.475 68.2 23.475"></polygon>
                <path d="M97.6973,117.0101 L77.9913,117.0101 C76.3723,117.0101 75.0593,115.6981 75.0593,114.0781 L75.0593,33.7641 C75.0593,32.1451 76.3723,30.8321 77.9913,30.8321 L97.6973,30.8321 C99.3153,30.8321 100.6283,32.1451 100.6283,33.7641 L100.6283,114.0781 C100.6283,115.6981 99.3153,117.0101 97.6973,117.0101" id="Fill-66" fill="#3498DB" mask="url(#mask-2)"></path>
                <path d="M100.628,63.974 L100.628,43.608 C100.628,36.552 94.909,30.832 87.854,30.832 L87.836,30.832 C80.78,30.832 75.062,36.552 75.062,43.608 L75.062,67.842 C83.423,65.685 91.987,64.366 100.628,63.974" id="Fill-67" fill="#3DB1FF" mask="url(#mask-2)"></path>
                <polygon id="Fill-68" fill="#F39C12" mask="url(#mask-2)" points="109.947 154.833 145.144 154.833 145.144 23.475 109.947 23.475"></polygon>
                <polygon id="Fill-69" fill="#F1C40F" mask="url(#mask-2)" points="69.202 143.028 144.143 143.028 144.143 134.871 69.202 134.871"></polygon>
                <polygon id="Fill-70" fill="#F1C40F" mask="url(#mask-2)" points="69.202 132.386 144.143 132.386 144.143 128.304 69.202 128.304"></polygon>
                <polygon id="Fill-71" fill="#F1C40F" mask="url(#mask-2)" points="69.202 126.262 144.143 126.262 144.143 123.794 69.202 123.794"></polygon>
                <path d="M115.6475,117.0101 L135.3535,117.0101 C136.9725,117.0101 138.2855,115.6981 138.2855,114.0781 L138.2855,33.7641 C138.2855,32.1451 136.9725,30.8321 135.3535,30.8321 L115.6475,30.8321 C114.0285,30.8321 112.7155,32.1451 112.7155,33.7641 L112.7155,114.0781 C112.7155,115.6981 114.0285,117.0101 115.6475,117.0101" id="Fill-72" fill="#3498DB" mask="url(#mask-2)"></path>
                <path d="M138.2852,63.8294 L138.2852,43.6074 C138.2852,36.5524 132.5652,30.8324 125.5102,30.8324 L125.4932,30.8324 C118.4372,30.8324 112.7162,36.5524 112.7162,43.6074 L112.7162,63.8294 L138.2852,63.8294 Z" id="Fill-73" fill="#3DB1FF" mask="url(#mask-2)"></path>
                <polygon id="Fill-74" fill="#34495E" mask="url(#mask-2)" points="103.396 154.833 109.947 154.833 109.947 23.475 103.396 23.475"></polygon>
                <polygon id="Fill-75" fill="#F39C12" mask="url(#mask-2)" points="322.12 154.833 357.317 154.833 357.317 23.475 322.12 23.475"></polygon>
                <path d="M351.6172,117.0101 L331.9122,117.0101 C330.2932,117.0101 328.9802,115.6981 328.9802,114.0781 L328.9802,33.7641 C328.9802,32.1451 330.2932,30.8321 331.9122,30.8321 L351.6172,30.8321 C353.2362,30.8321 354.5492,32.1451 354.5492,33.7641 L354.5492,114.0781 C354.5492,115.6981 353.2362,117.0101 351.6172,117.0101" id="Fill-76" fill="#3498DB" mask="url(#mask-2)"></path>
                <path d="M354.5489,63.8294 L354.5489,43.6074 C354.5489,36.5524 348.8299,30.8324 341.7749,30.8324 L341.7569,30.8324 C334.7009,30.8324 328.9809,36.5524 328.9809,43.6074 L328.9809,63.8294 L354.5489,63.8294 Z" id="Fill-77" fill="#3DB1FF" mask="url(#mask-2)"></path>
                <polygon id="Fill-78" fill="#F39C12" mask="url(#mask-2)" points="363.868 154.833 399.065 154.833 399.065 23.475 363.868 23.475"></polygon>
                <polygon id="Fill-79" fill="#F1C40F" mask="url(#mask-2)" points="323.123 143.028 398.064 143.028 398.064 134.871 323.123 134.871"></polygon>
                <polygon id="Fill-80" fill="#F1C40F" mask="url(#mask-2)" points="323.123 132.386 398.064 132.386 398.064 128.304 323.123 128.304"></polygon>
                <polygon id="Fill-81" fill="#F1C40F" mask="url(#mask-2)" points="323.123 126.262 398.064 126.262 398.064 123.794 323.123 123.794"></polygon>
                <path d="M369.5684,117.0101 L389.2744,117.0101 C390.8934,117.0101 392.2064,115.6981 392.2064,114.0781 L392.2064,33.7641 C392.2064,32.1451 390.8934,30.8321 389.2744,30.8321 L369.5684,30.8321 C367.9494,30.8321 366.6364,32.1451 366.6364,33.7641 L366.6364,114.0781 C366.6364,115.6981 367.9494,117.0101 369.5684,117.0101" id="Fill-82" fill="#3498DB" mask="url(#mask-2)"></path>
                <path d="M392.2061,63.8294 L392.2061,43.6074 C392.2061,36.5524 386.4861,30.8324 379.4291,30.8324 L379.4141,30.8324 C372.3581,30.8324 366.6371,36.5524 366.6371,43.6074 L366.6371,63.8294 L392.2061,63.8294 Z" id="Fill-83" fill="#3DB1FF" mask="url(#mask-2)"></path>
                <polygon id="Fill-84" fill="#34495E" mask="url(#mask-2)" points="357.317 154.833 363.868 154.833 363.868 23.475 357.317 23.475"></polygon>
            </g>
        </g>
    </g>
</svg>