<svg xmlns="http://www.w3.org/2000/svg" viewBox="0 0 191 191"><path fill="#BCA201" d="M81.755 83.253H51.72v30.036h30.035V83.252"/><path fill="#E6C400" d="M18.683 83.253H48.72v30.036H18.682z"/><path fill="#A99200" d="M84.755 83.253h30.036v30.036H84.756z"/><path fill="#E6C400" d="M117.79 83.253h30.037v30.036H117.79z"/><path fill="#857300" d="M150.827 83.253v30.036h30.036V83.252h-30.036"/><path fill="#A99200" d="M117.79 116.29h30.037v30.035H117.79z"/><path fill="#E6C400" d="M84.755 116.29h30.036v30.035H84.756z"/><path fill="#C7AB01" d="M51.72 149.325h30.035v30.037H51.72z"/><path fill="#D5B601" d="M18.683 116.29H48.72v30.035H18.682z"/><path fill="#C1A501" d="M147.827 80.253V50.217H117.79v30.036"/><path fill="#CCAF01" d="M84.755 80.253h30.036V50.217H84.756"/><path fill="#E6C400" d="M51.72 17.18h30.035v30.037H51.72zM48.72 80.253V50.217H18.682v30.036H48.72M51.72 116.29h30.035v30.035H51.72zM51.72 50.217h30.035v30.036H51.72z"/></svg>