<?xml version="1.0" encoding="UTF-8" standalone="no"?>
<!-- Created with Inkscape (http://www.inkscape.org/) -->
<svg
   xmlns:dc="http://purl.org/dc/elements/1.1/"
   xmlns:cc="http://creativecommons.org/ns#"
   xmlns:rdf="http://www.w3.org/1999/02/22-rdf-syntax-ns#"
   xmlns:svg="http://www.w3.org/2000/svg"
   xmlns="http://www.w3.org/2000/svg"
   xmlns:sodipodi="http://sodipodi.sourceforge.net/DTD/sodipodi-0.dtd"
   xmlns:inkscape="http://www.inkscape.org/namespaces/inkscape"
   width="500"
   height="500"
   id="svg2"
   sodipodi:version="0.32"
   inkscape:version="0.46"
   version="1.0"
   sodipodi:docname="Partido de Vicente López.svg"
   inkscape:output_extension="org.inkscape.output.svg.inkscape">
  <defs
     id="defs4">
    <inkscape:perspective
       sodipodi:type="inkscape:persp3d"
       inkscape:vp_x="0 : 526.18109 : 1"
       inkscape:vp_y="0 : 1000 : 0"
       inkscape:vp_z="744.09448 : 526.18109 : 1"
       inkscape:persp3d-origin="372.04724 : 350.78739 : 1"
       id="perspective10" />
    <inkscape:perspective
       id="perspective2390"
       inkscape:persp3d-origin="372.04724 : 350.78739 : 1"
       inkscape:vp_z="744.09448 : 526.18109 : 1"
       inkscape:vp_y="0 : 1000 : 0"
       inkscape:vp_x="0 : 526.18109 : 1"
       sodipodi:type="inkscape:persp3d" />
    <inkscape:perspective
       id="perspective2403"
       inkscape:persp3d-origin="372.04724 : 350.78739 : 1"
       inkscape:vp_z="744.09448 : 526.18109 : 1"
       inkscape:vp_y="0 : 1000 : 0"
       inkscape:vp_x="0 : 526.18109 : 1"
       sodipodi:type="inkscape:persp3d" />
  </defs>
  <sodipodi:namedview
     id="base"
     pagecolor="#ffffff"
     bordercolor="#666666"
     borderopacity="1.0"
     inkscape:pageopacity="0.0"
     inkscape:pageshadow="2"
     inkscape:zoom="1.7714286"
     inkscape:cx="250"
     inkscape:cy="175"
     inkscape:document-units="px"
     inkscape:current-layer="layer1"
     showgrid="false"
     inkscape:object-nodes="true"
     objecttolerance="5"
     showguides="true"
     inkscape:guide-bbox="true"
     inkscape:window-width="1440"
     inkscape:window-height="826"
     inkscape:window-x="0"
     inkscape:window-y="25" />
  <metadata
     id="metadata7">
    <rdf:RDF>
      <cc:Work
         rdf:about="">
        <dc:format>image/svg+xml</dc:format>
        <dc:type
           rdf:resource="http://purl.org/dc/dcmitype/StillImage" />
      </cc:Work>
    </rdf:RDF>
  </metadata>
  <g
     inkscape:label="Capa 1"
     inkscape:groupmode="layer"
     id="layer1"
     transform="scale(1.5) translate(-137.922076,-100) ">
    <g
       id="g2545"
       transform="matrix(1.1738375,0,0,1.1738375,-2.6361196,8.0782656)">
     
      <path
         id="path2409"
         d="M 147.85714,318.79075 L 225.35714,265.93361 L 296.42857,279.86218 L 354.64286,286.29075 L 342.85714,274.50504 L 345.35714,259.1479 L 342.5,236.29075 L 348.21429,235.93361 L 358.21429,223.43361 L 349.64286,222.00504 L 351.78571,214.1479 L 360.71429,215.57647 L 364.64286,209.1479 L 362.14286,205.93361 L 362.85714,195.93361 L 377.14286,195.21932 L 381.42857,185.57647 L 377.5,183.07647 L 382.85714,178.79075 L 376.78571,174.1479 L 382.14286,166.29075 L 391.07143,161.6479 L 391.07143,150.93361 L 320.71429,147.36218 L 305,140.57647 L 232.14286,136.6479 L 213.92857,135.57647 L 206.42857,131.29075 L 195,140.21932 L 187.14286,135.21932 L 178.57143,134.50504 L 132.14286,144.50504 L 135.71429,172.00504 L 136.07143,194.50504 L 161.07143,198.07647 L 156.07143,208.79075 L 153.92857,215.57647 L 148.21429,218.79075 L 151.42857,247.00504 L 147.85714,318.79075 z"
         style="opacity:0.5;fill:#CCAF01;fill-rule:evenodd;stroke:#000000;stroke-width:1px;stroke-linecap:butt;stroke-linejoin:miter;stroke-opacity:1" />
      <path
         id="path2411"
         d="M 151.40625,247.53125 L 147.84375,318.78125 L 225.34375,265.9375 L 237.53125,268.3125 L 238.5625,254.875 L 151.40625,247.53125 z"
         style="opacity:1;fill:#BCA201;fill-rule:evenodd;stroke:#000000;stroke-width:1px;stroke-linecap:butt;stroke-linejoin:miter;stroke-opacity:1" />
      <path
         id="path2419"
         d="M 155.875,209.34375 L 153.9375,215.5625 L 148.21875,218.78125 L 151.4375,247 L 151.4375,247.09375 L 238.5625,254.5 L 241.78125,215.21875 L 155.875,209.34375 z"
         style="opacity:1;fill:#E6C400;fill-rule:evenodd;stroke:#000000;stroke-width:1px;stroke-linecap:butt;stroke-linejoin:miter;stroke-opacity:1" />
      <path
         id="path2424"
         d="M 241.78125,215.21875 L 237.15625,268.0625 L 296.4375,279.5 L 307.15625,221.65625 L 241.78125,215.21875 z"
         style="opacity:1;fill:#D5B601;fill-rule:evenodd;stroke:#000000;stroke-width:1px;stroke-linecap:butt;stroke-linejoin:miter;stroke-opacity:1" />
      <path
         id="path2429"
         d="M 307.5,221.28125 L 296.34375,279.84375 L 296.4375,279.875 L 354.65625,286.28125 L 342.84375,274.5 L 345.34375,259.15625 L 342.5,236.28125 L 348.21875,235.9375 L 358.21875,223.4375 L 350.40625,222.125 L 307.5,221.28125 z"
         style="opacity:1;fill:#E6C400;fill-rule:evenodd;stroke:#000000;stroke-width:1px;stroke-linecap:butt;stroke-linejoin:miter;stroke-opacity:1" />
      <path
         id="path2434"
         d="M 320.9375,147.375 L 318.5625,177.375 L 378.46875,183.6875 L 377.5,183.0625 L 382.84375,178.78125 L 376.78125,174.15625 L 382.15625,166.28125 L 391.0625,161.65625 L 391.0625,150.9375 L 320.9375,147.375 z"
         style="opacity:1;fill:#E6C400;fill-rule:evenodd;stroke:#000000;stroke-width:1px;stroke-linecap:butt;stroke-linejoin:miter;stroke-opacity:1" />
      <path
         id="path2439"
         d="M 231.21875,136.59375 C 245.10239,162.56284 244.65237,188.5309 241.78125,214.5 L 307.15625,221.65625 L 349.6875,221.90625 L 351.78125,214.15625 L 360.71875,215.5625 L 364.65625,209.15625 L 362.15625,205.9375 L 362.84375,195.9375 L 377.15625,195.21875 L 381.4375,185.5625 L 378.59375,183.75 L 377.84375,183.78125 L 318.5625,177.375 L 321.03125,147.40625 L 320.71875,147.375 L 305,140.5625 L 232.15625,136.65625 L 231.21875,136.59375 z"
         style="opacity:1;fill:#E6C400;fill-rule:evenodd;stroke:#000000;stroke-width:1px;stroke-linecap:butt;stroke-linejoin:miter;stroke-opacity:1" />
      <path
         id="path2449"
         d="M 187.46875,142.15625 L 184.65625,145.5625 L 152.5,155.21875 L 156.4375,169.5 L 135.78125,175.34375 L 136.0625,194.5 L 161.0625,198.0625 L 160.96875,198.25 L 161.4375,198.0625 L 163.5625,181.65625 L 167.84375,186.28125 L 190.34375,168.4375 L 185,145.5625 L 187.46875,142.15625 z"
         style="opacity:1;fill:#E6C400;fill-rule:evenodd;stroke:#000000;stroke-width:1px;stroke-linecap:butt;stroke-linejoin:miter;stroke-opacity:1" />
      <path
         sodipodi:nodetypes="ccccccccccccccc"
         id="path2444"
         d="M 206.4375,131.28125 L 195,140.21875 L 190.8125,137.5625 L 185,145.5625 L 190.34375,168.4375 L 167.84375,186.28125 L 163.5625,181.65625 L 161.4375,198.0625 L 160.96875,198.25 L 156.0625,208.78125 L 155.84375,209.5 L 241.78125,214.875 C 245.644,185.28702 243.399,158.57326 231.09375,136.59375 L 213.9375,135.5625 L 206.4375,131.28125 z"
         style="opacity:1;fill:#E6C400;fill-rule:evenodd;stroke:#000000;stroke-width:1px;stroke-linecap:butt;stroke-linejoin:miter;stroke-opacity:1" />
      <path
         id="path2456"
         d="M 178.5625,134.5 L 132.15625,144.5 L 135.71875,172 L 135.78125,175.34375 L 156.4375,169.5 L 152.5,155.21875 L 184.65625,145.5625 L 187.46875,142.15625 L 190.8125,137.5625 L 187.15625,135.21875 L 178.5625,134.5 z"
         style="opacity:1;fill:#CCAF01;fill-rule:evenodd;stroke:#000000;stroke-width:1px;stroke-linecap:butt;stroke-linejoin:miter;stroke-opacity:1" />




    </g>
  </g>
</svg>
