<svg xmlns="http://www.w3.org/2000/svg" viewBox="0 0 191 191"><g fill="#E6C400"><path d="M147.538 82.24l.742-.06-.223-.768-.067-.088-.286-.51-.5.263M160.966 109.573l.124.428.367.08.365.08-.98-1.016M162.44 109.626l-.592.54 1.57.337M90.326 34.478l.588-.474-.006-.043-.678.055-.578.57.152.29.207.102M138.04 65.41l-.784 1.098 1.588 1.12 1.458-.054.05-1.475 2.16-.24-1.038-.69M137.59 62.39l-.36-.258-.224-1.188-4.196.373 1.96 1.35M129.398 63.763l-2.71-1.878-1.62 1.842c.113.187.21.36.26.484.176.278 1.338 1.036 1.897 1.4.41.266.75.496 1.03.706.066.05.15.107.207.154l.615.52-3.632 6.888-1.583-1.658-1.84.117c-1.737 2.914-3.58 5.806-5.483 8.605l-.374 1.203c.27.02.538.036.806.06 1.33.04 2.668.066 4.003.073l1.396.013h.358l1.758 1.203c1.06.107 2.135.158 3.213.18.734-.013 1.492-.044 2.287-.09l.338-.02c.967-.058 1.933-.125 2.9-.185l-.28-3.97-.552-1.535 2.774-3.303c-.087-.165-.175-.33-.26-.484-.257-.452-.543-.88-.86-1.282-.132-.133-.263-.265-.393-.4-.632-.65-1.186-1.204-1.836-1.68-.358-.245-.72-.483-1.113-.683l-.978-.473.012-.02 2.02-3.292 1.733-.09c-1.238-.86-2.472-1.725-3.703-2.595l-.392.193zM150.11 90.136h-.018l.518 5.514-.017.002.326 3.394h.01l.365 3.594 4.14-5.34.64 2.748c.314.034.627.03.938.005l1.143-.714 1.015-1.273 3.124.402c.577-.21 1.17-.36 1.766-.452l.198-.03.235.058c.028-.03.056-.06.083-.092l.02-.13c-.126-1.112-.325-2.23-.59-3.32l-.357-.513-1.495-1.365c-.448-.257-.877-.554-1.275-.885l-.29-.24-.294-1.823c-.21-.604-.358-1.254-.433-1.904l-.06-.092-.515-.263-.18-.386-.227-.112-.145-.207c-.14-.196-.306-.354-.51-.484l-.214-.135-.257-.456-.446-.246-1.365-1.504-.058-.284c-.433-.346-.892-.66-1.37-.938l-.073.015-.275-.11c-.414-.167-.864-.272-1.322-.313l-.008.07-2.107 1.107.147.506-1.338.133.573 6.066z"/><path d="M143.105 68.917l-.785 1.52-1.386-.886-2.69.103-2.288-1.615-3.042.157-.362.59c1.013.653 1.76 1.422 2.538 2.226.208.216.424.44.653.668.276.276.785 1.14 1.51 2.57l.3.59-2.89 3.44.268.85.29 4.122c2.312-.146 4.623-.288 6.933-.44l1.08-.07 1.377-.09-.002-.006.95-.06-.722-2.516 1.143-.606-.563-1.11.513-.234-.104-.2.04-.018-.04-.048-.17-1.38 3.197-.8-.185-1.923-.284.03-1.986-2.337-.524.05-1.898-1.324v-1.323l-.87.07zM147.786 99.37l-.445-4.787h.008c-.086-.972-.173-1.944-.263-2.917l-.465.043-.093-.997-.006-.066-.372-.008.022.25.198.18-.166.182.01.098-.106.01-.855.946-13.327 1.158c.065 1.883.095 3.71.108 5.436h.008v1.046c.004.172.017.34.022.512l.26 5.77c.093 1.448.22 2.872.353 4.29l.115 1.23c1.684-.537 3.194-1.115 4.634-2.187l1.448-1.076-.002-.105.392-.31c.79-.625 1.583-1.246 2.378-1.864l.263-.205h.14l3.747-.065.08 1.047.04-.043.12-2.163 2.264-.098-.51-5.31h.006zm-7.97 4.42l-.15-4.408 2-.067.148 4.41-2 .066zM142.664 84.783c-3.752.247-7.505.495-11.26.72.014.122.022.247.034.37.06.605.113 1.21.162 1.813.053.643.098 1.285.138 1.93.02.3.037.602.054.903.017.314.042.63.056.943l12.448-1.082.853-.942.884-.08.08.896v-.036c0-1.917-.28-3.8-.833-5.608l-2.616.173z"/><path d="M139.807 103.79l-.15-4.41 2-.066.15 4.41zM130.04 100.02l.52-.028v-.024l-.52.002c-.02-4.315-.115-9.353-.633-14.35-.778.044-1.532.08-2.296.08-1.155 0-2.157-.08-3.15-.253l-.215-.037-1.638-1.12-3.756-.035-1.33 7.28-.367.476.097 1.39c.528 1.255.903 2.58 1.13 3.94.008.056.02.11.03.167.01.072.017.145.027.217.195 1.35.244 2.728.133 4.107l.017.26c.14 2.165.297 4.33.45 6.493.154-.04.31-.07.464-.106.24-.057.48-.112.722-.164.396-.086.79-.167 1.188-.243.234-.045.466-.09.7-.132.432-.077.863-.15 1.295-.218l.57-.093c.6-.093 1.198-.18 1.79-.268.888-.13 1.792-.267 2.694-.415.27-.045.54-.1.813-.148.523-.092 1.042-.196 1.56-.304l-.293-6.472zM108.037 47.496l-.108.25-.715-.634c-.046-.025-.093-.047-.138-.072l-.483-.27-.008-.15c-.182-.126-.41-.28-.642-.435-.502-.235-.987-.29-1.47-.142l-.668.502 1.054.73-1.646.632c-1.258.94-2.432 1.66-3.572 2.21-.19.25-.295.48-.292.668.007.422.632 1.082 2.325 1.694h.82l-.008.285.036.012-.096 2.22-.915.04c-.542.025-1.084.016-1.624-.024-.172-.013-.34-.048-.512-.067-.35-.04-.703-.07-1.05-.137-.236.312-.512.67-.65.823-.707.792-1.57 1.412-2.407 2.01-.153.11-.295.217-.442.324-.136.115-.265.238-.402.352.356.21.707.434 1.06.652.39.24.783.474 1.17.72.742.47 1.477.95 2.2 1.438l.918.618-2.274 2.74c1.146.908 1.745 1.912 1.782 2.993.006.18-.004.36-.028.538-.01.064-.028.128-.04.192-.023.114-.044.227-.078.34-.023.076-.058.152-.086.227-.04.1-.075.203-.123.304-.038.08-.087.16-.132.24-.054.095-.107.192-.17.29-.054.08-.116.16-.177.242-.07.095-.14.19-.22.284-.068.082-.144.163-.22.245-.086.095-.173.19-.27.282-.082.08-.172.163-.262.245-.104.094-.21.19-.323.283-.097.08-.2.162-.303.243-.068.054-.13.107-.2.16l-.03.152 3.205 2.595.012-.008.54.454 1.095.887-.058.036c.215.198.44.414.665.626 2.545 2.104 5.19 4.117 8.05 5.61l1.785.073c.73-.01 1.46 0 2.19.023l.695-2.1c2.01-2.95 3.95-6.003 5.768-9.076l.27-.455 3.827-.243.306.32 1.554-2.945c-.126-.084-.26-.17-.39-.256-1.417-.924-2.368-1.585-2.666-2.335-.04-.08-.267-.438-.48-.747l-.442-.642 2.2-2.498-.344-.276-.21-.776.264-.452c.405-.56.837-1.116 1.273-1.646l.18-.357.078-.19-.322-.098-.42-.462c-.26-.083-.524-.15-.79-.198-.327.06-.65.156-.962.284l-.297.122-.42-.1-.168.108-.072-.117-.096.062-.32-.41c-.087-.103-.17-.21-.247-.323l-.004-.006c-.045-.06-.088-.122-.128-.186l-.124-.178c-.564-.406-1.06-.896-1.48-1.458l-.202-.27v-.226c-.592-.69-1.25-1.292-2.008-1.832l-.812-.58.07-.1c-1.885-1.5-4.13-2.555-6.52-3.072l-.006.018-.324-.085-.18-.034-1.098-.2.035-.117c-.203-.07-.403-.146-.6-.23l-.456-.187zM127.114 59.746l.383.266c-.08-.145-.165-.287-.252-.428-.044.054-.088.108-.13.162zM166.766 107.677c.102-.03.202-.07.3-.112l.516-.48c-.167-.19-.33-.382-.487-.576l-1.07-.266-.208-.232c-.303-.342-.643-.646-1.013-.906l-.197-.005-.808.59-.426-.483-.197.405-.5-.522c-.214.08-.437.136-.668.17l-.425.062-1.116-.875-.024-.408c-.013-.022-.026-.04-.04-.06l-.17-.237-.025-.44c-.183-.296-.322-.615-.416-.95l-1.114.057-1.09-.396c-.85.118-1.714.08-2.56-.114l-.534-.122-1.84 2.374 3.28 2.505.064-.052.6.56-.01.025.095.095.715.81.887.11.89 2.433.02.01-.68-2.346 2.393-1.966.758.785-.5-1.22 3.278-.194 1.46 1.48.86.49zM163.74 101.63l-.04.387c.04.137.09.272.147.403l.493-.068.52.22c.44.007.88.02 1.318.04l-.065-.79c-.052-.116-.107-.23-.168-.345l-.224-.032-.2.11-.937-.15-.797.158-.046.066zM156.483 113.567l-.306-.168-.323-1.007c-.218-1.138-.668-2.176-1.34-3.087l-3.774-2.95-.228.228-2.587.113-.06 1.076-1.77 1.9c.042.463.085.927.13 1.39.394 3.822.814 7.648 1.25 11.47l-1.987.228c0-.005 0-.01-.002-.017l-.153-1.338c-.38-3.323-.774-6.76-1.1-10.15l-.23-2.272.02-.023-.083-.994-1.336.023c-.57.444-1.142.89-1.71 1.338l.03 1.148-1.422 2.16-2.554.64.027-1.07c-1.536.826-3.12 1.31-4.773 1.816l-1.174.36-.55-5.86c-1.648.334-3.308.578-4.923.815-2.278.334-4.625.68-6.877 1.274.034.46.06.922.096 1.383V112l.738 2.064-.88 3.138-7.716 1.642-6.013 1.28.042 2.62-1.186.636 2.626 2.586-2.596 2.62 4.082 3.584 1.697 2.574c3.358-2.28 6.905-2.837 10.04-1.553 1.826-.194 3.614-.05 5.255.437l-.018-.15-.026-.226.253-.74.647-.457c.22-.092.45-.14.685-.14l.313.03c.443.103.864.278 1.25.523l.105.077c.23.192.442.408.63.643l.126.158.15.544-.12.61-.207.468-.09.074.703.225.854.04.31-.118.582-.67.19-.092c.544-.26 1.113-.472 1.696-.636.49-.62 1.018-1.218 1.57-1.776l.254-.26.362-.033c1.84-.176 3.712-.442 5.562-.793l.24-.046.235.072c.21.063.426.095.643.095.16 0 .313-.018.46-.052.396-.45.79-.9 1.184-1.354l.22-.187c.432-.274.862-.567 1.28-.87.034-.334.055-.67.062-1.003l.004-.22.412-.844.288-.152c2.917-1.543 5.37-3.123 7.68-4.95-.466-1.065-.726-2.216-.752-3.35l-.005-.2.318-.683c.484-.592 1-1.175 1.533-1.733l.224-.176.813-.468c.34-.404.673-.817.998-1.235zm-32.728 11.108l-.242-1.984 1.484-.18.12.992.122.992-1.485.18z"/><path d="M125.117 123.502l-.12-.992-1.485.18.243 1.985 1.483-.18-.12-.993M116.07 101.888l-.006-.075.006-.074c.226-2.664-.198-5.33-1.225-7.707l-.068-.157-.173-2.48.533-.696 1.2-6.553c-2.887-.222-5.798-.19-8.648.097-.21.162-.402.348-.596.532-.074.07-.154.13-.226.203-.265.264-.523.545-.79.833-.21.23-.427.46-.648.688-.07.074-.144.145-.217.217-.182.18-.372.355-.568.526-.055.048-.103.1-.16.148l.898 1.252.51.71.546 7.445.412.505.997 5.647c.515 2.96 1.09 5.93 1.672 8.87l1.002 5.06 6.506-1.384.38-1.36-.622-1.85c-.26-3.463-.495-6.93-.72-10.398zM106.77 108.214c-4.616.834-9.154 1.682-13.542 2.53-.972.242-1.937.496-2.884.785l.155.37 1.407 3.364 3.9 3.537.856-.954 4.064 4.74.3-.112c.648-.26 1.284-.555 1.897-.895l-.048-3.07 5.694-1.21-1.8-9.086zM86.212 95.045l5.476 13.96c4.747-.924 9.688-1.85 14.714-2.758l-1.427-8.083-.482-.59-.55-7.512-1.126-1.567c-.202.12-.418.235-.624.354-.265.152-.53.303-.8.454-.4.22-.813.433-1.228.646-.274.14-.543.282-.825.418-.462.222-.945.427-1.43.63-.25.107-.49.22-.747.32-.75.294-1.526.565-2.336.797l-.283.082-7.463-2.244-.5-.15-1.846 1.473 1.478 3.77z"/><path d="M100.123 124.955l-3.492-4.073-.674.754-5.722-5.188-2.558-6.115 2.082-.77-4.65-11.858c-.147.065-.294.128-.44.195-.27.123-.543.256-.815.384-3.227 1.543-6.325 3.386-9.34 5.237l3.727 10.217.12.33.566 1.55.98 2.688 4.602 4.326-2.568 4.28 3.154 3.33c.94-.984 1.88-1.967 2.817-2.957l.192-.8.175-.734v-.002l.87.088.09.007c1.505.147 3.026.202 4.542.173.707-.014 1.415-.04 2.118-.09l.444-.034 3.75 3.586 3.46-3.49-1.708-1.682-1.72.65zM81.866 53.053l1.176.563-5.36 3.84 2.482 3.75.13-.093.073-.05.037-.027.6.483c.623.448 1.216.935 1.79 1.442l3.724-4.374 3.368-2.334 1.14 1.644-3.26 2.258-3.522 4.192.027.03c.452.475.89.962 1.3 1.474.755.187 1.517.407 2.286.652.056.018.112.033.168.052.747.242 1.503.516 2.268.813l.258.098c.748.297 1.506.624 2.275.976.107.05.213.096.32.146.762.354 1.535.74 2.32 1.148.065.034.127.06.193.096 1.076-.85 1.648-1.65 1.626-2.28-.028-.788-.978-1.527-1.77-2.01l-.99-.6 2.296-2.765c-1.52-1-3.08-1.958-4.648-2.86l-1.288-.74 1.17-.915c1.832-1.43 3.557-2.994 5.13-4.653l.398-.42.562.136c.02.004.037.01.055.013-.553-.57-.836-1.21-.848-1.92-.024-1.434 1.178-2.84 3.357-3.982l-.09-.062.722-.843c.968-1.128 2.022-1.778 3.14-1.936-.04-.062-.08-.125-.117-.19l-.463-.343-.2-.01-.04-.17.043-.992c.005-1.318-.705-2.208-2.113-2.646l-.767-.24.102-1.197-.097-.29c-.265-.246-.577-.436-.918-.56l-.133.015-.485.214-.202.007-.058.28L97 37.64l-.03-1.63c-.256-.566-.657-1.048-1.17-1.406-.436-.144-.884-.253-1.337-.326-.16.066-.316.142-.466.227-.036.056-.064.116-.084.182l-.3.963-1.108-.357-.665.537-1.1 1.74-.877-.433-.177.425-.198-.085.19-.43-.298-.15-.204.437-.305-.147.216-.434-.414-.205-.22.426-.19-.1.25-.468-.1-.092-.27.495-.18-.1.3-.537-.085-.08-.32.557.3-.59-.095-.186-.395.667-.127-.075.45-.736-.042-.085-.483.774-.116-.074.534-.828-.066-.13-.598.872-.64-.434.836-1.233-.206-.41.648-.638-.56-1.318.105-.283-.16-.227-.11-.997 1.066-1.305.426.035.058-.038-.006-.66c-.467-.818-1.056-1.545-1.755-2.167l-.185-.056-.17.02-.158.14-.005.37-.245.28c-.345.39-.638.822-.873 1.286l-.042.872-.534.718c-.93.784-1.832 1.62-2.682 2.482l-.137.14-.18.077c-.388.167-.795.288-1.214.36-1.284.796-2.637 1.5-4.038 2.096l4.673 7.896-4.128 2.664 4.864 7.123zM78.92 136.437c.08 0 .162.005.243.015l1.953-2.042-.844-.79-.646.75-.375.437-.503-.19-.738 2.05c.336-.18.657-.23.91-.23z"/><path d="M108.03 136.047l-1.752-2.658-3.9-3.38-2.248 2.27-4.53-4.33c-1.923.12-3.857.105-5.78-.046l-.088.363-.184.194c-1.022 1.083-2.054 2.155-3.08 3.233l.008.01-3.8 3.967c-.183.192-.365.385-.55.577l-2.402 2.51-.706-.28c0-.002-.002-.003-.004-.003l-.004-.003c-.04-.02-.068-.026-.082-.03-.004.01-.04.036-.09.097l-1.156-.964-.357.992-4.757-4.68-4.122 3.352c-2.097 1.19-3.648 2.925-5.29 4.76-.313.348-.63.698-.948 1.048l-.135.147c-.32.346-.645.688-.98 1.026l-.168.165c-.348.344-.703.684-1.078 1.01l-.022.02c-.358.31-.737.61-1.127.898-.048.037-.09.076-.14.112.775.705 1.585 1.39 2.377 2.06 2.694 2.278 5.478 4.633 7.098 7.92l1.55.412 5.114-5.543 8.254 7.852 7.885-9.053 1.167.814-.148.212.097.084.647-.71 3.042 2.772c.55-.802 1.188-1.545 1.886-2.194l.08-.152.082-.435.12-.173c.87-1.27 1.717-2.578 2.57-3.893 2.317-3.574 4.707-7.26 7.652-10.347zm-25.167 7.93l-.244-.657c-.1-.265-.204-.466-.244-.52l1.405-1.418c.407.368.663.848.764 1.424l.204 1.172h-1.885zm1.692 1.654l-.09-.495 1.967-.36.09.497-1.967.36z"/><path d="M83.087 162.008l-8.297-7.892-3.55 3.848c4.148 3.664 8.134 7.336 11.858 10.922l.13.125.35.728c.116.088.232.175.348.26 2.986-3.91 5.804-8.032 8.535-12.027.69-1.01 1.382-2.02 2.077-3.03l-2.95-2.687-8.5 9.755zM84.56 145.624l-.09-.496 1.967-.36.09.496zM84.545 142.806c-.1-.576-.357-1.056-.763-1.424l-1.405 1.42c.04.052.145.253.243.518l.244.658h1.885l-.205-1.172zM72.194 66.846l6.337-4.484-3.578-5.407 4.178-2.994-1.43-.684 1.443-.665-4.95-7.247 4.238-2.734-3.775-6.38c-2.59 1.512-5.25 2.926-7.833 4.3-2.64 1.402-5.366 2.85-7.976 4.386-1.685 4.837-3.64 9.697-5.533 14.4-1.282 3.187-2.606 6.476-3.836 9.735l6.933 9.432c5.11-3.894 10.397-7.918 15.784-11.656z"/><path d="M40.04 93.636l5.255 4.73 1.844 1.66c2.604-2.665 5.62-4.802 8.546-6.875.726-.513 1.454-1.03 2.178-1.554l.907-.658.543.94c.824 1.34 1.725 2.598 2.678 3.77.054.062.108.122.16.183l3.49-3.646.298-.065c2.698-.59 5.38-1.364 7.97-2.302l.68 1.88c-2.576.934-5.24 1.71-7.924 2.31l-3.14 3.28c.21.205.41.418.625.615l6.157 5.854c.584-.357 1.167-.717 1.75-1.076 3.925-2.42 7.975-4.916 12.315-6.85l-2.04-5.198 1.918-1.53-4.74-1.426-3.914 3.12-3.3-5.293-2.83-1.457-9.39-.81-4.166-2.033-1.096-1.492-6.19-8.42c-.856 2.218-1.717 4.434-2.578 6.65-1.992 5.136-4.052 10.438-6.007 15.696zM40.067 129.34c4.01 3.775 8.148 7.567 12.152 11.237 1.617 1.48 3.233 2.964 4.846 4.447 1.768-1.2 3.147-2.74 4.598-4.363.622-.694 1.253-1.4 1.92-2.08 1.115-1.132 2.334-2.197 3.798-3.04l5.31-4.34 3.81 3.748 1.05-2.916 1.095.41 1.47-1.707 2.382 2.23 1.216-1.272-4.272-4.514 2.52-4.197-3.775-3.55-1.09-2.983-.145.084c-.248.14-.49.29-.725.45-.083.055-.166.11-.248.17-.29.208-.575.426-.846.665l-.704.62-1.703-1.702-11.187 6.283-.05.03-.532-.453-.69-.59-3.345 1.81-6.016-5.396-.488-3.626.644-.133-.074-.04-.007-.004h-.002c-.214-.12-.435-.208-.653-.307-1.34-.34-2.753-.506-4.353-.506-1.534 0-3.135.14-4.83.287-.766.067-1.553.136-2.368.195.472 2.67.6 5.4.722 8.047.106 2.322.217 4.718.565 7.008z"/><path d="M38.76 107.627c.056 1.543.13 3.08.222 4.616.84-.092 1.667-.213 2.477-.333 1.61-.237 3.135-.46 4.7-.46 2.03 0 3.76.386 5.4 1.212l1.022-.323.283.892c.122.037.246.072.372.108.584.167 1.246.355 1.897.775l2.055 1.326-4.54.938.14 1.05 4.42 3.96 3.31-1.79 1.207 1.027 11.342-6.372 1.47 1.47c.588-.445 1.21-.838 1.866-1.175l-3.63-9.95-2.736 1.667-7.23-6.872c-1.78-1.62-3.343-3.485-4.645-5.544-3.935 2.853-7.65 5.586-10.9 9.023l-2.49 2.9-1.55-1.265c.795-1.02 1.66-2.03 2.573-2.995l-6.54-5.887c-.335.857-.658 1.725-.963 2.594.176 3.132.33 6.27.464 9.407zm25.424 7.285v.628h-2v-.628h2zm-9.804-8.044l.28.25-1.34 1.487-.278-.25 1.338-1.487z"/><path d="M62.184 114.912h2v.628h-2zM54.383 106.863l.278.25-1.337 1.487-.278-.25zM80.352 63.523l-7.01 4.96c-5.28 3.664-10.472 7.61-15.5 11.438l2.78 1.357 9.41.81 2.106 1.084 1.656-5.612 1.13-1.413 1.562 1.25L75.6 78.5l-1.69 5.737.007.012 2.2 3.574 2.966-2.364 6.567 1.974 1.47-5.87 1.078.37c2.605-2.214 5.337-3.832 8.22-5.54.526-.31 1.06-.637 1.59-.955l-3.583-2.904.197-.988c-3.514-1.84-6.744-3.096-9.853-3.833l-.344-.082-.216-.278c-1.12-1.44-2.414-2.726-3.858-3.832zM77.24 76.77l-1.37-1.458.455-.43 1.386 1.44-.47.448zm5.79 1.25l-.685.73-.684.73-3.94-3.7.532-.565-1.12-1.125.143-.142 1.117 1.117.013-.013.684-.73 3.94 3.7z"/><path d="M76.325 74.88l-.454.432 1.37 1.458.47-.448M78.404 75.052l-.012.014-1.117-1.117-.142.14 1.12 1.126-.533.566 3.94 3.697.685-.73.684-.73-3.94-3.696M97.438 78.115c-2.964 1.755-5.764 3.413-8.36 5.703l-.437.385-.11-.038-.962 3.846 6.986 2.1c3.04-.914 5.65-2.364 8.02-3.8.75-.455 1.372-1.132 2.033-1.85.602-.653 1.224-1.328 2-1.904-1.925-.994-3.83-2.803-5.535-4.424-.5-.476-.98-.933-1.427-1.334-.74.45-1.477.885-2.207 1.317z"/></g></svg>