<svg xmlns="http://www.w3.org/2000/svg" viewBox="0 0 191 191"><path d="M95.9 123.268c-13.57 0-24.61-11.04-24.61-24.612 0-3.718.832-7.244 2.315-10.408l-39.13-22.304c-5.217 9.76-8.186 20.893-8.186 32.712 0 38.385 31.227 69.612 69.61 69.612 18.475 0 35.28-7.248 47.754-19.03l-31.833-31.834c-4.295 3.652-9.852 5.864-15.92 5.864z" fill="#E6C400"/><path d="M95.507 73.904c5.058 0 9.762 1.55 13.665 4.2l27.94-35.054c-11.586-8.786-25.998-14.007-41.605-14.007-24.974 0-46.895 13.356-59.05 33.323L75.33 84.603c4.41-6.454 11.807-10.7 20.177-10.7z" fill="#CCAF01"/><path d="M120.513 98.655c0 6.067-2.21 11.625-5.864 15.92l31.832 31.833c11.784-12.475 19.03-29.278 19.03-47.753 0-21.24-9.57-40.275-24.615-53.054l-28.123 35.16c4.76 4.492 7.74 10.85 7.74 17.895z" fill="#A99200"/></svg>