<svg xmlns="http://www.w3.org/2000/svg" width="130" height="115" viewBox="0 0 130 115"><path fill-rule="evenodd" clip-rule="evenodd" fill="#E31F20" d="M181.94 359.074c-.085.16-.157.305-.247.48.113.105.22.207.33.306 1.083.93 1.854 2.075 2.3 3.42.344 1.043.284 2.124.177 3.2-.11 1.116-.632 2.073-1.17 3.023-.095.167-.215.318-.297.492-.36.758-1.148 1.05-1.904.693-.774-.365-1.08-1.233-.678-1.983.185-.34.452-.636.616-.983.62-1.303.87-2.656.303-4.035-.188-.46-.54-.852-.912-1.248-.05.468-.08.938-.146 1.407-.23 1.583-.666 3.077-1.64 4.402-.435.585-.85 1.167-1.392 1.67-.69.638-1.55.485-1.92.14-.69-.644-.72-1.47-.12-2.166.452-.52.98-1.01 1.282-1.61.394-.78.67-1.634.857-2.49.308-1.396.204-2.798-.224-4.173-.273-.876.082-1.65.42-2.43.09-.214.198-.42.31-.65-.19-.136-.368-.26-.555-.394.124-.205.246-.405.365-.604.202.068.38.13.487.17.64-.77 1.258-1.502 1.858-2.25.238-.295.512-.443.855-.25.623.346 1.246.697 1.832 1.1.53.365 1.016.39 1.506-.03.47-.403.423-1.368-.084-1.74-.218-.163-.417-.35-.64-.534 1.025-.008 2.176.875 1.807 2.162-.117.423-.41.8-.605 1.203-.088.176-.193.367-.2.557-.026 1.088.313 2.06.972 2.924.293.38.604.76.837 1.175.145.254.158.58.262 1.01.46.277 1.07.627 1.664.996 1.146.715 2.285 1.438 3.423 2.163.187.12.33.166.557.047.6-.312 1.24-.092 1.656.45.28.36.645.65.978.974.12.112.242.228.38.314.258.172.505.396.794.476.48.132.88.324 1.104.783.346.7.992 1.02 1.665 1.272.548.204 1.048.435 1.335 1.085-.18.096-.377.27-.596.3-1.186.172-2.375.388-3.568.446-3.176.156-6.353.1-9.522-.21-.328-.036-.655-.095-.98-.16-.445-.09-.466-.153-.264-.54.392-.762 1.052-1.215 1.85-1.41.538-.135.894-.43 1.145-.87.312-.536.692-.9 1.343-1.05.397-.09.74-.46 1.086-.728.184-.14.327-.335.54-.555-1.062-.656-2.12-1.308-3.175-1.964-.676-.42-1.348-.853-2.022-1.274-.08-.045-.177-.102-.26-.1-.567.025-.876-.345-1.177-.734-.074-.096-.143-.21-.24-.268-.767-.467-1.536-.922-2.358-1.41m.444-.657c.315.18.603.345.913.52-.14-.424-.264-.81-.41-1.246-.18.257-.33.473-.503.727M187.465 353.314c-1.346.025-2.635-1.168-2.617-2.598.016-1.416 1.234-2.644 2.643-2.64 1.388.003 2.595 1.23 2.597 2.645.004 1.423-1.18 2.595-2.622 2.594"/><path fill-rule="evenodd" clip-rule="evenodd" fill="#E31F20" d="M180.36 350.982c1.028.053 1.922.4 2.726 1.014.28.22.577.423.87.627.432.306.59.924.33 1.317-.284.433-.923.53-1.384.215-.435-.296-.855-.608-1.3-.885-1.377-.85-2.49-.204-3.174.67-.36.462-.626 1-.946 1.5-.158.24-.307.496-.514.686-.31.278-.677.224-.998.01-.316-.206-.574-.524-.416-.907.73-1.755 1.696-3.32 3.594-4.024.378-.142.81-.153 1.213-.224M175.715 354.224c-.115.245-.217.468-.332.71-.188-.12-.367-.236-.545-.346.21-.63.3-.672.877-.364M175.088 363.36c-.016.305-.027.58-.04.888h-6.134v-.885c.224-.01.443-.022.703-.033.207-.933.42-1.865.617-2.8.36-1.737.72-3.472 1.066-5.208.055-.272.148-.367.434-.36.846.012.87-.01 1.045.814.374 1.773.716 3.554 1.075 5.33.12.59.27 1.18.377 1.772.066.352.203.553.593.466.062-.014.128.008.263.017M165.78 363.186c.26.104.492.197.745.3-.082.23-.154.433-.234.644l6.245 4.164c-.125.32-.264.662-.413 1.03-1.022-.192-2.02-.384-3.017-.56-1.195-.21-2.393-.405-3.59-.607-.057-.008-.115-.012-.173-.027-.623-.14-.623-.14-.923.434-.202-.09-.404-.182-.66-.293.674-1.697 1.34-3.365 2.02-5.084"/><g fill="#38A0D7"><path d="M95.115 46.74l-5.88-11.76h-1.29V31.6H81.92v3.383h-.866l-3.268-6.54H58.76v-2.86H55.44v2.86h-2.33l-3.275 6.54h-1.16V31.6h-6.025v3.383h-.995l-5.874 11.76h-2.15v3.87h63.332v-3.87h-1.85zm-46.27-.108h-6.122l-.017-4.952c.05-1.177 1.403-2.108 3.064-2.108 1.67 0 3.023.932 3.07 2.108h.004v4.952zm23.665-1.67H66.7v-6.395c3.29.45 5.81 2.802 5.81 5.646v.75zm-8.287 0h-6.13v-.75c0-2.65 2.79-5.09 6.13-5.615v6.365zm12.6 1.768h-2.534v-2.517c0-3.993-3.755-7.51-8.712-7.51-4.967 0-9.27 3.518-9.27 7.51v2.517h-2.54v-3.143c0-5.006 5.165-9.072 11.533-9.072 6.36 0 11.522 4.066 11.522 9.072v3.143zm11.734-.098h-6.13V41.68c.043-1.177 1.395-2.108 3.06-2.108 1.674 0 3.022.932 3.07 2.108v4.952zM35.435 95.345h59.57V53.088h-59.57v42.257zm17.05-8.284l-7.858-.005-.02-9.088c.063-1.495 1.795-2.705 3.933-2.705 2.144 0 3.878 1.21 3.944 2.705v9.094zm0-15.454h-7.858l-.02-9.09c.063-1.5 1.795-2.697 3.933-2.697 2.144 0 3.878 1.197 3.944 2.695v9.09zm11.17 15.455l-7.86-.005-.02-9.088c.053-1.495 1.8-2.705 3.937-2.705 2.135 0 3.873 1.21 3.944 2.705v9.094zm0-15.454h-7.86l-.02-9.09c.053-1.5 1.8-2.697 3.937-2.697 2.135 0 3.873 1.197 3.944 2.695v9.09zM74.83 87.06l-7.866-.005-.023-9.088c.06-1.495 1.804-2.705 3.94-2.705 2.14 0 3.87 1.21 3.937 2.705h.012v9.094zm0-15.454h-7.866l-.023-9.09c.06-1.5 1.804-2.697 3.94-2.697 2.14 0 3.87 1.197 3.937 2.695h.012v9.09zm11.16 15.455l-7.854-.005-.032-9.088c.065-1.495 1.803-2.705 3.943-2.705 2.142 0 3.884 1.204 3.944 2.696v9.103zm0-15.454h-7.854l-.032-9.09c.065-1.5 1.803-2.697 3.943-2.697 2.142 0 3.878 1.197 3.94 2.695h.004v9.09z"/><path d="M46.802 84.49l-.026-5.882c.01-.237.692-.782 1.76-.782 1.08 0 1.762.543 1.77.842l.012 5.83-3.516-.007zM46.802 69.044l-.026-5.89c.01-.23.692-.77 1.76-.77 1.08 0 1.762.534 1.77.83l.012 5.83h-3.516zM57.96 84.49l-.02-5.882c.02-.237.7-.782 1.768-.782 1.078 0 1.753.545 1.77.842v5.83l-3.517-.007zM57.96 69.044l-.02-5.89c.02-.23.695-.77 1.768-.77 1.078 0 1.753.54 1.77.83v5.83h-3.517zM69.13 84.49l-.01-5.882c.005-.24.683-.782 1.76-.782 1.072 0 1.748.545 1.758.842l.012 5.83-3.52-.007zM69.13 69.044l-.01-5.89c.005-.235.683-.77 1.76-.77 1.072 0 1.748.54 1.758.83l.012 5.83h-3.52zM80.302 84.49l-.025-5.882c.01-.237.695-.782 1.77-.782 1.078 0 1.76.543 1.77.834v5.83h-3.515zM80.302 69.044l-.025-5.89c.01-.23.695-.77 1.77-.77 1.066 0 1.753.534 1.76.83v5.83h-3.505z"/></g></svg>