<?xml version="1.0" encoding="UTF-8"?>
<svg width="72px" height="90px" viewBox="0 0 72 90" version="1.1" xmlns="http://www.w3.org/2000/svg" xmlns:xlink="http://www.w3.org/1999/xlink">
    <!-- Generator: Sketch 49.2 (51160) - http://www.bohemiancoding.com/sketch -->
    <title>Group</title>
    <desc>Created with Sketch.</desc>
    <defs></defs>
    <g id="Page-1" stroke="none" stroke-width="1" fill="none" fill-rule="evenodd">
        <g id="Group" transform="translate(0.000000, -0.362160)" fill="#000000" fill-rule="nonzero">
            <path d="M35.999763,0.36212 C16.3463932,0.362208918 0.414253249,16.2944702 0.414314,35.94784 C0.428430683,50.9161621 9.80782289,64.2755409 23.881479,69.3729 L35.999763,90.3621 L48.12801,69.3559 C62.1920132,64.2574563 71.5657393,50.9074497 71.585527,35.94784 C71.5855562,26.5099037 67.8363605,17.4585129 61.1627276,10.7848883 C54.4890947,4.11126366 45.4376993,0.362079156 35.999763,0.36212 Z M35.999763,9.55184 C50.577838,9.55190241 62.39568,21.369765 62.395717,35.94784 C62.3956579,50.5258993 50.5778223,62.3437376 35.999763,62.3438 C21.4217033,62.3437381 9.60386709,50.5258997 9.603808,35.94784 C9.603845,21.3697646 21.4216876,9.55190186 35.999763,9.55184 Z" id="Shape"></path>
            <polygon id="Shape" points="35.863911 20.72905 32.179953 32.01666 20.184869 32.49567 29.69952 39.52125 26.442885 51.1669 36.007828 44.2205 45.995824 50.9423 44.527713 46.3323 42.392523 39.62411 51.814973 32.12776 40.023903 32.08336"></polygon>
        </g>
    </g>
</svg>