<svg width="72" height="90" viewBox="0 0 72 90" xmlns="http://www.w3.org/2000/svg"><title>compromiso</title><g fill="#6F6F6F" fill-rule="nonzero"><path d="M36 0C16.346 0 .414 15.932.414 35.586.428 50.554 9.808 63.913 23.88 69.01L36 90l12.128-21.006c14.064-5.1 23.438-18.45 23.458-33.408 0-9.438-3.75-18.49-10.423-25.163C54.49 3.75 45.438 0 36 0zm0 9.19c14.578 0 26.396 11.818 26.396 26.396 0 14.578-11.818 26.396-26.396 26.396-14.578 0-26.396-11.818-26.396-26.396C9.604 21.008 21.422 9.19 36 9.19z"/><path d="M35.864 20.367L32.18 31.654l-11.995.48L29.7 39.16l-3.257 11.645 9.565-6.947 9.988 6.722-1.468-4.61-2.135-6.708 9.422-7.496-11.79-.045"/></g></svg>