<?xml version="1.0" encoding="UTF-8"?>
<svg width="72px" height="90px" viewBox="0 0 72 90" version="1.1" xmlns="http://www.w3.org/2000/svg" xmlns:xlink="http://www.w3.org/1999/xlink">
    <!-- Generator: Sketch 49.2 (51160) - http://www.bohemiancoding.com/sketch -->
    <title>compromiso</title>
    <desc>Created with Sketch.</desc>
    <defs></defs>
    <g id="Page-1" stroke="none" stroke-width="1" fill="none" fill-rule="evenodd">
        <g id="compromiso" fill="#6F6F6F" fill-rule="nonzero">
            <path d="M35.999763,-4e-05 C16.3463932,4.8918e-05 0.414253249,15.9323102 0.414314,35.58568 C0.428430683,50.5540021 9.80782289,63.9133809 23.881479,69.01074 L35.999763,89.99994 L48.12801,68.99374 C62.1920132,63.8952963 71.5657393,50.5452897 71.585527,35.58568 C71.5855562,26.1477437 67.8363605,17.0963529 61.1627276,10.4227283 C54.4890947,3.74910366 45.4376993,-8.0844e-05 35.999763,-4e-05 Z M35.999763,9.18968 C50.577838,9.18974241 62.39568,21.007605 62.395717,35.58568 C62.3956579,50.1637393 50.5778223,61.9815776 35.999763,61.98164 C21.4217033,61.9815781 9.60386709,50.1637397 9.603808,35.58568 C9.603845,21.0076046 21.4216876,9.18974186 35.999763,9.18968 Z" id="Shape"></path>
            <polygon id="Shape" points="35.863911 20.36689 32.179953 31.6545 20.184869 32.13351 29.69952 39.15909 26.442885 50.80474 36.007828 43.85834 45.995824 50.58014 44.527713 45.97014 42.392523 39.26195 51.814973 31.7656 40.023903 31.7212"></polygon>
        </g>
    </g>
</svg>