<svg xmlns="http://www.w3.org/2000/svg" width="130" height="115" viewBox="0 0 130 115"><path fill="#BD3E93" d="M62.472 28.485c-3.2 0-3.2-3.204-8.002-3.204-2.412 0-4.714.71-6.418 1.397V25.28c0-.884-.703-1.593-1.588-1.593-.888 0-1.588.71-1.588 1.594v27.23h3.2V41.297s1.595-3.212 6.41-3.212c3.21 0 3.21 3.212 8.007 3.212 4.803 0 6.413-3.212 6.413-3.212V25.282c-.013 0-1.61 3.203-6.434 3.203m3.21 7s0 1.592-3.21 1.592c-3.2 0-4.798-3.207-8.002-3.207-3.206 0-6.418 2.407-6.418 2.407V30.94s3.212-1.996 6.418-1.996c3.204 0 4.8 3.206 8.002 3.206 1.6 0 3.21-.797 3.21-.797v4.133zM105.484 71.312h-24.17v-16.12H32.956v42.78H65.19V79.345h8.06V97.97h32.234V71.313zm-56.41 16.09h-8.06v-8.057h8.06V87.4zm0-16.09h-8.06V63.25h8.06v8.062zm24.176 0h-8.064V63.25h8.064v8.062zm24.176 16.09h-8.064v-8.057h8.064V87.4z"/></svg>