<svg xmlns="http://www.w3.org/2000/svg" width="130" height="115" viewBox="0 0 130 115"><g fill="#A7C64D"><path d="M92.2 92.683c.053.65.02 1.31.02 2.05h3.657c.045-.903.077-1.807.136-2.883 2.927.305 5.494.4 8.22 1.484l.047.464c-.68.226-1.347.588-2.04.67-4.204.468-8.407 1.126-12.623 1.27-10.9.382-21.81.714-32.715.698-11.066-.025-22.13-.222-33.135-1.566-1.217-.148-2.41-.43-3.624-.706-.274-.06-.53-.26-1.026-.516 1.374-1.092 2.835-1.085 4.184-1.267 2.485-.34 4.964-.535 7.46-.732.735-.052 1.06-.346 1.337-.99 2.394-5.576 3.574-11.41 3.844-17.442.22-5.36-.142-10.68-1.17-15.948-.036-.224-.09-.43-.122-.574-1.316.46-2.56 1.1-3.873 1.33-6.253 1.114-11.336-4.88-9.28-10.88.22-.673.178-1.083-.25-1.646-2.665-3.405-2.285-8.23.855-11.187.496-.454.704-.884.692-1.567-.117-5.396 3.907-9.144 9.273-8.712.396.023.955-.223 1.232-.535 3.446-3.916 8.588-4.215 12.48-.75.277.244.91.368 1.248.22 6.335-2.564 12.443 2.023 11.795 8.876-.03.388.222.956.535 1.198 4.73 3.658 4.712 10.065-.08 13.69-.44.336-.775.576-.66 1.284.482 3.43-.718 6.25-3.563 8.197-2.797 1.93-5.814 1.954-8.832.38-.19-.105-.4-.19-.81-.38-.372 2.18-.802 4.23-1.045 6.306-1.118 9.31-.177 18.395 2.818 27.282.31.915.75 1.153 1.65 1.092 1.332-.088 2.087-.02 3.556-.02 0 1.29.037 2.775.037 4.126 1.108 0 3.01-.007 4.13-.007 0-1.04-.076-2.202-.076-2.202s.302-.01.1-.043c.26.06.112-.06.112-.06s.115-.252.147.06c1.017 0 2.736.086 3.777.086.04-.562.058-1.384.122-2.184 9.33.193 17.887.34 27.197.537.113.54.05 1.394.14 1.838.928 0 3.022.044 3.73.044.065-.407-.023-1.684-.023-1.684s.137.025.366-.043"/><path d="M97.186 83.877c-.688.065-1.218-.007-1.838.057v7.855c0 .46.004.926.004 1.383.01 1.546.064 1.166-1.402 1.213-.945.036-1.352.08-1.327-.896.056-3.14.01-6.3.01-9.536h-1.388c0 2.39.024 4.762-.006 7.135-.02.423-.108 1.183-.28 1.22-.696.124-1.435.094-2.15-.013-.126-.03-.23-.67-.23-1.03-.015-2.417-.008-4.826-.008-7.324H59.93v8.332c-.254.075-.358.134-.463.143-2.233.225-2.264.184-2.233-2.018.016-2.143 0-4.29 0-6.486h-1.27c0 2.292-.004 4.54 0 6.803 0 .917-.035 1.84.04 2.758.097 1.215-.6 1.235-1.515 1.258-.924.024-1.29-.212-1.268-1.215.066-2.8.023-5.613.023-8.422 0-.37-.03-.74-.045-1.182-.444-.043-.59-.024-1.26-.043 0-.82.078-1.275.21-1.88 1.416-2.052 3.023-4.085 3.023-4.085s2.24.024 4.19.024c11.46 0 22.91.02 34.36-.025h1.066s.493.646.674 1.1c.462 1.19 1.098 2.334 1.598 3.51.145.33.083.855.124 1.362M55.17 71.46h39.614v1.988H55.17zM94.773 74.684c0 .88.04 1.267.04 2.2-.404.025-.805.077-1.21.077-12.39 0-24.783-.116-37.186-.066-.525 0-1.208.02-1.208.02s-.033-.39-.04-.916c-.01-.59 0-1.39 0-1.39h1.21c12.403.048 24.806.017 37.21.017.38.006.754.042 1.183.06M55.296 67.86h39.467c0 .86-.017 1.427-.017 2.377H55.264s-.04-.98.032-2.378"/></g></svg>