<svg xmlns="http://www.w3.org/2000/svg" width="130" height="115" viewBox="0 0 130 115"><g fill-rule="evenodd" clip-rule="evenodd" fill="#22B496"><path d="M86.604 59.62c-3.073.207-6.142.483-9.205.543-.45.012-1.146-.98-1.302-1.627-.246-.926-.2-1.97-.112-2.957.175-2.063-.825-2.86-2.752-2.77-3.61.173-7.212.556-10.81.49-6.344-.126-12.688-.51-19.157-.797v-9.477c3.37 0 6.67.006 9.99-.006 2.716-.004 3.185-.49 3.2-3.237.027-1.9.012-3.81.012-5.832.82-.117 1.498-.217 2.478-.35 0-1.186.216-2.485-.062-3.658-.305-1.328-1.224-2.358-2.85-2.025-2.145.448-4.248 1.13-6.42 1.415-2.55.33-4.427-1.748-3.8-4.03.473-1.734 1.744-2.654 3.504-2.442 1.673.212 3.323.676 4.94 1.162 1.553.46 2.926.82 4.19-.705.486-.578 1.457-.767 2.2-1.133h2.123c.634.3 1.432.436 1.855.92 1.47 1.665 3.104 1.153 4.84.66 1.353-.386 2.74-.698 4.14-.904 1.5-.212 3.02.13 3.55 1.65.35 1.004.445 2.672-.14 3.292-.83.878-2.4 1.473-3.633 1.432-1.646-.033-3.315-.675-4.895-1.28-1.61-.612-3.042-.15-3.63 1.147-.6 1.294-.403 2.946-.545 4.408.904.2 1.5.34 2.217.485 0 2.073-.022 4.05.01 6.025.046 2.35.706 2.995 3.08 3.003 3.902.017 7.79.066 11.692-.02 2.413-.052 4.25.72 5.286 3.002V59.62zM81.568 71.67c1.467 2.574 2.943 4.75 4.006 7.11 1.46 3.23-.707 6.372-4.098 6.238-2.738-.1-4.86-2.663-3.912-5.25 1.014-2.744 2.585-5.28 4.004-8.1"/></g></svg>