<svg xmlns="http://www.w3.org/2000/svg" width="130" height="115" viewBox="0 0 130 115"><path fill-rule="evenodd" clip-rule="evenodd" fill="#E31F20" d="M63.138 60.383c-.266.497-.492.95-.77 1.5.353.33.682.648 1.033.956 3.382 2.902 5.79 6.484 7.187 10.688 1.072 3.256.885 6.636.55 9.998-.34 3.487-1.975 6.478-3.655 9.447-.296.52-.672.995-.928 1.538-1.124 2.37-3.59 3.28-5.95 2.168-2.418-1.142-3.373-3.854-2.116-6.198.577-1.064 1.414-1.986 1.926-3.072 1.934-4.072 2.715-8.3.946-12.61-.592-1.437-1.688-2.66-2.854-3.9-.152 1.465-.247 2.937-.454 4.4-.72 4.948-2.082 9.617-5.124 13.758-1.357 1.83-2.652 3.65-4.348 5.218-2.162 1.996-4.84 1.52-6 .44-2.16-2.01-2.252-4.597-.376-6.77 1.413-1.63 3.062-3.15 4.008-5.032 1.23-2.438 2.09-5.105 2.68-7.777.964-4.367.64-8.746-.697-13.043-.855-2.74.256-5.164 1.312-7.593.28-.672.62-1.313.97-2.034-.598-.427-1.152-.81-1.735-1.232.384-.64.765-1.266 1.137-1.885.63.212 1.187.408 1.523.53 2-2.402 3.93-4.693 5.808-7.03.745-.923 1.6-1.387 2.674-.783 1.947 1.08 3.894 2.18 5.725 3.437 1.66 1.14 3.173 1.214 4.704-.09 1.472-1.264 1.322-4.28-.262-5.44-.678-.512-1.3-1.092-1.993-1.672 3.2-.024 6.796 2.735 5.642 6.756-.366 1.322-1.278 2.497-1.893 3.76-.275.55-.605 1.147-.623 1.74-.086 3.4.977 6.433 3.033 9.137.915 1.187 1.89 2.373 2.616 3.67.448.797.49 1.816.814 3.162 1.44.863 3.348 1.955 5.2 3.11 3.582 2.233 7.14 4.494 10.694 6.758.59.382 1.032.522 1.744.15 1.874-.977 3.875-.286 5.176 1.403.873 1.126 2.014 2.035 3.054 3.045.372.35.755.708 1.187.98.803.537 1.574 1.236 2.48 1.486 1.496.41 2.744 1.013 3.447 2.446 1.08 2.19 3.1 3.192 5.202 3.977 1.713.638 3.275 1.357 4.172 3.39-.564.3-1.178.85-1.862.94-3.703.534-7.42 1.208-11.15 1.392-9.924.488-19.852.312-29.756-.653-1.026-.115-2.048-.3-3.062-.5-1.395-.28-1.458-.482-.826-1.69 1.224-2.38 3.286-3.796 5.776-4.406 1.684-.422 2.795-1.346 3.58-2.716.974-1.68 2.164-2.82 4.195-3.285 1.244-.283 2.314-1.434 3.395-2.273.574-.433 1.02-1.046 1.686-1.732-3.313-2.05-6.625-4.086-9.918-6.138-2.11-1.312-4.21-2.66-6.32-3.98-.25-.14-.552-.316-.81-.31-1.774.078-2.738-1.078-3.68-2.296-.23-.3-.444-.66-.75-.836-2.394-1.462-4.798-2.882-7.364-4.407m1.384-2.055c.986.564 1.884 1.078 2.854 1.627-.438-1.327-.823-2.532-1.278-3.896-.562.8-1.032 1.476-1.576 2.268M80.4 42.384c-4.206.08-8.233-3.65-8.18-8.118.05-4.424 3.86-8.26 8.26-8.248 4.333.01 8.105 3.848 8.11 8.264.016 4.44-3.68 8.106-8.19 8.102"/><path fill-rule="evenodd" clip-rule="evenodd" fill="#E31F20" d="M58.203 35.097c3.21.165 6.003 1.25 8.515 3.168.873.686 1.804 1.32 2.716 1.96 1.352.954 1.842 2.885 1.037 4.115-.89 1.352-2.886 1.658-4.326.67-1.358-.923-2.673-1.9-4.06-2.763-4.305-2.652-7.787-.638-9.92 2.092-1.123 1.444-1.956 3.127-2.958 4.684-.493.753-.958 1.554-1.604 2.146-.967.87-2.114.7-3.12.034-.988-.648-1.792-1.642-1.3-2.838 2.278-5.48 5.302-10.37 11.23-12.573 1.182-.44 2.527-.477 3.79-.696M43.684 45.225c-.36.766-.678 1.462-1.04 2.216-.587-.374-1.145-.734-1.7-1.077.658-1.97.94-2.1 2.74-1.138M41.724 73.78c-.048.948-.084 1.806-.127 2.77H22.432v-2.765c.7-.027 1.385-.07 2.197-.104.645-2.913 1.312-5.828 1.928-8.75 1.13-5.428 2.25-10.847 3.332-16.272.172-.852.463-1.147 1.355-1.127 2.643.04 2.722-.026 3.265 2.546 1.172 5.542 2.24 11.105 3.363 16.66.373 1.844.85 3.686 1.178 5.535.21 1.1.636 1.728 1.854 1.457.19-.045.4.02.82.052M12.636 73.23c.817.325 1.54.615 2.33.94-.254.712-.48 1.348-.73 2.007 6.482 4.32 12.923 8.617 19.512 13.012-.39.997-.824 2.068-1.29 3.223-3.196-.605-6.31-1.203-9.428-1.752-3.734-.656-7.476-1.267-11.217-1.897-.177-.024-.36-.036-.542-.086-1.946-.434-1.946-.434-2.882 1.356-.627-.285-1.26-.57-2.062-.917 2.105-5.3 4.183-10.512 6.31-15.887"/></svg>