<svg xmlns="http://www.w3.org/2000/svg" width="130" height="115" viewBox="0 0 130 115"><path fill="#7874B2" d="M27.935 98.542V41.957c0-2.14 1.646-3.773 3.77-3.773H46.81V23.078h37.73v15.105h15.08c2.13 0 3.774 1.635 3.774 3.773V98.54h-30.19V79.69h-15.1v18.85H27.936m26.407-67.9v22.64h7.54v-7.545h7.533v7.544h7.545V30.64h-7.545v7.544h-7.532V30.64h-7.54M35.465 91.006h15.102V79.692H35.466v11.315zm0-18.875h15.102v-11.32H35.466v11.32zm45.27 18.875h15.098V79.692H80.736v11.315zm0-18.875h15.098v-11.32H80.736v11.32zm-22.633 0h15.1v-11.32h-15.1v11.32z"/></svg>