<svg width="20" height="20" viewBox="0 0 20 20" xmlns="http://www.w3.org/2000/svg"><title>Group</title><g fill="#000" fill-rule="nonzero"><path d="M13.918 11.348c-.026 1.02-1.77 1.842-3.918 1.842s-3.892-.822-3.918-1.842c-3.286.26-5.86 2.654-5.86 5.57C.22 20.008 3.11 20 6.675 20h6.648c3.564 0 6.455.008 6.455-3.082 0-2.916-2.575-5.31-5.862-5.57z"/><path d="M10 11.172c-2.18 0-3.982-2.05-4.272-4.708h-.593c.33 3.03 2.38 5.362 4.865 5.362 2.483 0 4.535-2.333 4.865-5.362h-.593c-.29 2.66-2.09 4.708-4.272 4.708zM4.904 5.834h10.192c.397 0 .72-.28.72-.623 0-.343-.323-.622-.72-.622H14.9c0-1.655-1.094-3.088-2.687-3.79l-.407 1.996c-.032.158-.19.27-.37.27-.02 0-.043-.002-.065-.005-.203-.033-.34-.2-.303-.378l.464-2.28C11.357.162 11.05 0 10.696 0h-1.39c-.353 0-.66.16-.836.402l.463 2.28c.036.177-.1.346-.304.377l-.067.003c-.18 0-.338-.11-.37-.27L7.788.8C6.193 1.5 5.1 2.932 5.1 4.587h-.196c-.397 0-.72.28-.72.623 0 .345.323.624.72.624z"/></g></svg>