<svg xmlns="http://www.w3.org/2000/svg" width="130" height="115" viewBox="0 0 130 115"><g fill="#E84D00"><path d="M107.207 28.023c-3.685-1.07-12.003-2.8-27.513-2.8-15.504 0-23.836 1.73-27.514 2.8-1.398.396-2.343 1.735-2.343 3.242V88.85c0 .806.634 1.458 1.396 1.458h2.773v7.182c0 .84.675 1.51 1.516 1.51h6.14c.834 0 1.514-.67 1.514-1.51v-7.182h33.062v7.182c0 .84.68 1.51 1.518 1.51h6.133c.84 0 1.513-.67 1.513-1.51v-7.182h2.78c.788 0 1.398-.652 1.398-1.457V31.266c-.02-1.507-.967-2.846-2.373-3.242M61.554 32.46c0-.787.65-1.445 1.437-1.445h33.55c.785 0 1.437.658 1.437 1.446v3.502c0 .79-.65 1.443-1.438 1.443H62.99c-.785 0-1.436-.652-1.436-1.443v-3.5zm3.807 47.093c0 .828-.67 1.506-1.512 1.506h-7.764c-.833 0-1.504-.68-1.504-1.507V76.41c0-.837.67-1.514 1.504-1.514h7.764c.842 0 1.513.677 1.513 1.513v3.143zm39.457 0c0 .828-.675 1.506-1.516 1.506h-7.76c-.833 0-1.514-.68-1.514-1.507V76.41c0-.837.68-1.514 1.514-1.514h7.762c.84 0 1.516.677 1.516 1.513v3.143zm0-14.336c0 .79-.675 1.443-1.516 1.443H56.228c-.842 0-1.514-.652-1.514-1.443V42.053c0-.782.67-1.444 1.514-1.444h47.075c.84 0 1.516.66 1.516 1.443v23.164z"/><path d="M100.483 63.903c-.113 0-.228-.02-.36-.063-.028 0-1.877-.675-4.293-.675-2.41 0-4.267.675-4.292.675-.513.202-1.102-.073-1.274-.593-.206-.513.062-1.075.582-1.285.09-.02 2.213-.807 4.984-.807 2.78 0 4.9.785 4.992.807.52.21.785.772.58 1.285-.13.41-.51.656-.92.656M16.02 90.697h25.31V99H16.02zM17.786 38.223h3.634v52.45h-3.634z"/><path d="M16.178 41.27c-.722 0-1.424-.43-1.687-1.155-.37-.93.087-1.987 1.037-2.346 7.135-2.802 14.693-4.227 22.416-4.227 1.152 0 2.317.026 3.47.092.99.047 1.753.908 1.72 1.92-.052.992-.904 1.755-1.923 1.717-1.083-.067-2.19-.088-3.267-.088-7.293 0-14.382 1.33-21.112 3.972-.202.09-.43.115-.652.115"/></g></svg>