<svg xmlns="http://www.w3.org/2000/svg" width="130" height="115" viewBox="0 0 130 115"><path fill="#F1AD3C" d="M55.325 96.528h-23.21c-1.02-.498-1.26-1.378-1.26-2.427.01-11.225.01-22.445-.01-33.664 0-.476.143-.793.505-1.097 2.535-2.097 5.057-4.213 7.58-6.322 3.356-2.826 6.714-5.655 10.07-8.475 4.02-3.37 8.036-6.744 12.056-10.113.962-.805 1.934-1.6 2.9-2.405.15.124.247.194.338.275 2.454 2.194 4.903 4.394 7.356 6.582 3.424 3.04 6.853 6.073 10.276 9.12 4.165 3.704 8.314 7.444 12.507 11.123.52.463.72.904.72 1.582-.022 10.882-.022 21.78-.022 32.663 0 .45-.037.903-.12 1.35-.168.928-.774 1.44-1.67 1.65-.202.05-.408.098-.613.157H70.804c-.053-.254-.15-.51-.15-.747 0-5.796.01-11.592.025-17.398.007-2.32-1.017-3.445-3.36-3.483-3.052-.033-6.112-.027-9.157 0-1.868.02-2.8 1.004-2.81 2.87-.018 6.257-.018 12.505-.028 18.758"/><path fill-rule="evenodd" clip-rule="evenodd" fill="#966436" d="M64.35 17c1.074 1.018 2.123 2.047 3.206 3.047 2.442 2.23 4.907 4.444 7.36 6.66 3.996 3.612 7.996 7.212 11.986 10.828 3.55 3.217 7.077 6.457 10.63 9.67 3.594 3.265 7.204 6.52 10.807 9.782v.136c-.327.336-.635.71-.987 1.002-1.982 1.604-4.082 1.275-6.21.362-2.088-.876-3.648-2.476-5.3-3.952-2.79-2.49-5.564-5.002-8.343-7.51-2.546-2.277-5.07-4.558-7.61-6.835-4.267-3.82-8.525-7.638-12.783-11.448-.948-.834-1.875-1.685-2.872-2.576-1.246 1.053-2.47 2.08-3.683 3.11-3.938 3.32-7.876 6.645-11.802 9.96-3.262 2.763-6.49 5.542-9.746 8.298-3.255 2.758-6.508 5.522-9.8 8.24-1.32 1.077-2.674 2.167-4.14 3.025-2.034 1.182-4.525.98-6.26-1.398-.036-.055-.102-.087-.16-.136v-.144c1.57-1.35 3.135-2.7 4.7-4.07 3.284-2.877 6.55-5.76 9.82-8.643 3.598-3.18 7.18-6.35 10.775-9.52 3.217-2.838 6.45-5.66 9.668-8.504 3.538-3.123 7.063-6.25 10.6-9.387h.14z"/><path fill-rule="evenodd" clip-rule="evenodd" fill="#966436" d="M84.31 21.002v17.415c-.2-.12-.34-.184-.446-.27-2.506-2.12-5.02-4.226-7.51-6.363-.244-.22-.483-.604-.493-.913-.043-3.124-.035-6.25-.043-9.378 0-.15.038-.31.054-.49h8.44z"/></svg>