<?xml version="1.0" encoding="UTF-8"?>
<svg width="1410px" height="795px" viewBox="0 0 1410 795" version="1.1" xmlns="http://www.w3.org/2000/svg" xmlns:xlink="http://www.w3.org/1999/xlink">
    <!-- Generator: Sketch 52.5 (67469) - http://www.bohemiancoding.com/sketch -->
    <title>home_draw</title>
    <desc>Created with Sketch.</desc>
    <defs>
        <path d="M1065.3,2200.23 C1053.95,2200.23 1042.61,2199.73 1031.27,2198.74 C1031.76,2197.14 1031.82,2195.39 1031.34,2193.66 C1030.23,2189.6 1026.55,2186.93 1022.53,2186.93 C1021.73,2186.93 1020.92,2187.03 1020.11,2187.25 C1015.81,2188.43 1013.07,2192.5 1013.41,2196.79 C964.11,2190.3 914.67,2174.8 863.98,2151.67 C807.33,2125.82 747.06,2115.48 689.56,2115.48 C630.71,2115.48 574.77,2126.31 528.6,2142.4 C474.65,2161.21 410.31,2175.59 339.97,2175.59 C295.24,2175.59 248.09,2169.78 199.63,2155.59 L199.64,2155.59 C196.33,2154.62 193.01,2153.62 189.69,2152.57 C189.65,2152.56 189.62,2152.55 189.58,2152.53 C189.48,2152.5 189.38,2152.47 189.28,2152.44 C189.1,2152.38 188.91,2152.32 188.73,2152.26 C188.72,2152.26 188.71,2152.26 188.71,2152.26 C188.09,2152.06 187.47,2151.86 186.86,2151.67 C143.7,2137.77 103.37,2133.14 68.78,2133.14 C42.32,2133.14 19.23,2135.84 0.78,2139.19 C0.78,2097.9 0.78,2048.98 0.78,1993.89 C1.19,1992.82 1.27,1991.62 0.95,1990.43 C0.9,1990.26 0.85,1990.09 0.78,1989.93 C0.78,1845.09 0.78,1658.7 0.78,1458.6 C1.19,1457.53 1.27,1456.33 0.95,1455.15 C0.9,1454.97 0.85,1454.81 0.78,1454.64 C0.78,1110.24 0.78,726.03 0.78,443.89 C1.19,442.82 1.27,441.62 0.95,440.43 C0.9,440.26 0.85,440.09 0.78,439.93 C0.78,279.28 0.78,152.16 0.78,85.12 C0.78,56.29 0.78,38.54 0.78,34.02 C0.78,34.02 44.18,16.62 109.12,16.62 C141.59,16.62 179.46,20.97 219.97,34.02 C269.67,50.02 318.03,56.48 363.7,56.48 C429.73,56.48 490.13,42.98 540.78,25.32 C584.12,10.21 636.63,0.05 691.88,0.05 C745.85,0.05 802.44,9.75 855.62,34.02 C919.9,63.35 982.04,79.61 1044.6,79.61 C1086.76,79.61 1129.12,72.22 1172.44,56.48 C1199.75,46.55 1223.01,37.22 1244.02,29.18 C1245.08,30.46 1246.66,31.23 1248.35,31.23 C1248.84,31.23 1249.34,31.16 1249.83,31.03 C1252.39,30.33 1254.05,27.96 1253.95,25.42 C1291.75,11.28 1322.79,1.98 1358.64,1.98 C1376.04,1.98 1394.57,4.17 1415.54,9.06 L1415.54,253.9 C1411.69,256.93 1409.81,262.09 1411.18,267.12 C1411.92,269.83 1413.49,272.09 1415.54,273.7 L1415.54,334 C1414.51,332.96 1413.08,332.35 1411.57,332.35 C1411.08,332.35 1410.59,332.41 1410.09,332.55 C1407.11,333.36 1405.35,336.44 1406.17,339.43 C1406.85,341.92 1409.1,343.56 1411.57,343.56 C1412.06,343.56 1412.56,343.49 1413.05,343.36 C1414.03,343.09 1414.88,342.58 1415.54,341.9 L1415.54,1268.61 C1411.69,1271.65 1409.81,1276.8 1411.18,1281.84 C1411.92,1284.55 1413.49,1286.8 1415.54,1288.42 L1415.54,1348.71 C1414.51,1347.67 1413.08,1347.06 1411.57,1347.06 C1411.08,1347.06 1410.59,1347.13 1410.09,1347.26 C1407.11,1348.08 1405.35,1351.16 1406.17,1354.14 C1406.85,1356.63 1409.1,1358.27 1411.57,1358.27 C1412.06,1358.27 1412.56,1358.21 1413.05,1358.07 C1414.03,1357.8 1414.88,1357.29 1415.54,1356.62 L1415.54,1803.9 C1411.69,1806.93 1409.81,1812.09 1411.18,1817.12 C1411.92,1819.83 1413.49,1822.09 1415.54,1823.7 L1415.54,1884 C1414.51,1882.96 1413.08,1882.35 1411.57,1882.35 C1411.08,1882.35 1410.59,1882.41 1410.09,1882.55 C1407.11,1883.36 1405.35,1886.44 1406.17,1889.43 C1406.85,1891.92 1409.1,1893.56 1411.57,1893.56 C1412.06,1893.56 1412.56,1893.49 1413.05,1893.36 C1414.03,1893.09 1414.88,1892.58 1415.54,1891.9 L1415.54,2118.09 C1410.2,2117.72 1404.96,2117.54 1399.83,2117.54 C1337.79,2117.54 1289.27,2143.68 1201.48,2175.59 M1159.48,2145.41 C1159.28,2145.41 1159.07,2145.44 1158.87,2145.49 C1157.65,2145.83 1156.93,2147.09 1157.26,2148.31 C1157.54,2149.33 1158.47,2150 1159.48,2150 C1159.68,2150 1159.88,2149.97 1160.08,2149.92 C1161.3,2149.58 1162.02,2148.32 1161.69,2147.1 M523.94,2127.83 C523.45,2127.83 522.95,2127.89 522.45,2128.03 C519.47,2128.84 517.71,2131.93 518.53,2134.91 C519.21,2137.4 521.47,2139.04 523.93,2139.04 C524.42,2139.04 524.92,2138.97 525.41,2138.84 C528.4,2138.02 530.15,2134.94 529.34,2131.95 M1279.06,2121.84 C1278.71,2121.84 1278.35,2121.89 1277.99,2121.99 C1275.82,2122.58 1274.54,2124.82 1275.14,2126.98 C1275.63,2128.79 1277.27,2129.98 1279.06,2129.98 C1279.41,2129.98 1279.78,2129.93 1280.13,2129.83 C1282.3,2129.24 1283.58,2127 1282.98,2124.84 M406.61,2093.43 C405.51,2093.43 404.39,2093.58 403.28,2093.88 C396.57,2095.71 392.62,2102.64 394.46,2109.35 C395.99,2114.95 401.06,2118.62 406.59,2118.62 C407.69,2118.62 408.81,2118.48 409.92,2118.17 C416.63,2116.34 420.58,2109.41 418.75,2102.7 M688.68,2100.25 C688.4,2100.25 688.12,2100.28 687.84,2100.36 C686.16,2100.82 685.17,2102.56 685.63,2104.24 C686.01,2105.64 687.29,2106.57 688.68,2106.57 C688.95,2106.57 689.23,2106.53 689.51,2106.46 C691.2,2105.99 692.19,2104.26 691.73,2102.57 M101.12,2087.86 C100.63,2087.86 100.13,2087.93 99.64,2088.06 C96.65,2088.88 94.9,2091.96 95.71,2094.94 C96.39,2097.43 98.65,2099.07 101.11,2099.07 C101.6,2099.07 102.1,2099.01 102.59,2098.87 C105.58,2098.05 107.34,2094.97 106.52,2091.99 M877.36,2024.18 C876.26,2024.18 875.14,2024.33 874.03,2024.63 C867.32,2026.47 863.37,2033.39 865.2,2040.1 C866.73,2045.7 871.81,2049.37 877.34,2049.37 C878.44,2049.37 879.56,2049.23 880.67,2048.92 C887.38,2047.09 891.33,2040.16 889.5,2033.46 M981.92,1999.02 C981.65,1999.02 981.37,1999.06 981.09,1999.13 C979.41,1999.59 978.41,2001.33 978.87,2003.01 C979.26,2004.42 980.53,2005.34 981.92,2005.34 C982.2,2005.34 982.48,2005.3 982.76,2005.23 C984.44,2004.77 985.43,2003.03 984.97,2001.35 M160.29,1958.72 C160.01,1958.72 159.73,1958.76 159.45,1958.84 C157.77,1959.3 156.78,1961.03 157.24,1962.72 C157.62,1964.12 158.9,1965.04 160.29,1965.04 C160.56,1965.04 160.84,1965.01 161.12,1964.93 C162.8,1964.47 163.79,1962.73 163.33,1961.05 M1151.08,1948.18 C1150.8,1948.18 1150.52,1948.22 1150.25,1948.29 C1148.56,1948.75 1147.57,1950.49 1148.03,1952.17 C1148.42,1953.58 1149.69,1954.5 1151.08,1954.5 C1151.35,1954.5 1151.63,1954.46 1151.91,1954.39 C1153.6,1953.93 1154.59,1952.19 1154.13,1950.51 M922.4,1941.76 C922.12,1941.76 921.84,1941.8 921.56,1941.87 C919.88,1942.33 918.89,1944.07 919.35,1945.75 C919.73,1947.16 921.01,1948.08 922.4,1948.08 C922.67,1948.08 922.95,1948.04 923.23,1947.97 C924.91,1947.51 925.91,1945.77 925.44,1944.09 M1267.97,1919.21 C1266.87,1919.21 1265.75,1919.35 1264.64,1919.66 C1257.93,1921.49 1253.98,1928.42 1255.82,1935.12 C1257.35,1940.72 1262.42,1944.4 1267.96,1944.4 C1269.06,1944.4 1270.17,1944.25 1271.29,1943.95 C1277.99,1942.11 1281.94,1935.19 1280.11,1928.48 M466.29,1917.06 C465.8,1917.06 465.31,1917.12 464.81,1917.26 C461.83,1918.07 460.07,1921.15 460.88,1924.14 C461.57,1926.63 463.82,1928.27 466.29,1928.27 C466.78,1928.27 467.27,1928.2 467.77,1928.07 C470.75,1927.25 472.51,1924.17 471.69,1921.18 M348.97,1882.66 C347.87,1882.66 346.75,1882.8 345.64,1883.11 C338.93,1884.94 334.98,1891.87 336.81,1898.58 C338.34,1904.17 343.42,1907.85 348.95,1907.85 C350.05,1907.85 351.17,1907.7 352.28,1907.4 C358.99,1905.57 362.94,1898.64 361.1,1891.93 M631.04,1889.47 C630.76,1889.47 630.48,1889.51 630.2,1889.59 C628.52,1890.05 627.53,1891.78 627.99,1893.47 C628.37,1894.87 629.65,1895.8 631.03,1895.8 C631.31,1895.8 631.59,1895.76 631.87,1895.68 C633.55,1895.22 634.54,1893.48 634.08,1891.8 M952.59,1870.45 C951.49,1870.45 950.37,1870.6 949.26,1870.9 C942.55,1872.74 938.6,1879.66 940.43,1886.37 C941.96,1891.97 947.04,1895.64 952.57,1895.64 C953.67,1895.64 954.79,1895.5 955.9,1895.19 C962.61,1893.36 966.56,1886.44 964.73,1879.73 M1393.15,1872.51 C1392.87,1872.51 1392.59,1872.55 1392.31,1872.62 C1390.63,1873.08 1389.64,1874.82 1390.1,1876.51 C1390.48,1877.91 1391.75,1878.83 1393.14,1878.83 C1393.42,1878.83 1393.7,1878.8 1393.98,1878.72 C1395.66,1878.26 1396.65,1876.52 1396.19,1874.84 M33.58,1833.91 C32.48,1833.91 31.36,1834.05 30.25,1834.35 C23.55,1836.19 19.59,1843.11 21.43,1849.82 C22.96,1855.42 28.03,1859.09 33.57,1859.09 C34.67,1859.09 35.78,1858.95 36.9,1858.65 C43.6,1856.81 47.56,1849.89 45.72,1843.18 M819.71,1813.41 C818.61,1813.41 817.5,1813.56 816.38,1813.86 C809.68,1815.69 805.72,1822.62 807.56,1829.33 C809.09,1834.92 814.16,1838.6 819.7,1838.6 C820.8,1838.6 821.92,1838.46 823.03,1838.15 C829.74,1836.32 833.69,1829.39 831.85,1822.68 M379.14,1830.22 C378.87,1830.22 378.59,1830.26 378.31,1830.34 C376.62,1830.8 375.63,1832.53 376.09,1834.22 C376.48,1835.62 377.75,1836.54 379.14,1836.54 C379.41,1836.54 379.69,1836.51 379.97,1836.43 C381.66,1835.97 382.65,1834.23 382.19,1832.55 M150.46,1823.8 C150.18,1823.8 149.9,1823.84 149.62,1823.91 C147.94,1824.38 146.95,1826.11 147.41,1827.8 C147.79,1829.2 149.07,1830.12 150.46,1830.12 C150.73,1830.12 151.01,1830.09 151.29,1830.01 C152.98,1829.55 153.97,1827.81 153.51,1826.13 M360.72,1815.5 C360.23,1815.5 359.73,1815.56 359.24,1815.7 C356.25,1816.51 354.49,1819.6 355.31,1822.58 C355.99,1825.07 358.25,1826.71 360.71,1826.71 C361.2,1826.71 361.7,1826.64 362.19,1826.51 C365.18,1825.69 366.94,1822.61 366.12,1819.63 M1141.25,1813.26 C1140.98,1813.26 1140.7,1813.3 1140.42,1813.37 C1138.73,1813.83 1137.74,1815.57 1138.2,1817.25 C1138.59,1818.66 1139.86,1819.58 1141.25,1819.58 C1141.52,1819.58 1141.81,1819.54 1142.08,1819.47 C1143.77,1819.01 1144.76,1817.27 1144.3,1815.59 M1306,1780.79 C1305.51,1780.79 1305.01,1780.85 1304.52,1780.99 C1301.53,1781.81 1299.77,1784.89 1300.59,1787.87 C1301.27,1790.36 1303.53,1792 1305.99,1792 C1306.48,1792 1306.98,1791.93 1307.47,1791.8 C1310.46,1790.98 1312.22,1787.9 1311.4,1784.92 M504.33,1764.66 C503.23,1764.66 502.11,1764.8 501,1765.11 C494.29,1766.94 490.34,1773.86 492.18,1780.57 C493.71,1786.17 498.78,1789.85 504.31,1789.85 C505.41,1789.85 506.53,1789.7 507.64,1789.4 C514.35,1787.56 518.3,1780.64 516.47,1773.93 M319.62,1772.96 C319.34,1772.96 319.06,1773 318.78,1773.08 C317.1,1773.54 316.11,1775.27 316.57,1776.96 C316.95,1778.36 318.23,1779.28 319.61,1779.28 C319.89,1779.28 320.17,1779.25 320.45,1779.17 C322.13,1778.71 323.12,1776.97 322.66,1775.29 M849.89,1760.97 C849.61,1760.97 849.33,1761.01 849.05,1761.09 C847.37,1761.55 846.38,1763.28 846.84,1764.97 C847.22,1766.37 848.5,1767.29 849.88,1767.29 C850.16,1767.29 850.44,1767.26 850.72,1767.18 C852.4,1766.72 853.4,1764.98 852.94,1763.3 M621.21,1754.55 C620.93,1754.55 620.65,1754.59 620.37,1754.67 C618.69,1755.13 617.7,1756.86 618.16,1758.55 C618.54,1759.95 619.82,1760.87 621.2,1760.87 C621.48,1760.87 621.76,1760.84 622.04,1760.76 C623.72,1760.3 624.71,1758.56 624.25,1756.88 M371.11,1697.08 C370.04,1697.08 368.96,1697.22 367.89,1697.52 C361.39,1699.29 357.57,1706 359.34,1712.49 C360.82,1717.91 365.74,1721.47 371.1,1721.47 C372.16,1721.47 373.24,1721.33 374.32,1721.04 C380.81,1719.26 384.64,1712.56 382.86,1706.06 M228.16,1703.06 C227.8,1703.06 227.44,1703.11 227.08,1703.2 C224.92,1703.8 223.64,1706.03 224.23,1708.2 C224.73,1710.01 226.37,1711.2 228.15,1711.2 C228.51,1711.2 228.87,1711.15 229.23,1711.05 C231.4,1710.46 232.67,1708.22 232.08,1706.05 M790.37,1703.71 C790.09,1703.71 789.81,1703.75 789.53,1703.83 C787.85,1704.29 786.86,1706.03 787.31,1707.71 C787.7,1709.11 788.97,1710.04 790.36,1710.04 C790.64,1710.04 790.92,1710 791.2,1709.92 C792.88,1709.46 793.87,1707.72 793.41,1706.04 M894.94,1659.68 C893.84,1659.68 892.73,1659.83 891.61,1660.13 C884.91,1661.97 880.96,1668.89 882.79,1675.6 C884.32,1681.19 889.39,1684.87 894.93,1684.87 C896.03,1684.87 897.15,1684.73 898.26,1684.42 C904.97,1682.59 908.92,1675.66 907.08,1668.95 M217.93,1634.21 C217.66,1634.21 217.38,1634.25 217.1,1634.32 C215.41,1634.78 214.42,1636.52 214.88,1638.2 C215.27,1639.61 216.54,1640.53 217.93,1640.53 C218.21,1640.53 218.49,1640.5 218.76,1640.42 C220.45,1639.96 221.44,1638.22 220.98,1636.54 M1365.69,1590.43 C1364.59,1590.43 1363.47,1590.58 1362.36,1590.88 C1355.65,1592.72 1351.7,1599.64 1353.54,1606.35 C1355.07,1611.95 1360.14,1615.62 1365.68,1615.62 C1366.78,1615.62 1367.89,1615.48 1369.01,1615.17 C1375.71,1613.34 1379.66,1606.41 1377.83,1599.71 M1083.61,1602.49 C1083.33,1602.49 1083.05,1602.52 1082.77,1602.6 C1081.09,1603.06 1080.1,1604.8 1080.56,1606.48 C1080.94,1607.89 1082.22,1608.81 1083.61,1608.81 C1083.88,1608.81 1084.16,1608.77 1084.44,1608.7 C1086.12,1608.23 1087.11,1606.5 1086.65,1604.81 M523.94,1592.54 C523.45,1592.54 522.95,1592.61 522.45,1592.74 C519.47,1593.56 517.71,1596.64 518.53,1599.63 C519.21,1602.12 521.47,1603.75 523.93,1603.75 C524.42,1603.75 524.92,1603.69 525.41,1603.55 C528.4,1602.74 530.15,1599.65 529.34,1596.67 M406.61,1558.15 C405.51,1558.15 404.39,1558.29 403.28,1558.6 C396.57,1560.43 392.62,1567.36 394.46,1574.06 C395.99,1579.66 401.06,1583.34 406.59,1583.34 C407.69,1583.34 408.81,1583.19 409.92,1582.89 C416.63,1581.05 420.58,1574.13 418.75,1567.42 M1248.36,1570.02 C1247.87,1570.02 1247.37,1570.08 1246.87,1570.22 C1243.89,1571.03 1242.13,1574.11 1242.95,1577.1 C1243.63,1579.59 1245.89,1581.23 1248.35,1581.23 C1248.84,1581.23 1249.34,1581.16 1249.83,1581.03 C1252.82,1580.21 1254.57,1577.13 1253.76,1574.14 M688.68,1564.96 C688.4,1564.96 688.12,1565 687.84,1565.07 C686.16,1565.53 685.17,1567.27 685.63,1568.95 C686.01,1570.36 687.29,1571.28 688.68,1571.28 C688.95,1571.28 689.23,1571.25 689.51,1571.17 C691.2,1570.71 692.19,1568.97 691.73,1567.29 M101.12,1552.58 C100.63,1552.58 100.13,1552.64 99.64,1552.78 C96.65,1553.59 94.9,1556.67 95.71,1559.66 C96.39,1562.15 98.65,1563.79 101.11,1563.79 C101.6,1563.79 102.1,1563.72 102.59,1563.59 C105.58,1562.77 107.34,1559.69 106.52,1556.7 M877.36,1488.9 C876.26,1488.9 875.14,1489.04 874.03,1489.35 C867.32,1491.18 863.37,1498.11 865.2,1504.81 C866.73,1510.41 871.81,1514.09 877.34,1514.09 C878.44,1514.09 879.56,1513.94 880.67,1513.64 C887.38,1511.8 891.33,1504.88 889.5,1498.17 M1401.19,1452.3 C1400.12,1452.3 1399.04,1452.44 1397.97,1452.73 C1391.47,1454.51 1387.65,1461.21 1389.42,1467.71 C1390.91,1473.13 1395.82,1476.69 1401.18,1476.69 C1402.24,1476.69 1403.32,1476.54 1404.4,1476.25 C1410.89,1474.47 1414.72,1467.77 1412.94,1461.28 M981.92,1463.73 C981.65,1463.73 981.37,1463.77 981.09,1463.85 C979.41,1464.31 978.41,1466.04 978.87,1467.73 C979.26,1469.13 980.53,1470.05 981.92,1470.05 C982.2,1470.05 982.48,1470.02 982.76,1469.94 C984.44,1469.48 985.43,1467.74 984.97,1466.06 M160.29,1423.44 C160.01,1423.44 159.73,1423.47 159.45,1423.55 C157.77,1424.01 156.78,1425.75 157.24,1427.43 C157.62,1428.84 158.9,1429.76 160.28,1429.76 C160.56,1429.76 160.84,1429.72 161.12,1429.65 C162.8,1429.19 163.79,1427.45 163.33,1425.77 M1151.08,1412.9 C1150.81,1412.9 1150.52,1412.93 1150.25,1413.01 C1148.56,1413.47 1147.57,1415.21 1148.03,1416.89 C1148.42,1418.29 1149.69,1419.22 1151.08,1419.22 C1151.35,1419.22 1151.63,1419.18 1151.91,1419.1 C1153.6,1418.64 1154.59,1416.9 1154.13,1415.22 M922.4,1406.47 C922.12,1406.47 921.84,1406.51 921.56,1406.59 C919.88,1407.05 918.89,1408.79 919.35,1410.47 C919.73,1411.87 921.01,1412.8 922.4,1412.8 C922.67,1412.8 922.95,1412.76 923.23,1412.68 C924.91,1412.22 925.91,1410.49 925.44,1408.8 M1267.97,1383.92 C1266.87,1383.92 1265.75,1384.07 1264.64,1384.37 C1257.93,1386.21 1253.98,1393.13 1255.82,1399.84 C1257.35,1405.44 1262.42,1409.11 1267.96,1409.11 C1269.06,1409.11 1270.17,1408.97 1271.29,1408.66 C1277.99,1406.83 1281.94,1399.9 1280.11,1393.2 M466.29,1381.77 C465.8,1381.77 465.31,1381.83 464.81,1381.97 C461.83,1382.79 460.07,1385.87 460.88,1388.85 C461.57,1391.34 463.82,1392.98 466.29,1392.98 C466.78,1392.98 467.27,1392.92 467.77,1392.78 C470.75,1391.96 472.51,1388.88 471.69,1385.9 M348.97,1347.37 C347.87,1347.37 346.75,1347.52 345.64,1347.82 C338.93,1349.66 334.98,1356.58 336.81,1363.29 C338.34,1368.89 343.42,1372.56 348.95,1372.56 C350.05,1372.56 351.17,1372.42 352.28,1372.12 C358.99,1370.28 362.94,1363.36 361.1,1356.65 M631.04,1354.19 C630.76,1354.19 630.48,1354.23 630.2,1354.3 C628.52,1354.76 627.53,1356.5 627.99,1358.18 C628.37,1359.59 629.64,1360.51 631.03,1360.51 C631.31,1360.51 631.59,1360.47 631.87,1360.4 C633.55,1359.94 634.54,1358.2 634.08,1356.52 M952.59,1335.17 C951.49,1335.17 950.37,1335.31 949.26,1335.62 C942.55,1337.45 938.6,1344.38 940.43,1351.09 C941.96,1356.68 947.04,1360.36 952.57,1360.36 C953.67,1360.36 954.79,1360.21 955.9,1359.91 C962.61,1358.07 966.56,1351.15 964.73,1344.44 M1393.15,1337.23 C1392.87,1337.23 1392.59,1337.26 1392.31,1337.34 C1390.63,1337.8 1389.64,1339.54 1390.1,1341.22 C1390.48,1342.62 1391.76,1343.55 1393.15,1343.55 C1393.42,1343.55 1393.7,1343.51 1393.98,1343.43 C1395.66,1342.97 1396.65,1341.24 1396.19,1339.55 M33.58,1298.62 C32.48,1298.62 31.36,1298.77 30.25,1299.07 C23.55,1300.9 19.59,1307.83 21.43,1314.54 C22.96,1320.13 28.03,1323.81 33.57,1323.81 C34.67,1323.81 35.78,1323.67 36.9,1323.36 C43.6,1321.53 47.56,1314.6 45.72,1307.89 M819.71,1278.12 C818.61,1278.12 817.49,1278.27 816.38,1278.57 C809.68,1280.41 805.72,1287.33 807.56,1294.04 C809.09,1299.64 814.16,1303.32 819.7,1303.32 C820.8,1303.32 821.92,1303.17 823.03,1302.87 C829.74,1301.03 833.69,1294.11 831.85,1287.4 M379.14,1294.94 C378.87,1294.94 378.58,1294.97 378.31,1295.05 C376.62,1295.51 375.63,1297.25 376.09,1298.93 C376.48,1300.34 377.75,1301.26 379.14,1301.26 C379.41,1301.26 379.69,1301.22 379.97,1301.15 C381.66,1300.68 382.65,1298.95 382.19,1297.26 M150.46,1288.52 C150.18,1288.52 149.9,1288.55 149.62,1288.63 C147.94,1289.09 146.95,1290.83 147.41,1292.51 C147.8,1293.92 149.07,1294.84 150.46,1294.84 C150.73,1294.84 151.01,1294.8 151.29,1294.73 C152.98,1294.26 153.97,1292.53 153.51,1290.84 M360.72,1280.21 C360.23,1280.21 359.73,1280.28 359.24,1280.41 C356.25,1281.23 354.49,1284.31 355.31,1287.3 C355.99,1289.79 358.25,1291.42 360.71,1291.42 C361.2,1291.42 361.7,1291.36 362.19,1291.22 C365.18,1290.41 366.94,1287.33 366.12,1284.34 M1141.25,1277.97 C1140.98,1277.97 1140.7,1278.01 1140.42,1278.09 C1138.73,1278.55 1137.74,1280.28 1138.2,1281.97 C1138.59,1283.37 1139.86,1284.3 1141.25,1284.3 C1141.53,1284.3 1141.81,1284.26 1142.08,1284.18 C1143.77,1283.72 1144.76,1281.98 1144.3,1280.3 M1306,1245.5 C1305.51,1245.5 1305.01,1245.57 1304.52,1245.7 C1301.53,1246.52 1299.77,1249.6 1300.59,1252.59 C1301.27,1255.08 1303.53,1256.71 1305.99,1256.71 C1306.48,1256.71 1306.98,1256.65 1307.47,1256.51 C1310.46,1255.7 1312.22,1252.62 1311.4,1249.63 M504.33,1229.37 C503.23,1229.37 502.11,1229.52 501,1229.82 C494.29,1231.66 490.34,1238.58 492.18,1245.29 C493.71,1250.88 498.78,1254.56 504.31,1254.56 C505.41,1254.56 506.53,1254.42 507.64,1254.11 C514.35,1252.28 518.3,1245.35 516.47,1238.64 M319.62,1237.68 C319.34,1237.68 319.06,1237.71 318.78,1237.79 C317.1,1238.25 316.11,1239.99 316.57,1241.67 C316.95,1243.08 318.22,1244 319.61,1244 C319.89,1244 320.17,1243.96 320.45,1243.89 C322.13,1243.43 323.12,1241.69 322.66,1240 M849.89,1225.69 C849.61,1225.69 849.33,1225.72 849.05,1225.8 C847.37,1226.26 846.38,1228 846.84,1229.68 C847.22,1231.09 848.5,1232.01 849.89,1232.01 C850.16,1232.01 850.44,1231.97 850.72,1231.9 C852.4,1231.44 853.4,1229.7 852.94,1228.01 M621.21,1219.27 C620.93,1219.27 620.65,1219.3 620.37,1219.38 C618.69,1219.84 617.7,1221.58 618.16,1223.26 C618.54,1224.67 619.82,1225.59 621.2,1225.59 C621.48,1225.59 621.76,1225.55 622.04,1225.47 C623.72,1225.02 624.71,1223.28 624.25,1221.59 M228.16,1167.77 C227.8,1167.77 227.44,1167.82 227.08,1167.92 C224.92,1168.51 223.64,1170.75 224.23,1172.92 C224.73,1174.72 226.37,1175.91 228.15,1175.91 C228.51,1175.91 228.87,1175.86 229.23,1175.77 C231.4,1175.17 232.67,1172.94 232.08,1170.77 M790.37,1168.43 C790.09,1168.43 789.81,1168.47 789.53,1168.54 C787.85,1169 786.86,1170.74 787.31,1172.42 C787.7,1173.83 788.97,1174.75 790.36,1174.75 C790.64,1174.75 790.92,1174.71 791.2,1174.64 C792.88,1174.18 793.87,1172.44 793.41,1170.76 M894.94,1124.4 C893.84,1124.4 892.73,1124.54 891.61,1124.85 C884.91,1126.68 880.96,1133.61 882.79,1140.31 C884.32,1145.91 889.39,1149.59 894.93,1149.59 C896.03,1149.59 897.15,1149.44 898.26,1149.14 C904.97,1147.3 908.92,1140.38 907.08,1133.67 M1365.69,1055.15 C1364.59,1055.15 1363.47,1055.29 1362.36,1055.6 C1355.65,1057.43 1351.7,1064.36 1353.54,1071.06 C1355.07,1076.66 1360.14,1080.34 1365.68,1080.34 C1366.78,1080.34 1367.89,1080.19 1369.01,1079.89 C1375.71,1078.05 1379.66,1071.13 1377.83,1064.42 M271.11,1074.04 C270.91,1074.04 270.7,1074.06 270.5,1074.12 C269.28,1074.45 268.56,1075.71 268.9,1076.94 C269.17,1077.95 270.1,1078.62 271.11,1078.62 C271.31,1078.62 271.51,1078.6 271.71,1078.54 C272.93,1078.21 273.65,1076.95 273.32,1075.73 M1083.61,1067.2 C1083.33,1067.2 1083.05,1067.24 1082.77,1067.31 C1081.09,1067.77 1080.1,1069.51 1080.56,1071.2 C1080.94,1072.6 1082.22,1073.52 1083.61,1073.52 C1083.88,1073.52 1084.16,1073.49 1084.44,1073.41 C1086.12,1072.95 1087.11,1071.21 1086.65,1069.53 M493.23,1043.79 C492.87,1043.79 492.51,1043.84 492.15,1043.94 C489.98,1044.53 488.71,1046.77 489.3,1048.93 C489.8,1050.74 491.43,1051.93 493.22,1051.93 C493.58,1051.93 493.94,1051.88 494.3,1051.78 C496.46,1051.19 497.74,1048.95 497.15,1046.79 M1248.36,1034.73 C1247.87,1034.73 1247.37,1034.8 1246.87,1034.93 C1243.89,1035.75 1242.13,1038.83 1242.95,1041.82 C1243.63,1044.31 1245.89,1045.94 1248.35,1045.94 C1248.84,1045.94 1249.34,1045.88 1249.83,1045.74 C1252.82,1044.93 1254.57,1041.84 1253.76,1038.86 M408.06,1018.82 C407.27,1018.82 406.45,1018.93 405.65,1019.15 C400.78,1020.48 397.91,1025.51 399.24,1030.38 C400.35,1034.44 404.03,1037.11 408.05,1037.11 C408.85,1037.11 409.66,1037 410.47,1036.78 C415.34,1035.45 418.21,1030.42 416.87,1025.55 M612.81,1023.77 C612.61,1023.77 612.41,1023.8 612.2,1023.85 C610.98,1024.19 610.26,1025.45 610.6,1026.67 C610.88,1027.69 611.8,1028.36 612.81,1028.36 C613.01,1028.36 613.21,1028.33 613.41,1028.28 C614.64,1027.94 615.35,1026.68 615.02,1025.46 M186.32,1014.78 C185.96,1014.78 185.6,1014.83 185.24,1014.93 C183.08,1015.52 181.8,1017.75 182.39,1019.92 C182.89,1021.73 184.52,1022.92 186.31,1022.92 C186.67,1022.92 187.03,1022.87 187.39,1022.77 C189.56,1022.18 190.83,1019.94 190.24,1017.78 M749.76,968.56 C748.97,968.56 748.15,968.66 747.35,968.88 C742.48,970.22 739.61,975.24 740.94,980.11 C742.05,984.17 745.74,986.84 749.75,986.84 C750.55,986.84 751.36,986.74 752.17,986.52 C757.04,985.19 759.91,980.16 758.58,975.29 M109.68,941.06 C109.33,941.06 108.97,941.11 108.61,941.21 C106.44,941.8 105.17,944.04 105.76,946.21 C106.25,948.01 107.89,949.2 109.68,949.2 C110.03,949.2 110.4,949.15 110.75,949.06 C112.92,948.46 114.2,946.23 113.6,944.06 M229.27,921.04 C229.07,921.04 228.86,921.07 228.66,921.13 C227.44,921.46 226.72,922.72 227.05,923.94 C227.33,924.96 228.26,925.63 229.26,925.63 C229.46,925.63 229.67,925.61 229.87,925.55 C231.09,925.22 231.81,923.95 231.48,922.73 M451.39,890.8 C451.03,890.8 450.67,890.84 450.31,890.94 C448.14,891.53 446.87,893.77 447.46,895.94 C447.95,897.75 449.59,898.93 451.38,898.93 C451.74,898.93 452.1,898.89 452.46,898.79 C454.62,898.2 455.9,895.96 455.31,893.79 M1085.67,883.24 C1085.47,883.24 1085.26,883.27 1085.06,883.32 C1083.84,883.66 1083.12,884.92 1083.45,886.14 C1083.73,887.16 1084.66,887.83 1085.67,887.83 C1085.87,887.83 1086.07,887.8 1086.27,887.75 C1087.49,887.41 1088.21,886.15 1087.88,884.93 M366.22,865.83 C365.42,865.83 364.61,865.94 363.8,866.16 C358.94,867.49 356.07,872.51 357.4,877.38 C358.51,881.45 362.19,884.12 366.21,884.12 C367.01,884.12 367.82,884.01 368.63,883.79 C373.5,882.46 376.36,877.43 375.03,872.56 M33.05,867.35 C32.69,867.35 32.33,867.39 31.97,867.49 C29.81,868.08 28.53,870.32 29.12,872.49 C29.62,874.3 31.26,875.48 33.04,875.48 C33.4,875.48 33.76,875.44 34.12,875.34 C36.29,874.75 37.56,872.51 36.97,870.34 M570.97,870.78 C570.77,870.78 570.56,870.8 570.36,870.86 C569.14,871.19 568.42,872.46 568.75,873.68 C569.03,874.7 569.96,875.37 570.97,875.37 C571.17,875.37 571.37,875.34 571.57,875.28 C572.79,874.95 573.51,873.69 573.18,872.47 M1208.45,846.34 C1208.25,846.34 1208.05,846.37 1207.85,846.42 C1206.63,846.75 1205.91,848.02 1206.24,849.24 C1206.52,850.26 1207.44,850.93 1208.45,850.93 C1208.65,850.93 1208.85,850.9 1209.06,850.84 C1210.28,850.51 1211,849.25 1210.67,848.03 M137.29,830.44 C136.5,830.44 135.68,830.55 134.88,830.77 C130.01,832.1 127.14,837.13 128.47,842 C129.58,846.06 133.27,848.73 137.28,848.73 C138.08,848.73 138.89,848.62 139.7,848.4 C144.57,847.07 147.44,842.04 146.11,837.17 M1042.46,841.68 C1042.26,841.68 1042.06,841.71 1041.86,841.76 C1040.63,842.09 1039.91,843.36 1040.25,844.58 C1040.53,845.6 1041.45,846.27 1042.46,846.27 C1042.66,846.27 1042.86,846.24 1043.07,846.18 C1044.29,845.85 1045.01,844.59 1044.67,843.37 M1293.3,825.31 C1292.5,825.31 1291.69,825.41 1290.88,825.63 C1286.02,826.97 1283.15,831.99 1284.48,836.86 C1285.59,840.92 1289.27,843.59 1293.29,843.59 C1294.09,843.59 1294.9,843.49 1295.71,843.27 C1300.58,841.94 1303.44,836.91 1302.11,832.04 M707.92,815.57 C707.12,815.57 706.31,815.67 705.51,815.89 C700.64,817.22 697.77,822.25 699.1,827.12 C700.21,831.18 703.89,833.85 707.91,833.85 C708.71,833.85 709.52,833.74 710.33,833.52 C715.2,832.19 718.06,827.16 716.73,822.3 M388.12,827.77 C387.92,827.77 387.72,827.79 387.52,827.85 C386.3,828.18 385.58,829.45 385.91,830.67 C386.19,831.69 387.12,832.36 388.12,832.36 C388.32,832.36 388.53,832.33 388.73,832.27 C389.95,831.94 390.67,830.68 390.34,829.46 M222.13,823.11 C221.93,823.11 221.73,823.14 221.53,823.19 C220.3,823.52 219.58,824.78 219.92,826.01 C220.2,827.03 221.12,827.7 222.13,827.7 C222.33,827.7 222.53,827.67 222.74,827.61 C223.96,827.28 224.68,826.02 224.34,824.8 M374.75,817.08 C374.4,817.08 374.03,817.13 373.68,817.23 C371.51,817.82 370.23,820.05 370.83,822.22 C371.32,824.03 372.96,825.22 374.75,825.22 C375.1,825.22 375.46,825.17 375.82,825.07 C377.99,824.48 379.27,822.24 378.67,820.08 M1064.37,789.92 C1063.58,789.92 1062.76,790.03 1061.96,790.25 C1057.09,791.58 1054.22,796.6 1055.55,801.47 C1056.66,805.54 1060.35,808.21 1064.36,808.21 C1065.16,808.21 1065.97,808.1 1066.78,807.88 C1071.65,806.55 1074.52,801.52 1073.18,796.65 M1397.54,798.55 C1397.18,798.55 1396.82,798.6 1396.46,798.7 C1394.3,799.29 1393.02,801.53 1393.61,803.69 C1394.11,805.5 1395.75,806.69 1397.53,806.69 C1397.89,806.69 1398.25,806.64 1398.61,806.54 C1400.78,805.95 1402.05,803.71 1401.46,801.55 M478.99,780.18 C478.2,780.18 477.39,780.28 476.58,780.5 C471.71,781.83 468.84,786.86 470.17,791.73 C471.28,795.79 474.97,798.46 478.98,798.46 C479.78,798.46 480.59,798.36 481.4,798.13 C486.27,796.8 489.14,791.78 487.81,786.91 M1384.16,791.41 C1383.96,791.41 1383.76,791.44 1383.56,791.5 C1382.33,791.83 1381.61,793.09 1381.95,794.31 C1382.23,795.33 1383.15,796 1384.16,796 C1384.36,796 1384.56,795.97 1384.77,795.92 C1385.99,795.58 1386.71,794.32 1386.37,793.1 M344.92,786.21 C344.72,786.21 344.51,786.23 344.31,786.29 C343.09,786.62 342.37,787.88 342.7,789.1 C342.98,790.12 343.91,790.79 344.91,790.79 C345.12,790.79 345.32,790.77 345.52,790.71 C346.74,790.38 347.46,789.12 347.13,787.89 M729.83,777.5 C729.63,777.5 729.42,777.53 729.22,777.58 C728,777.92 727.28,779.18 727.61,780.4 C727.89,781.42 728.82,782.09 729.82,782.09 C730.02,782.09 730.23,782.06 730.43,782.01 C731.65,781.68 732.37,780.41 732.04,779.19 M563.83,772.84 C563.63,772.84 563.43,772.87 563.23,772.92 C562.01,773.26 561.29,774.52 561.62,775.74 C561.9,776.76 562.82,777.43 563.83,777.43 C564.03,777.43 564.23,777.4 564.44,777.35 C565.66,777.01 566.38,775.75 566.04,774.53 M1406.08,739.65 C1405.28,739.65 1404.47,739.76 1403.66,739.98 C1398.79,741.31 1395.92,746.34 1397.25,751.21 C1398.36,755.27 1402.05,757.94 1406.06,757.94 C1406.86,757.94 1407.67,757.83 1408.48,757.61 C1413.35,756.28 1416.22,751.25 1414.89,746.38 M1201.32,748.4 C1201.12,748.4 1200.92,748.43 1200.71,748.49 C1199.49,748.82 1198.77,750.08 1199.11,751.3 C1199.38,752.32 1200.31,752.99 1201.32,752.99 C1201.52,752.99 1201.72,752.97 1201.92,752.91 C1203.15,752.58 1203.87,751.31 1203.53,750.09 M686.62,735.94 C686.42,735.94 686.22,735.97 686.01,736.02 C684.79,736.36 684.07,737.62 684.41,738.84 C684.68,739.86 685.61,740.53 686.62,740.53 C686.82,740.53 687.02,740.5 687.22,740.45 C688.44,740.11 689.16,738.85 688.83,737.63 M1320.9,724.83 C1320.55,724.83 1320.19,724.88 1319.83,724.98 C1317.66,725.57 1316.39,727.81 1316.98,729.98 C1317.47,731.78 1319.11,732.97 1320.9,732.97 C1321.26,732.97 1321.62,732.93 1321.98,732.83 C1324.14,732.23 1325.42,730 1324.83,727.83 M1022.53,636.93 C1021.73,636.93 1020.92,637.03 1020.11,637.25 C1015.25,638.58 1012.38,643.61 1013.71,648.48 C1014.82,652.54 1018.5,655.21 1022.52,655.21 C1023.32,655.21 1024.13,655.11 1024.94,654.88 C1029.81,653.55 1032.68,648.53 1031.34,643.66 M217.93,619.5 C217.66,619.5 217.38,619.53 217.1,619.61 C215.41,620.07 214.42,621.81 214.88,623.49 C215.27,624.89 216.54,625.82 217.93,625.82 C218.21,625.82 218.49,625.78 218.76,625.7 C220.45,625.24 221.44,623.51 220.98,621.82 M1364.23,586.66 C1363.44,586.66 1362.62,586.77 1361.82,586.99 C1356.95,588.32 1354.08,593.34 1355.41,598.21 C1356.52,602.28 1360.2,604.95 1364.22,604.95 C1365.02,604.95 1365.83,604.84 1366.64,604.62 C1371.51,603.29 1374.38,598.26 1373.04,593.39 M1159.48,595.41 C1159.28,595.41 1159.07,595.44 1158.87,595.49 C1157.65,595.83 1156.93,597.09 1157.26,598.31 C1157.54,599.33 1158.47,600 1159.48,600 C1159.68,600 1159.88,599.97 1160.08,599.92 C1161.3,599.58 1162.02,598.32 1161.69,597.1 M523.94,577.83 C523.45,577.83 522.95,577.89 522.45,578.03 C519.47,578.84 517.71,581.93 518.53,584.91 C519.21,587.4 521.47,589.04 523.93,589.04 C524.42,589.04 524.92,588.97 525.41,588.84 C528.4,588.02 530.15,584.94 529.34,581.95 M1279.06,571.84 C1278.71,571.84 1278.35,571.89 1277.99,571.99 C1275.82,572.58 1274.54,574.82 1275.14,576.98 C1275.63,578.79 1277.27,579.98 1279.06,579.98 C1279.41,579.98 1279.78,579.93 1280.13,579.83 C1282.3,579.24 1283.58,577 1282.98,574.84 M406.61,543.43 C405.51,543.43 404.39,543.58 403.28,543.88 C396.57,545.72 392.62,552.64 394.46,559.35 C395.99,564.94 401.06,568.62 406.59,568.62 C407.69,568.62 408.81,568.48 409.92,568.17 C416.63,566.34 420.58,559.41 418.75,552.7 M688.68,550.25 C688.4,550.25 688.12,550.28 687.84,550.36 C686.16,550.82 685.17,552.56 685.63,554.24 C686.01,555.64 687.29,556.57 688.68,556.57 C688.95,556.57 689.23,556.53 689.51,556.45 C691.2,555.99 692.19,554.26 691.73,552.57 M101.12,537.86 C100.63,537.86 100.13,537.93 99.64,538.06 C96.65,538.88 94.9,541.96 95.71,544.94 C96.39,547.43 98.65,549.07 101.11,549.07 C101.6,549.07 102.1,549.01 102.59,548.87 C105.58,548.05 107.34,544.97 106.52,541.99 M877.36,474.18 C876.26,474.18 875.14,474.33 874.03,474.63 C867.32,476.47 863.37,483.39 865.2,490.1 C866.73,495.7 871.81,499.37 877.34,499.37 C878.44,499.37 879.56,499.23 880.67,498.92 C887.38,497.09 891.33,490.16 889.5,483.46 M981.92,449.02 C981.65,449.02 981.37,449.06 981.09,449.13 C979.41,449.59 978.41,451.33 978.87,453.01 C979.26,454.42 980.53,455.34 981.92,455.34 C982.2,455.34 982.48,455.3 982.76,455.23 C984.44,454.77 985.43,453.03 984.97,451.35 M160.29,408.72 C160.01,408.72 159.73,408.76 159.45,408.84 C157.77,409.3 156.78,411.03 157.24,412.72 C157.62,414.12 158.9,415.04 160.28,415.04 C160.56,415.04 160.84,415.01 161.12,414.93 C162.8,414.47 163.79,412.73 163.33,411.05 M1151.08,398.18 C1150.8,398.18 1150.52,398.22 1150.25,398.29 C1148.56,398.75 1147.57,400.49 1148.03,402.17 C1148.42,403.58 1149.69,404.5 1151.08,404.5 C1151.35,404.5 1151.63,404.47 1151.91,404.39 C1153.6,403.93 1154.59,402.19 1154.13,400.51 M922.4,391.76 C922.12,391.76 921.84,391.8 921.56,391.87 C919.88,392.33 918.89,394.07 919.35,395.75 C919.73,397.16 921.01,398.08 922.4,398.08 C922.67,398.08 922.95,398.04 923.23,397.97 C924.91,397.51 925.91,395.77 925.44,394.09 M1267.97,369.21 C1266.87,369.21 1265.75,369.35 1264.64,369.66 C1257.93,371.49 1253.98,378.42 1255.82,385.12 C1257.35,390.72 1262.42,394.4 1267.96,394.4 C1269.06,394.4 1270.17,394.25 1271.29,393.95 C1277.99,392.11 1281.94,385.19 1280.11,378.48 M466.29,367.05 C465.8,367.05 465.31,367.12 464.81,367.25 C461.83,368.07 460.07,371.15 460.88,374.14 C461.57,376.63 463.82,378.26 466.29,378.26 C466.78,378.26 467.27,378.2 467.77,378.06 C470.75,377.25 472.51,374.17 471.69,371.18 M348.97,332.66 C347.87,332.66 346.75,332.8 345.64,333.11 C338.93,334.94 334.98,341.87 336.81,348.58 C338.34,354.17 343.42,357.85 348.95,357.85 C350.05,357.85 351.17,357.7 352.28,357.4 C358.99,355.57 362.94,348.64 361.1,341.93 M631.04,339.47 C630.76,339.47 630.48,339.51 630.2,339.59 C628.52,340.05 627.53,341.79 627.99,343.47 C628.37,344.87 629.64,345.8 631.03,345.8 C631.31,345.8 631.59,345.76 631.87,345.68 C633.55,345.22 634.54,343.48 634.08,341.8 M952.59,320.45 C951.49,320.45 950.37,320.6 949.26,320.9 C942.55,322.74 938.6,329.66 940.43,336.37 C941.96,341.97 947.04,345.64 952.57,345.64 C953.67,345.64 954.79,345.5 955.9,345.2 C962.61,343.36 966.56,336.44 964.73,329.73 M1393.15,322.51 C1392.87,322.51 1392.59,322.55 1392.31,322.62 C1390.63,323.09 1389.64,324.82 1390.1,326.5 C1390.48,327.91 1391.76,328.83 1393.15,328.83 C1393.42,328.83 1393.7,328.8 1393.98,328.72 C1395.66,328.26 1396.65,326.52 1396.19,324.84 M33.58,283.91 C32.48,283.91 31.36,284.05 30.25,284.35 C23.55,286.19 19.59,293.11 21.43,299.82 C22.96,305.42 28.03,309.1 33.57,309.1 C34.67,309.1 35.78,308.95 36.9,308.65 C43.6,306.81 47.56,299.89 45.72,293.18 M819.71,263.41 C818.61,263.41 817.49,263.56 816.38,263.86 C809.68,265.69 805.72,272.62 807.56,279.33 C809.09,284.92 814.16,288.6 819.7,288.6 C820.8,288.6 821.92,288.46 823.03,288.15 C829.74,286.32 833.69,279.39 831.85,272.68 M379.14,280.22 C378.87,280.22 378.58,280.26 378.31,280.33 C376.62,280.8 375.63,282.53 376.09,284.22 C376.48,285.62 377.75,286.54 379.14,286.54 C379.41,286.54 379.69,286.51 379.97,286.43 C381.66,285.97 382.65,284.23 382.19,282.55 M150.46,273.8 C150.18,273.8 149.9,273.84 149.62,273.92 C147.94,274.37 146.95,276.11 147.41,277.8 C147.79,279.2 149.07,280.12 150.46,280.12 C150.73,280.12 151.01,280.09 151.29,280.01 C152.98,279.55 153.97,277.81 153.51,276.13 M360.72,265.5 C360.23,265.5 359.73,265.56 359.24,265.7 C356.25,266.51 354.49,269.6 355.31,272.58 C355.99,275.07 358.25,276.71 360.71,276.71 C361.2,276.71 361.7,276.64 362.19,276.51 C365.18,275.69 366.94,272.61 366.12,269.62 M1141.25,263.26 C1140.98,263.26 1140.7,263.3 1140.42,263.37 C1138.73,263.83 1137.74,265.57 1138.2,267.25 C1138.59,268.66 1139.86,269.58 1141.25,269.58 C1141.52,269.58 1141.81,269.54 1142.08,269.47 C1143.77,269.01 1144.76,267.27 1144.3,265.59 M1306,230.79 C1305.51,230.79 1305.01,230.85 1304.52,230.99 C1301.53,231.81 1299.77,234.89 1300.59,237.87 C1301.27,240.36 1303.53,242 1305.99,242 C1306.48,242 1306.98,241.94 1307.47,241.8 C1310.46,240.98 1312.22,237.9 1311.4,234.92 M504.33,214.66 C503.23,214.66 502.11,214.8 501,215.11 C494.29,216.94 490.34,223.87 492.18,230.57 C493.71,236.17 498.78,239.85 504.31,239.85 C505.41,239.85 506.53,239.7 507.64,239.4 C514.35,237.56 518.3,230.64 516.47,223.93 M319.62,222.96 C319.34,222.96 319.06,223 318.78,223.08 C317.1,223.54 316.11,225.27 316.57,226.96 C316.95,228.36 318.22,229.28 319.61,229.28 C319.89,229.28 320.17,229.25 320.45,229.17 C322.13,228.71 323.12,226.97 322.66,225.29 M849.89,210.97 C849.61,210.97 849.33,211.01 849.05,211.09 C847.37,211.55 846.38,213.28 846.84,214.97 C847.22,216.37 848.5,217.29 849.89,217.29 C850.16,217.29 850.44,217.26 850.72,217.18 C852.4,216.72 853.4,214.98 852.94,213.3 M621.21,204.55 C620.93,204.55 620.65,204.59 620.37,204.67 C618.69,205.13 617.7,206.86 618.16,208.55 C618.54,209.95 619.82,210.87 621.2,210.87 C621.48,210.87 621.76,210.84 622.04,210.76 C623.72,210.3 624.71,208.56 624.25,206.88 M371.11,147.08 C370.05,147.08 368.96,147.22 367.89,147.52 C361.39,149.3 357.57,156 359.34,162.49 C360.83,167.91 365.74,171.47 371.1,171.47 C372.16,171.47 373.24,171.33 374.32,171.04 C380.81,169.26 384.64,162.56 382.86,156.06 M228.16,153.06 C227.8,153.06 227.44,153.11 227.08,153.2 C224.92,153.8 223.64,156.03 224.23,158.2 C224.73,160.01 226.37,161.2 228.15,161.2 C228.51,161.2 228.87,161.15 229.23,161.05 C231.4,160.46 232.67,158.22 232.08,156.06 M790.37,153.71 C790.09,153.71 789.81,153.75 789.53,153.83 C787.85,154.29 786.86,156.03 787.31,157.71 C787.7,159.11 788.97,160.03 790.36,160.03 C790.64,160.03 790.92,160 791.2,159.92 C792.88,159.46 793.87,157.72 793.41,156.04 M894.94,109.68 C893.84,109.68 892.73,109.83 891.61,110.13 C884.91,111.97 880.96,118.89 882.79,125.6 C884.32,131.19 889.39,134.87 894.93,134.87 C896.03,134.87 897.15,134.73 898.26,134.42 C904.97,132.59 908.92,125.66 907.08,118.96 M1365.69,40.43 C1364.59,40.43 1363.47,40.58 1362.36,40.88 C1355.65,42.72 1351.7,49.64 1353.54,56.35 C1355.07,61.95 1360.14,65.62 1365.68,65.62 C1366.78,65.62 1367.89,65.48 1369.01,65.17 C1375.71,63.34 1379.66,56.41 1377.83,49.71" id="path-1"></path>
        <path d="M2.62,5.53 C1.61,5.53 0.68,4.86 0.41,3.84 C0.07,2.62 0.79,1.36 2.01,1.02 C2.22,0.97 2.42,0.94 2.62,0.94 C3.63,0.94 4.55,1.61 4.83,2.63 C5.16,3.85 4.44,5.11 3.22,5.45" id="path-3"></path>
        <path d="M4.15,8.2 C2.37,8.2 0.73,7.01 0.23,5.2 C-0.36,3.03 0.92,0.8 3.08,0.2 C3.44,0.11 3.8,0.06 4.16,0.06 C5.95,0.06 7.59,1.25 8.08,3.06 C8.67,5.22 7.4,7.46 5.23,8.05" id="path-5"></path>
        <path d="M13.57,26.1 C8.03,26.1 2.96,22.42 1.43,16.82 C-0.41,10.11 3.55,3.19 10.25,1.35 C11.36,1.05 12.48,0.91 13.58,0.91 C19.12,0.91 24.19,4.58 25.72,10.18 C27.56,16.89 23.6,23.81 16.9,25.65" id="path-7"></path>
        <path d="M12.95,25.85 C7.42,25.85 2.34,22.17 0.81,16.58 C-1.02,9.87 2.93,2.94 9.64,1.11 C10.75,0.8 11.87,0.66 12.97,0.66 C18.5,0.66 23.57,4.34 25.1,9.93 C26.94,16.64 22.99,23.57 16.28,25.4" id="path-9"></path>
        <path d="M0.78,4.89 C0.78,3.56 0.78,2.25 0.78,0.93 C0.85,1.09 0.9,1.26 0.95,1.43" id="path-11"></path>
        <path d="M6.11,12.07 C3.65,12.07 1.39,10.43 0.71,7.94 C-0.1,4.96 1.65,1.88 4.64,1.06 C5.13,0.93 5.63,0.86 6.12,0.86 C8.58,0.86 10.84,2.5 11.52,4.99 C12.34,7.97 10.58,11.05 7.59,11.87" id="path-13"></path>
        <path d="M3.61,7.28 C2.22,7.28 0.95,6.36 0.57,4.96 C0.11,3.27 1.1,1.54 2.78,1.08 C3.06,1 3.34,0.96 3.62,0.96 C5.01,0.96 6.28,1.89 6.66,3.29 C7.12,4.97 6.13,6.71 4.45,7.17" id="path-15"></path>
        <path d="M3.46,7.12 C2.07,7.12 0.79,6.2 0.41,4.8 C-0.05,3.11 0.94,1.37 2.62,0.92 C2.9,0.84 3.18,0.8 3.46,0.8 C4.85,0.8 6.12,1.72 6.51,3.13 C6.97,4.81 5.98,6.55 4.29,7.01" id="path-17"></path>
        <path d="M4.14,6.54 C2.75,6.54 1.48,5.62 1.09,4.22 C0.63,2.53 1.62,0.8 3.31,0.33 C3.58,0.26 3.87,0.22 4.14,0.22 C5.53,0.22 6.8,1.14 7.19,2.55 C7.65,4.23 6.66,5.97 4.97,6.43" id="path-19"></path>
        <path d="M3.28,7.04 C1.9,7.04 0.62,6.12 0.24,4.72 C-0.22,3.03 0.77,1.3 2.45,0.84 C2.73,0.76 3.01,0.72 3.29,0.72 C4.68,0.72 5.95,1.65 6.33,3.05 C6.79,4.73 5.8,6.47 4.12,6.93" id="path-21"></path>
        <path d="M13.31,25.85 C7.78,25.85 2.71,22.17 1.18,16.57 C-0.66,9.87 3.29,2.94 10,1.11 C11.11,0.8 12.23,0.66 13.33,0.66 C18.86,0.66 23.94,4.33 25.47,9.93 C27.3,16.64 23.35,23.56 16.64,25.4" id="path-23"></path>
        <path d="M12.7,25.6 C7.16,25.6 2.09,21.92 0.56,16.33 C-1.28,9.62 2.68,2.69 9.38,0.86 C10.49,0.56 11.61,0.41 12.71,0.41 C18.25,0.41 23.32,4.09 24.85,9.68 C26.69,16.39 22.74,23.32 16.03,25.15" id="path-25"></path>
        <path d="M5.71,11.71 C3.25,11.71 0.99,10.07 0.31,7.58 C-0.51,4.6 1.25,1.51 4.24,0.7 C4.73,0.56 5.23,0.5 5.72,0.5 C8.18,0.5 10.44,2.13 11.12,4.62 C11.94,7.61 10.18,10.69 7.19,11.51" id="path-27"></path>
        <path d="M6.29,11.26 C3.82,11.26 1.57,9.63 0.88,7.14 C0.07,4.15 1.83,1.07 4.81,0.25 C5.31,0.12 5.8,0.05 6.29,0.05 C8.76,0.05 11.01,1.69 11.69,4.18 C12.51,7.17 10.75,10.25 7.77,11.06" id="path-29"></path>
        <path d="M3.36,7.03 C1.97,7.03 0.7,6.11 0.31,4.71 C-0.14,3.03 0.85,1.29 2.53,0.83 C2.81,0.75 3.09,0.71 3.37,0.71 C4.75,0.71 6.03,1.64 6.41,3.04 C6.87,4.72 5.88,6.46 4.2,6.92" id="path-31"></path>
        <path d="M3.2,6.87 C1.82,6.87 0.54,5.95 0.16,4.55 C-0.3,2.86 0.69,1.13 2.37,0.67 C2.65,0.59 2.93,0.55 3.21,0.55 C4.6,0.55 5.87,1.48 6.25,2.88 C6.71,4.56 5.72,6.3 4.04,6.76" id="path-33"></path>
        <path d="M3.89,7.29 C2.5,7.29 1.22,6.37 0.84,4.97 C0.38,3.28 1.37,1.55 3.05,1.09 C3.33,1.01 3.61,0.97 3.89,0.97 C5.28,0.97 6.55,1.9 6.94,3.3 C7.4,4.98 6.4,6.72 4.72,7.18" id="path-35"></path>
        <path d="M4.03,6.8 C2.64,6.8 1.37,5.87 0.99,4.47 C0.53,2.79 1.52,1.05 3.2,0.59 C3.48,0.51 3.76,0.47 4.04,0.47 C5.43,0.47 6.7,1.4 7.08,2.8 C7.54,4.48 6.55,6.22 4.87,6.68" id="path-37"></path>
        <path d="M12.59,25.62 C7.06,25.62 1.99,21.94 0.46,16.35 C-1.38,9.64 2.57,2.72 9.28,0.88 C10.39,0.58 11.51,0.43 12.61,0.43 C18.14,0.43 23.22,4.11 24.75,9.7 C26.58,16.41 22.63,23.34 15.92,25.17" id="path-39"></path>
        <path d="M3.93,6.82 C2.54,6.82 1.27,5.89 0.88,4.49 C0.42,2.81 1.41,1.07 3.1,0.61 C3.38,0.53 3.66,0.5 3.93,0.5 C5.32,0.5 6.59,1.42 6.98,2.82 C7.44,4.51 6.45,6.24 4.76,6.7" id="path-41"></path>
        <path d="M13.34,25.37 C7.81,25.37 2.73,21.7 1.2,16.1 C-0.63,9.39 3.32,2.47 10.03,0.63 C11.14,0.33 12.26,0.18 13.36,0.18 C18.89,0.18 23.96,3.86 25.5,9.46 C27.33,16.16 23.38,23.09 16.67,24.92" id="path-43"></path>
        <path d="M5.93,12.04 C3.47,12.04 1.21,10.4 0.53,7.91 C-0.29,4.93 1.47,1.84 4.45,1.03 C4.95,0.89 5.45,0.83 5.94,0.83 C8.4,0.83 10.66,2.46 11.34,4.95 C12.15,7.94 10.4,11.02 7.41,11.84" id="path-45"></path>
        <path d="M3.68,6.57 C2.29,6.57 1.01,5.64 0.63,4.24 C0.17,2.56 1.16,0.82 2.84,0.36 C3.12,0.28 3.4,0.25 3.68,0.25 C5.07,0.25 6.34,1.17 6.73,2.57 C7.19,4.26 6.2,5.99 4.51,6.45" id="path-47"></path>
        <path d="M13.1,24.47 C7.74,24.47 2.83,20.91 1.34,15.49 C-0.43,9 3.39,2.3 9.89,0.52 C10.96,0.22 12.05,0.08 13.11,0.08 C18.47,0.08 23.38,3.64 24.86,9.06 C26.64,15.56 22.81,22.26 16.32,24.04" id="path-49"></path>
        <path d="M10.06,18.94 C6.05,18.94 2.36,16.27 1.25,12.21 C-0.08,7.34 2.79,2.31 7.66,0.98 C8.47,0.76 9.28,0.65 10.08,0.65 C14.09,0.65 17.77,3.32 18.89,7.38 C20.22,12.25 17.35,17.28 12.48,18.61" id="path-51"></path>
        <path d="M4.9,8.97 C3.11,8.97 1.47,7.78 0.98,5.98 C0.39,3.81 1.66,1.57 3.83,0.98 C4.19,0.88 4.55,0.83 4.9,0.83 C6.69,0.83 8.33,2.02 8.83,3.83 C9.42,6 8.14,8.23 5.98,8.83" id="path-53"></path>
        <path d="M9.22,18.95 C5.2,18.95 1.52,16.28 0.41,12.21 C-0.92,7.34 1.95,2.32 6.82,0.99 C7.62,0.77 8.44,0.66 9.23,0.66 C13.25,0.66 16.93,3.33 18.04,7.39 C19.38,12.26 16.51,17.29 11.64,18.62" id="path-55"></path>
        <path d="M9.52,19.21 C5.5,19.21 1.82,16.54 0.71,12.48 C-0.62,7.61 2.25,2.58 7.11,1.25 C7.92,1.03 8.73,0.93 9.53,0.93 C13.55,0.93 17.23,3.6 18.34,7.66 C19.68,12.53 16.81,17.55 11.94,18.88" id="path-57"></path>
        <path d="M5.06,8.98 C3.27,8.98 1.63,7.79 1.14,5.98 C0.54,3.82 1.82,1.58 3.99,0.99 C4.35,0.89 4.71,0.84 5.06,0.84 C6.85,0.84 8.49,2.03 8.98,3.84 C9.58,6 8.3,8.24 6.13,8.83" id="path-59"></path>
        <path d="M2.48,5 C1.47,5 0.54,4.33 0.26,3.31 C-0.07,2.09 0.65,0.83 1.87,0.49 C2.07,0.44 2.28,0.41 2.48,0.41 C3.49,0.41 4.41,1.08 4.69,2.1 C5.02,3.32 4.3,4.58 3.08,4.92" id="path-61"></path>
        <path d="M5.54,20.7 C3.49,19.09 1.92,16.83 1.18,14.12 C-0.19,9.09 1.69,3.93 5.54,0.9" id="path-63"></path>
        <path d="M4.15,6.83 C2.76,6.83 1.48,5.91 1.1,4.5 C0.64,2.82 1.63,1.09 3.31,0.62 C3.59,0.55 3.87,0.51 4.15,0.51 C5.54,0.51 6.81,1.43 7.19,2.84 C7.65,4.52 6.66,6.26 4.98,6.72" id="path-65"></path>
        <path d="M12.96,25.4 C7.42,25.4 2.35,21.72 0.82,16.12 C-1.02,9.42 2.93,2.49 9.64,0.66 C10.75,0.35 11.87,0.21 12.97,0.21 C18.51,0.21 23.58,3.89 25.11,9.48 C26.94,16.19 22.99,23.11 16.29,24.95" id="path-67"></path>
        <path d="M13.57,25.64 C8.04,25.64 2.96,21.97 1.43,16.37 C-0.4,9.66 3.55,2.74 10.26,0.9 C11.37,0.6 12.49,0.45 13.59,0.45 C19.12,0.45 24.2,4.13 25.73,9.73 C27.56,16.44 23.61,23.36 16.9,25.2" id="path-69"></path>
        <path d="M6.57,11.56 C4.1,11.56 1.85,9.92 1.17,7.43 C0.35,4.44 2.11,1.36 5.09,0.55 C5.59,0.41 6.08,0.35 6.57,0.35 C8.08,0.35 9.51,0.96 10.54,2 L10.54,9.9 C9.88,10.58 9.03,11.09 8.05,11.36" id="path-71"></path>
        <path d="M5.99,12 C3.53,12 1.27,10.36 0.59,7.87 C-0.23,4.89 1.53,1.81 4.52,0.99 C5.01,0.85 5.51,0.79 6,0.79 C8.46,0.79 10.72,2.43 11.4,4.92 C12.22,7.9 10.46,10.98 7.47,11.8" id="path-73"></path>
        <path d="M3.92,6.34 C2.53,6.34 1.26,5.42 0.87,4.01 C0.41,2.33 1.41,0.59 3.09,0.13 C3.37,0.06 3.65,0.02 3.92,0.02 C5.31,0.02 6.59,0.94 6.97,2.35 C7.43,4.03 6.44,5.77 4.76,6.23" id="path-75"></path>
        <path d="M4.08,6.5 C2.69,6.5 1.42,5.58 1.03,4.17 C0.57,2.49 1.56,0.75 3.25,0.29 C3.52,0.22 3.8,0.18 4.08,0.18 C5.47,0.18 6.74,1.1 7.13,2.51 C7.59,4.19 6.6,5.93 4.91,6.39" id="path-77"></path>
        <path d="M3.4,7.08 C2.01,7.08 0.73,6.16 0.35,4.75 C-0.11,3.07 0.88,1.33 2.56,0.87 C2.84,0.8 3.12,0.76 3.4,0.76 C4.79,0.76 6.06,1.68 6.44,3.09 C6.91,4.77 5.91,6.51 4.23,6.97" id="path-79"></path>
        <path d="M3.25,6.58 C1.86,6.58 0.59,5.66 0.2,4.25 C-0.26,2.57 0.73,0.83 2.42,0.37 C2.7,0.3 2.98,0.26 3.25,0.26 C4.64,0.26 5.91,1.18 6.3,2.59 C6.76,4.27 5.77,6.01 4.08,6.47" id="path-81"></path>
        <path d="M12.68,25.62 C7.14,25.62 2.07,21.95 0.54,16.35 C-1.3,9.64 2.65,2.72 9.36,0.88 C10.47,0.58 11.59,0.43 12.69,0.43 C18.23,0.43 23.3,4.11 24.83,9.71 C26.66,16.41 22.71,23.34 16.01,25.17" id="path-83"></path>
        <path d="M12.93,25.87 C7.39,25.87 2.32,22.19 0.79,16.6 C-1.04,9.89 2.91,2.97 9.61,1.13 C10.73,0.83 11.84,0.68 12.94,0.68 C18.48,0.68 23.55,4.36 25.08,9.96 C26.92,16.66 22.97,23.59 16.26,25.42" id="path-85"></path>
        <path d="M4.35,6.23 C2.66,6.23 1.08,5.46 0.02,4.18 C3.39,2.89 6.7,1.64 9.95,0.42 C10.05,2.96 8.39,5.33 5.83,6.03" id="path-87"></path>
        <polygon id="path-89" points="0.4 0.77 2229.9213 0.77 2229.9213 3903 0.4 3903"></polygon>
    </defs>
    <g id="home_draw" stroke="none" stroke-width="1" fill="none" fill-rule="evenodd">
        <rect fill="#00A9D1" x="0" y="0" width="1410" height="795"></rect>
        <g id="Group-6" transform="translate(-1.000000, -36.000000)">
            <polygon id="Fill-1" fill="#181917" points="8 2500 1412 2500 1412 32 8 32"></polygon>
            <polygon id="Fill-3" fill="#D07F3B" points="8 75 1412 75 1412 0 8 0"></polygon>
            <polygon id="Fill-4" fill="#5F4737" points="0.78 174.12 1415.54 174.12 1415.54 0.76 0.78 0.76"></polygon>
            <path d="M0.78,174.12 L1415.54,174.12 L1415.54,27.34 C1235.7,-6.51 1178.53,107.09 1044.92,132.27 C907.42,158.17 857.61,88.43 694.1,42.28 C530.58,-3.87 425.21,50.57 274.02,81.46 C122.82,112.34 103,0.76 103,0.76 L0.78,0.76 L0.78,174.12" id="Fill-5" fill="#4A372A"></path>
        </g>
        <g id="Group-65" transform="translate(-1.000000, 53.000000)">
            <mask id="mask-2" fill="white">
                <use xlink:href="#path-1"></use>
            </mask>
            <g id="Clip-8"></g>
            <polyline id="Fill-7" fill="#292119" mask="url(#mask-2)" points="1408.849 -97.747 -151.338 10.6 -143.325 125.995 1416.863 17.649"></polyline>
            <polyline id="Fill-9" fill="#292018" mask="url(#mask-2)" points="1416.863 17.649 -143.325 125.995 -138.743 191.968 1421.444 83.622"></polyline>
            <polyline id="Fill-10" fill="#282018" mask="url(#mask-2)" points="1421.444 83.622 -138.743 191.968 -135.689 235.95 1424.499 127.604"></polyline>
            <polyline id="Fill-11" fill="#282018" mask="url(#mask-2)" points="1424.499 127.604 -135.689 235.95 -134.162 257.941 1426.026 149.594"></polyline>
            <polyline id="Fill-12" fill="#282018" mask="url(#mask-2)" points="1426.026 149.594 -134.162 257.941 -132.635 279.932 1427.553 171.585"></polyline>
            <polyline id="Fill-13" fill="#282018" mask="url(#mask-2)" points="1427.553 171.585 -132.635 279.932 -131.107 301.923 1429.08 193.576"></polyline>
            <polyline id="Fill-14" fill="#271F18" mask="url(#mask-2)" points="1429.08 193.576 -131.107 301.923 -129.58 323.914 1430.607 215.567"></polyline>
            <polyline id="Fill-15" fill="#271F18" mask="url(#mask-2)" points="1430.607 215.567 -129.58 323.914 -128.053 345.904 1432.134 237.558"></polyline>
            <polyline id="Fill-16" fill="#271F18" mask="url(#mask-2)" points="1432.134 237.558 -128.053 345.904 -126.526 367.896 1433.662 259.549"></polyline>
            <polyline id="Fill-17" fill="#271F18" mask="url(#mask-2)" points="1433.662 259.549 -126.526 367.896 -124.999 389.886 1435.189 281.54"></polyline>
            <polyline id="Fill-18" fill="#261F18" mask="url(#mask-2)" points="1435.189 281.54 -124.999 389.886 -121.945 433.868 1438.243 325.522"></polyline>
            <polyline id="Fill-19" fill="#261F18" mask="url(#mask-2)" points="1438.243 325.522 -121.945 433.868 -120.417 455.859 1439.77 347.513"></polyline>
            <polyline id="Fill-20" fill="#261F18" mask="url(#mask-2)" points="1439.77 347.513 -120.417 455.859 -118.509 483.348 1441.679 375.001"></polyline>
            <polyline id="Fill-21" fill="#261F18" mask="url(#mask-2)" points="1441.679 375.001 -118.509 483.348 -116.981 505.339 1443.206 396.992"></polyline>
            <polyline id="Fill-22" fill="#251F18" mask="url(#mask-2)" points="1443.206 396.992 -116.981 505.339 -115.454 527.33 1444.733 418.983"></polyline>
            <polyline id="Fill-23" fill="#251F18" mask="url(#mask-2)" points="1444.733 418.983 -115.454 527.33 -113.927 549.321 1446.26 440.974"></polyline>
            <polyline id="Fill-24" fill="#251E18" mask="url(#mask-2)" points="1446.26 440.974 -113.927 549.321 -112.4 571.312 1447.788 462.965"></polyline>
            <polyline id="Fill-25" fill="#241E18" mask="url(#mask-2)" points="1447.788 462.965 -112.4 571.312 -109.346 615.293 1450.842 506.947"></polyline>
            <polyline id="Fill-26" fill="#241E18" mask="url(#mask-2)" points="1450.842 506.947 -109.346 615.293 -107.818 637.284 1452.369 528.938"></polyline>
            <polyline id="Fill-27" fill="#241E18" mask="url(#mask-2)" points="1452.369 528.938 -107.818 637.284 -106.291 659.275 1453.896 550.929"></polyline>
            <polyline id="Fill-28" fill="#241E18" mask="url(#mask-2)" points="1453.896 550.929 -106.291 659.275 -104.764 681.266 1455.423 572.92"></polyline>
            <polyline id="Fill-29" fill="#231E18" mask="url(#mask-2)" points="1455.423 572.92 -104.764 681.266 -103.237 703.257 1456.951 594.911"></polyline>
            <polyline id="Fill-30" fill="#231E18" mask="url(#mask-2)" points="1456.951 594.911 -103.237 703.257 -101.71 725.248 1458.478 616.902"></polyline>
            <polyline id="Fill-31" fill="#231E18" mask="url(#mask-2)" points="1458.478 616.902 -101.71 725.248 -100.183 747.239 1460.005 638.893"></polyline>
            <polyline id="Fill-32" fill="#231E18" mask="url(#mask-2)" points="1460.005 638.893 -100.183 747.239 -98.656 769.23 1461.532 660.884"></polyline>
            <polyline id="Fill-33" fill="#231D18" mask="url(#mask-2)" points="1461.532 660.884 -98.656 769.23 -97.128 791.221 1463.059 682.875"></polyline>
            <polyline id="Fill-34" fill="#221D18" mask="url(#mask-2)" points="1463.059 682.875 -97.128 791.221 -95.601 813.212 1464.586 704.866"></polyline>
            <polyline id="Fill-35" fill="#221D18" mask="url(#mask-2)" points="1464.586 704.866 -95.601 813.212 -93.692 840.701 1466.495 732.354"></polyline>
            <polyline id="Fill-36" fill="#221D18" mask="url(#mask-2)" points="1466.495 732.354 -93.692 840.701 -92.165 862.692 1468.022 754.345"></polyline>
        </g>
        <g id="Group-75" transform="translate(-48.000000, -735.000000)"></g>
        <g id="Group-132" transform="translate(683.000000, 788.000000)">
            <mask id="mask-4" fill="white">
                <use xlink:href="#path-3"></use>
            </mask>
            <g id="Clip-130"></g>
            <polyline id="Fill-129" fill="#1A1713" mask="url(#mask-4)" points="4.591 -3.867 -0.391 -3.521 -0.009 1.977 4.972 1.631"></polyline>
            <polyline id="Fill-131" fill="#1A1713" mask="url(#mask-4)" points="4.972 1.631 -0.009 1.977 0.373 7.474 5.354 7.128"></polyline>
        </g>
        <g id="Group-237" transform="translate(223.000000, 206.000000)">
            <mask id="mask-6" fill="white">
                <use xlink:href="#path-5"></use>
            </mask>
            <g id="Clip-236"></g>
            <polyline id="Fill-235" fill="#1E1914" mask="url(#mask-6)" points="7.965 -3.348 -0.72 -2.745 0.425 13.748 9.11 13.145"></polyline>
        </g>
        <g id="Group-240" transform="translate(19.000000, 336.000000)">
            <mask id="mask-8" fill="white">
                <use xlink:href="#path-7"></use>
            </mask>
            <g id="Clip-239"></g>
            <polyline id="Fill-238" fill="#1E1813" mask="url(#mask-8)" points="25.835 -4.414 -0.994 -2.551 1.297 30.436 28.126 28.573"></polyline>
        </g>
        <g id="Group-244" transform="translate(335.000000, 385.000000)">
            <mask id="mask-10" fill="white">
                <use xlink:href="#path-9"></use>
            </mask>
            <g id="Clip-242"></g>
            <polyline id="Fill-241" fill="#1D1914" mask="url(#mask-10)" points="25.278 -3.504 -1.551 -1.641 0.358 25.848 27.187 23.985"></polyline>
            <polyline id="Fill-243" fill="#1D1813" mask="url(#mask-10)" points="27.187 23.985 0.358 25.848 0.74 31.345 27.569 29.482"></polyline>
        </g>
        <g id="Group-251" transform="translate(-1.000000, 492.000000)">
            <mask id="mask-12" fill="white">
                <use xlink:href="#path-11"></use>
            </mask>
            <g id="Clip-250"></g>
            <polyline id="Fill-249" fill="#1D1813" mask="url(#mask-12)" points="0.96 -2.618 0.2 -2.566 0.964 8.43 1.724 8.377"></polyline>
        </g>
        <g id="Group-254" transform="translate(94.000000, 590.000000)">
            <mask id="mask-14" fill="white">
                <use xlink:href="#path-13"></use>
            </mask>
            <g id="Clip-253"></g>
            <polyline id="Fill-252" fill="#1C1813" mask="url(#mask-14)" points="11.54 -2.99 -0.474 -2.155 0.671 14.338 12.685 13.504"></polyline>
        </g>
        <g id="Group-258" transform="translate(315.000000, 275.000000)">
            <mask id="mask-16" fill="white">
                <use xlink:href="#path-15"></use>
            </mask>
            <g id="Clip-256"></g>
            <polyline id="Fill-255" fill="#1E1914" mask="url(#mask-16)" points="6.648 -1.306 -0.129 -0.836 0.253 4.662 7.03 4.191"></polyline>
            <polyline id="Fill-257" fill="#1E1914" mask="url(#mask-16)" points="7.03 4.191 0.253 4.662 0.635 10.16 7.412 9.689"></polyline>
        </g>
        <g id="Group-261" transform="translate(146.000000, 326.000000)">
            <mask id="mask-18" fill="white">
                <use xlink:href="#path-17"></use>
            </mask>
            <g id="Clip-260"></g>
            <polyline id="Fill-259" fill="#1E1813" mask="url(#mask-18)" points="6.417 -1.885 -0.361 -1.414 0.403 9.582 7.18 9.111"></polyline>
        </g>
        <g id="Group-264" transform="translate(374.000000, 333.000000)">
            <mask id="mask-20" fill="white">
                <use xlink:href="#path-19"></use>
            </mask>
            <g id="Clip-263"></g>
            <polyline id="Fill-262" fill="#1E1813" mask="url(#mask-20)" points="7.126 -2.67 0.349 -2.199 1.113 8.796 7.89 8.325"></polyline>
        </g>
        <g id="Group-267" transform="translate(156.000000, 461.000000)">
            <mask id="mask-22" fill="white">
                <use xlink:href="#path-21"></use>
            </mask>
            <g id="Clip-266"></g>
            <polyline id="Fill-265" fill="#1D1813" mask="url(#mask-22)" points="6.05 -4.972 -0.727 -4.501 0.418 11.992 7.196 11.522"></polyline>
        </g>
        <g id="Group-272" transform="translate(490.000000, 267.000000)">
            <mask id="mask-24" fill="white">
                <use xlink:href="#path-23"></use>
            </mask>
            <g id="Clip-269"></g>
            <polyline id="Fill-268" fill="#1E1914" mask="url(#mask-24)" points="25.449 -6.765 -1.5 -4.894 -1.118 0.604 25.83 -1.267"></polyline>
            <polyline id="Fill-270" fill="#1E1914" mask="url(#mask-24)" points="25.83 -1.267 -1.118 0.604 0.409 22.595 27.358 20.724"></polyline>
            <polyline id="Fill-271" fill="#1E1813" mask="url(#mask-24)" points="27.358 20.724 0.409 22.595 0.791 28.093 27.739 26.222"></polyline>
        </g>
        <g id="Group-276" transform="translate(806.000000, 316.000000)">
            <mask id="mask-26" fill="white">
                <use xlink:href="#path-25"></use>
            </mask>
            <g id="Clip-274"></g>
            <polyline id="Fill-273" fill="#1E1914" mask="url(#mask-26)" points="24.891 -5.855 -1.938 -3.992 -0.41 17.999 26.418 16.136"></polyline>
            <polyline id="Fill-275" fill="#1D1914" mask="url(#mask-26)" points="26.418 16.136 -0.41 17.999 0.353 28.994 27.182 27.131"></polyline>
        </g>
        <g id="Group-279" transform="translate(354.000000, 318.000000)">
            <mask id="mask-28" fill="white">
                <use xlink:href="#path-27"></use>
            </mask>
            <g id="Clip-278"></g>
            <polyline id="Fill-277" fill="#1E1813" mask="url(#mask-28)" points="11.109 -3.131 -0.896 -2.297 0.249 14.196 12.255 13.363"></polyline>
        </g>
        <g id="Group-283" transform="translate(459.000000, 420.000000)">
            <mask id="mask-30" fill="white">
                <use xlink:href="#path-29"></use>
            </mask>
            <g id="Clip-281"></g>
            <polyline id="Fill-280" fill="#1D1813" mask="url(#mask-30)" points="11.822 -1.987 -0.183 -1.153 0.198 4.345 12.204 3.511"></polyline>
            <polyline id="Fill-282" fill="#1D1813" mask="url(#mask-30)" points="12.204 3.511 0.198 4.345 0.962 15.34 12.968 14.506"></polyline>
        </g>
        <g id="Group-286" transform="translate(786.000000, 206.000000)">
            <mask id="mask-32" fill="white">
                <use xlink:href="#path-31"></use>
            </mask>
            <g id="Clip-285"></g>
            <polyline id="Fill-284" fill="#1E1914" mask="url(#mask-32)" points="6.262 -3.658 -0.516 -3.187 0.248 7.809 7.025 7.338"></polyline>
        </g>
        <g id="Group-290" transform="translate(617.000000, 257.000000)">
            <mask id="mask-34" fill="white">
                <use xlink:href="#path-33"></use>
            </mask>
            <g id="Clip-288"></g>
            <polyline id="Fill-287" fill="#1E1914" mask="url(#mask-34)" points="6.03 -4.236 -0.739 -3.766 -0.357 1.732 6.412 1.262"></polyline>
            <polyline id="Fill-289" fill="#1E1914" mask="url(#mask-34)" points="6.412 1.262 -0.357 1.732 0.406 12.728 7.175 12.258"></polyline>
        </g>
        <g id="Group-294" transform="translate(845.000000, 263.000000)">
            <mask id="mask-36" fill="white">
                <use xlink:href="#path-35"></use>
            </mask>
            <g id="Clip-292"></g>
            <polyline id="Fill-291" fill="#1E1914" mask="url(#mask-36)" points="6.74 -4.021 -0.038 -3.551 0.344 1.947 7.122 1.477"></polyline>
            <polyline id="Fill-293" fill="#1E1813" mask="url(#mask-36)" points="7.122 1.477 0.344 1.947 1.108 12.942 7.885 12.472"></polyline>
        </g>
        <g id="Group-297" transform="translate(626.000000, 392.000000)">
            <mask id="mask-38" fill="white">
                <use xlink:href="#path-37"></use>
            </mask>
            <g id="Clip-296"></g>
            <polyline id="Fill-295" fill="#1D1813" mask="url(#mask-38)" points="7.046 -1.825 0.268 -1.354 1.032 9.641 7.809 9.17"></polyline>
        </g>
        <g id="Group-301" transform="translate(393.000000, 596.000000)">
            <mask id="mask-40" fill="white">
                <use xlink:href="#path-39"></use>
            </mask>
            <g id="Clip-299"></g>
            <polyline id="Fill-298" fill="#1C1813" mask="url(#mask-40)" points="25.039 -3.07 -1.909 -1.198 -0.764 15.295 26.185 13.424"></polyline>
            <polyline id="Fill-300" fill="#1C1813" mask="url(#mask-40)" points="26.185 13.424 -0.764 15.295 0.381 31.788 27.33 29.917"></polyline>
        </g>
        <g id="Group-304" transform="translate(213.000000, 672.000000)">
            <mask id="mask-42" fill="white">
                <use xlink:href="#path-41"></use>
            </mask>
            <g id="Clip-303"></g>
            <polyline id="Fill-302" fill="#1B1813" mask="url(#mask-42)" points="6.812 -4.537 -0.077 -4.059 1.069 12.434 7.957 11.956"></polyline>
        </g>
        <g id="Group-308" transform="translate(863.000000, 527.000000)">
            <mask id="mask-44" fill="white">
                <use xlink:href="#path-43"></use>
            </mask>
            <g id="Clip-306"></g>
            <polyline id="Fill-305" fill="#1C1813" mask="url(#mask-44)" points="25.653 -5.421 -1.296 -3.549 -0.532 7.446 26.416 5.575"></polyline>
            <polyline id="Fill-307" fill="#1C1813" mask="url(#mask-44)" points="26.416 5.575 -0.532 7.446 0.995 29.437 27.943 27.566"></polyline>
        </g>
        <g id="Group-311" transform="translate(517.000000, 630.000000)">
            <mask id="mask-46" fill="white">
                <use xlink:href="#path-45"></use>
            </mask>
            <g id="Clip-310"></g>
            <polyline id="Fill-309" fill="#1C1813" mask="url(#mask-46)" points="11.472 -0.545 -0.542 0.29 0.604 16.783 12.618 15.948"></polyline>
        </g>
        <g id="Group-314" transform="translate(684.000000, 603.000000)">
            <mask id="mask-48" fill="white">
                <use xlink:href="#path-47"></use>
            </mask>
            <g id="Clip-313"></g>
            <polyline id="Fill-312" fill="#1C1813" mask="url(#mask-48)" points="6.807 -1.391 -0.082 -0.912 0.682 10.083 7.571 9.605"></polyline>
        </g>
        <g id="Group-318" transform="translate(357.000000, 200.000000)">
            <mask id="mask-50" fill="white">
                <use xlink:href="#path-49"></use>
            </mask>
            <g id="Clip-316"></g>
            <polyline id="Fill-315" fill="#1E1914" mask="url(#mask-50)" points="25.116 -2.321 -0.819 -0.52 -0.055 10.476 25.88 8.675"></polyline>
            <polyline id="Fill-317" fill="#1E1913" mask="url(#mask-50)" points="25.88 8.675 -0.055 10.476 1.09 26.969 27.025 25.168"></polyline>
        </g>
        <g id="Group-322" transform="translate(-80.000000, 202.000000)"></g>
        <g id="Group-326" transform="translate(1395.000000, 792.000000)">
            <mask id="mask-52" fill="white">
                <use xlink:href="#path-51"></use>
            </mask>
            <g id="Clip-324"></g>
            <polyline id="Fill-323" fill="#1A1714" mask="url(#mask-52)" points="19.025 -3.071 -0.516 -1.714 1.012 20.277 20.552 18.919"></polyline>
        </g>
        <g id="Group-353" transform="translate(1315.000000, 777.000000)">
            <mask id="mask-54" fill="white">
                <use xlink:href="#path-53"></use>
            </mask>
            <g id="Clip-352"></g>
            <polyline id="Fill-351" fill="#1A1713" mask="url(#mask-54)" points="8.719 -3.897 -0.093 -3.285 1.052 13.208 9.865 12.596"></polyline>
        </g>
        <g id="Group-369" transform="translate(1354.000000, 639.000000)">
            <mask id="mask-56" fill="white">
                <use xlink:href="#path-55"></use>
            </mask>
            <g id="Clip-368"></g>
            <polyline id="Fill-367" fill="#1B1814" mask="url(#mask-56)" points="18.23 -1.848 -1.311 -0.491 0.217 21.5 19.757 20.143"></polyline>
        </g>
        <g id="Group-377" transform="translate(1012.000000, 689.000000)">
            <mask id="mask-58" fill="white">
                <use xlink:href="#path-57"></use>
            </mask>
            <g id="Clip-375"></g>
            <polyline id="Fill-374" fill="#1B1814" mask="url(#mask-58)" points="18.664 -0.507 -0.877 0.85 -0.113 11.846 19.427 10.489"></polyline>
            <polyline id="Fill-376" fill="#1B1713" mask="url(#mask-58)" points="19.427 10.489 -0.113 11.846 0.65 22.841 20.191 21.484"></polyline>
        </g>
        <g id="Group-380" transform="translate(1273.000000, 624.000000)">
            <mask id="mask-60" fill="white">
                <use xlink:href="#path-59"></use>
            </mask>
            <g id="Clip-379"></g>
            <polyline id="Fill-378" fill="#1B1813" mask="url(#mask-60)" points="8.916 -2.673 0.231 -2.07 1.377 14.423 10.062 13.82"></polyline>
        </g>
        <g id="Group-383" transform="translate(1156.000000, 648.000000)">
            <mask id="mask-62" fill="white">
                <use xlink:href="#path-61"></use>
            </mask>
            <g id="Clip-382"></g>
            <polyline id="Fill-381" fill="#1B1814" mask="url(#mask-62)" points="4.698 -1.682 -0.283 -1.336 0.481 9.659 5.462 9.313"></polyline>
        </g>
        <g id="Group-390" transform="translate(1409.000000, 306.000000)">
            <mask id="mask-64" fill="white">
                <use xlink:href="#path-63"></use>
            </mask>
            <g id="Clip-389"></g>
            <polyline id="Fill-388" fill="#1D1914" mask="url(#mask-64)" points="5.358 -3.228 -0.916 -2.793 0.993 24.696 7.267 24.26"></polyline>
        </g>
        <g id="Group-400" transform="translate(1388.000000, 375.000000)">
            <mask id="mask-66" fill="white">
                <use xlink:href="#path-65"></use>
            </mask>
            <g id="Clip-399"></g>
            <polyline id="Fill-398" fill="#1D1813" mask="url(#mask-66)" points="6.968 -4.591 0.199 -4.121 1.344 12.373 8.113 11.902"></polyline>
        </g>
        <g id="Group-406" transform="translate(1254.000000, 422.000000)">
            <mask id="mask-68" fill="white">
                <use xlink:href="#path-67"></use>
            </mask>
            <g id="Clip-404"></g>
            <polyline id="Fill-403" fill="#1D1813" mask="url(#mask-68)" points="25.29 -4.888 -1.659 -3.016 -0.132 18.975 26.817 17.103"></polyline>
            <polyline id="Fill-405" fill="#1C1813" mask="url(#mask-68)" points="26.817 17.103 -0.132 18.975 0.632 29.97 27.58 28.099"></polyline>
        </g>
        <g id="Group-410" transform="translate(938.000000, 373.000000)">
            <mask id="mask-70" fill="white">
                <use xlink:href="#path-69"></use>
            </mask>
            <g id="Clip-408"></g>
            <polyline id="Fill-407" fill="#1D1813" mask="url(#mask-70)" points="25.728 -5.789 -1.101 -3.926 0.426 18.065 27.255 16.202"></polyline>
            <polyline id="Fill-409" fill="#1D1813" mask="url(#mask-70)" points="27.255 16.202 0.426 18.065 1.189 29.061 28.018 27.197"></polyline>
        </g>
        <g id="Group-415" transform="translate(1404.000000, 385.000000)">
            <mask id="mask-72" fill="white">
                <use xlink:href="#path-71"></use>
            </mask>
            <g id="Clip-414"></g>
            <polyline id="Fill-413" fill="#1D1813" mask="url(#mask-72)" points="10.279 -4.883 -0.174 -4.157 0.971 12.336 11.424 11.61"></polyline>
        </g>
        <g id="Group-418" transform="translate(1299.000000, 283.000000)">
            <mask id="mask-74" fill="white">
                <use xlink:href="#path-73"></use>
            </mask>
            <g id="Clip-417"></g>
            <polyline id="Fill-416" fill="#1E1914" mask="url(#mask-74)" points="11.509 -0.638 -0.505 0.197 0.64 16.69 12.654 15.855"></polyline>
        </g>
        <g id="Group-422" transform="translate(977.000000, 502.000000)">
            <mask id="mask-76" fill="white">
                <use xlink:href="#path-75"></use>
            </mask>
            <g id="Clip-420"></g>
            <polyline id="Fill-419" fill="#1C1813" mask="url(#mask-76)" points="6.833 -3.603 0.055 -3.133 0.437 2.365 7.214 1.895"></polyline>
            <polyline id="Fill-421" fill="#1C1813" mask="url(#mask-76)" points="7.214 1.895 0.437 2.365 0.819 7.863 7.596 7.392"></polyline>
        </g>
        <g id="Group-425" transform="translate(1146.000000, 451.000000)">
            <mask id="mask-78" fill="white">
                <use xlink:href="#path-77"></use>
            </mask>
            <g id="Clip-424"></g>
            <polyline id="Fill-423" fill="#1C1813" mask="url(#mask-78)" points="7.064 -3.025 0.287 -2.554 1.051 8.441 7.828 7.97"></polyline>
        </g>
        <g id="Group-428" transform="translate(918.000000, 444.000000)">
            <mask id="mask-80" fill="white">
                <use xlink:href="#path-79"></use>
            </mask>
            <g id="Clip-427"></g>
            <polyline id="Fill-426" fill="#1D1813" mask="url(#mask-80)" points="6.354 -2.24 -0.415 -1.77 0.349 9.226 7.118 8.756"></polyline>
        </g>
        <g id="Group-431" transform="translate(1137.000000, 316.000000)">
            <mask id="mask-82" fill="white">
                <use xlink:href="#path-81"></use>
            </mask>
            <g id="Clip-430"></g>
            <polyline id="Fill-429" fill="#1D1914" mask="url(#mask-82)" points="6.049 -5.436 -0.729 -4.965 0.417 11.528 7.194 11.057"></polyline>
        </g>
        <g id="Group-435" transform="translate(1352.000000, 93.000000)">
            <mask id="mask-84" fill="white">
                <use xlink:href="#path-83"></use>
            </mask>
            <g id="Clip-433"></g>
            <polyline id="Fill-432" fill="#1F1914" mask="url(#mask-84)" points="25.081 -3.085 -1.868 -1.214 -1.486 4.284 25.463 2.413"></polyline>
            <polyline id="Fill-434" fill="#1E1914" mask="url(#mask-84)" points="25.463 2.413 -1.486 4.284 0.423 31.772 27.372 29.901"></polyline>
        </g>
        <g id="Group-441" transform="translate(881.000000, 162.000000)">
            <mask id="mask-86" fill="white">
                <use xlink:href="#path-85"></use>
            </mask>
            <g id="Clip-439"></g>
            <polyline id="Fill-438" fill="#1E1914" mask="url(#mask-86)" points="25.086 -6.232 -1.743 -4.369 -0.598 12.125 26.231 10.261"></polyline>
            <polyline id="Fill-440" fill="#1E1913" mask="url(#mask-86)" points="26.231 10.261 -0.598 12.125 0.547 28.618 27.376 26.755"></polyline>
        </g>
        <path d="M1243.24845,82 C1242.76726,81.4203057 1242.40391,80.7325328 1242.19768,79.9563319 C1241.39242,77.018559 1243.12079,73.9923581 1246.04723,73.1965066 C1246.53825,73.058952 1247.02926,73 1247.51046,73 C1249.92625,73 1252.14563,74.6015284 1252.81341,77.0480349 C1252.92144,77.470524 1252.99018,77.8930131 1253,78.3056769 C1249.80841,79.5043668 1246.55789,80.7325328 1243.24845,82" id="Fill-442" fill="#342920"></path>
        <g id="Group-446" transform="translate(1243.000000, 78.000000)">
            <mask id="mask-88" fill="white">
                <use xlink:href="#path-87"></use>
            </mask>
            <g id="Clip-445"></g>
            <polyline id="Fill-444" fill="#1F1914" mask="url(#mask-88)" points="9.867 -1.556 -0.571 -0.832 0.193 10.164 10.631 9.439"></polyline>
        </g>
        <g id="Group-452" transform="translate(1079.000000, 105.000000)" fill="#342920">
            <path d="M3.61,6.81 C2.22,6.81 0.94,5.89 0.56,4.48 C0.1,2.8 1.09,1.06 2.77,0.6 C3.05,0.52 3.33,0.49 3.61,0.49 C5,0.49 6.27,1.41 6.65,2.81 C7.11,4.5 6.12,6.23 4.44,6.7 C4.16,6.77 3.88,6.81 3.61,6.81" id="Fill-447"></path>
        </g>
        <g id="Group-1004" transform="translate(-343.000000, -972.000000)">
            <mask id="mask-90" fill="white">
                <use xlink:href="#path-89"></use>
            </mask>
            <g id="Clip-719"></g>
            <path d="M1374.87,1037.08 C1374.87,1039.59 1372.84,1041.62 1370.33,1041.62 L1356.59,1041.62 C1354.09,1041.62 1352.06,1039.59 1352.06,1037.08 C1352.06,1034.58 1354.09,1032.54 1356.59,1032.54 L1370.33,1032.54 C1372.84,1032.54 1374.87,1034.58 1374.87,1037.08" id="Fill-978" fill="#795F49" mask="url(#mask-90)"></path>
            <path d="M1277.43,991.77 C1277.43,993.73 1275.85,995.31 1273.89,995.31 L1265.92,995.31 C1263.96,995.31 1262.38,993.73 1262.38,991.77 C1262.38,989.81 1263.96,988.23 1265.92,988.23 L1273.89,988.23 C1275.85,988.23 1277.43,989.81 1277.43,991.77" id="Fill-979" fill="#795F49" mask="url(#mask-90)"></path>
            <path d="M1529,1608.08 C1529,1610.59 1527.67,1612.62 1526.03,1612.62 L1517.03,1612.62 C1515.39,1612.62 1514.06,1610.59 1514.06,1608.08 C1514.06,1605.58 1515.39,1603.54 1517.03,1603.54 L1526.03,1603.54 C1527.67,1603.54 1529,1605.58 1529,1608.08" id="Fill-980" fill="#1E1813" mask="url(#mask-90)"></path>
            <path d="M1515.43,1623.77 C1515.43,1625.73 1513.85,1627.31 1511.89,1627.31 L1503.92,1627.31 C1501.96,1627.31 1500.38,1625.73 1500.38,1623.77 C1500.38,1621.81 1501.96,1620.23 1503.92,1620.23 L1511.89,1620.23 C1513.85,1620.23 1515.43,1621.81 1515.43,1623.77" id="Fill-981" fill="#1E1813" mask="url(#mask-90)"></path>
            <path d="M1536.43,1623.77 C1536.43,1625.73 1534.85,1627.31 1532.89,1627.31 L1524.92,1627.31 C1522.96,1627.31 1521.38,1625.73 1521.38,1623.77 C1521.38,1621.81 1522.96,1620.23 1524.92,1620.23 L1532.89,1620.23 C1534.85,1620.23 1536.43,1621.81 1536.43,1623.77" id="Fill-982" fill="#1E1813" mask="url(#mask-90)"></path>
            <path d="M418.2,1005.5 C418.2,1007.7 416.42,1009.48 414.21,1009.48 L397.35,1009.48 C395.15,1009.48 393.36,1007.7 393.36,1005.5 C393.36,1003.3 395.15,1001.51 397.35,1001.51 L414.21,1001.51 C416.42,1001.51 418.2,1003.3 418.2,1005.5" id="Fill-983" fill="#795F49" mask="url(#mask-90)"></path>
            <path d="M786.37,1034.81 C786.37,1036.07 785.36,1037.08 784.1,1037.08 L750.71,1037.08 C749.46,1037.08 748.44,1036.07 748.44,1034.81 C748.44,1033.56 749.46,1032.54 750.71,1032.54 L784.1,1032.54 C785.36,1032.54 786.37,1033.56 786.37,1034.81" id="Fill-984" fill="#795F49" mask="url(#mask-90)"></path>
        </g>
        <g id="Group-1615" transform="translate(-376.000000, -182.000000)">
            <path d="M0.28,832.62 L1856.5,832.62 L1856.5,685.84 C1676.66,651.99 1178.03,765.59 1044.42,790.77 C906.92,816.67 857.11,746.93 693.6,700.78 C530.08,654.63 424.71,709.07 273.52,739.96 C122.32,770.84 102.5,659.26 102.5,659.26 L0.28,659.26 L0.28,832.62" id="Fill-1610" fill="#4A372A"></path>
            <path d="M1902,781.18 L1902,788.37 C1902,794.48 1899.64,796.89 1895.41,796.83 L311.67,796.71 C305.28,796.75 300.61,794.02 300.61,788.77 L300.61,781.18 L1902,781.18" id="Fill-1611" fill="#E4E5E0"></path>
            <path d="M1894.55,781.18 L1894.55,782.68 L1894.55,779.79 C1894.55,785.76 1894.26,788.64 1890.27,788.91 L314.62,788.91 C308.68,788.91 306.96,785.76 306.96,779.79 L306.96,782.68 L306.96,781.18 L1894.55,781.18" id="Fill-1612" fill="#A0A3A1"></path>
            <polygon id="Fill-1613" fill="#91928E" points="47 917 1940 917 1940 836 47 836"></polygon>
            <path d="M7,875.5 L27,875.55 L27,872.55 L7,872.5 L7,875.5 Z M57,875.62 L77,875.67 L77,872.67 L57,872.62 L57,875.62 Z M107,875.75 L127,875.8 L127,872.8 L107,872.75 L107,875.75 Z M157,875.87 L177,875.92 L177,872.92 L157,872.87 L157,875.87 Z M207,876 L227,876.05 L227,873.05 L207,873 L207,876 Z M257,876.12 L277,876.17 L277,873.17 L257,873.12 L257,876.12 Z M307,876.25 L327,876.3 L327,873.3 L307,873.25 L307,876.25 Z M357,876.37 L376.99,876.42 L377,873.42 L357,873.37 L357,876.37 Z M406.99,876.5 L426.99,876.55 L427,873.55 L407,873.5 L406.99,876.5 Z M456.99,876.62 L476.99,876.67 L477,873.67 L457,873.62 L456.99,876.62 Z M506.99,876.75 L526.99,876.8 L527,873.8 L507,873.75 L506.99,876.75 Z M556.99,876.87 L576.99,876.92 L577,873.92 L557,873.87 L556.99,876.87 Z M606.99,877 L626.99,877.05 L627,874.05 L607,874 L606.99,877 Z M656.99,877.12 L676.99,877.17 L677,874.17 L657,874.12 L656.99,877.12 Z M706.99,877.25 L726.99,877.3 L727,874.3 L707,874.25 L706.99,877.25 Z M756.99,877.37 L776.99,877.42 L777,874.42 L757,874.37 L756.99,877.37 Z M806.99,877.5 L826.99,877.55 L827,874.55 L807,874.5 L806.99,877.5 Z M856.99,877.62 L876.99,877.67 L877,874.67 L857,874.62 L856.99,877.62 Z M906.99,877.75 L926.99,877.8 L927,874.8 L907,874.75 L906.99,877.75 Z M956.99,877.87 L976.99,877.92 L977,874.92 L957,874.87 L956.99,877.87 Z M1006.99,878 L1026.99,878.05 L1027,875.05 L1007,875 L1006.99,878 Z M1056.99,878.12 L1076.99,878.17 L1077,875.17 L1057,875.12 L1056.99,878.12 Z M1106.99,878.25 L1126.99,878.3 L1127,875.3 L1107,875.25 L1106.99,878.25 Z M1156.99,878.37 L1176.99,878.42 L1177,875.42 L1157,875.37 L1156.99,878.37 Z M1206.99,878.5 L1226.99,878.55 L1227,875.55 L1207,875.5 L1206.99,878.5 Z M1256.99,878.62 L1276.99,878.67 L1277,875.67 L1257,875.62 L1256.99,878.62 Z M1306.99,878.75 L1326.99,878.8 L1327,875.8 L1307,875.75 L1306.99,878.75 Z M1356.99,878.87 L1376.99,878.92 L1377,875.92 L1357,875.87 L1356.99,878.87 Z M1406.99,878.99 L1426.99,879.04 L1427,876.04 L1407,875.99 L1406.99,878.99 Z M1456.99,879.12 L1476.99,879.17 L1477,876.17 L1457,876.12 L1456.99,879.12 Z M1506.99,879.24 L1526.99,879.29 L1527,876.29 L1507,876.24 L1506.99,879.24 Z M1556.99,879.37 L1576.99,879.42 L1577,876.42 L1557,876.37 L1556.99,879.37 Z M1606.99,879.49 L1626.99,879.54 L1627,876.54 L1607,876.49 L1606.99,879.49 Z M1656.99,879.62 L1676.99,879.67 L1677,876.67 L1657,876.62 L1656.99,879.62 Z M1706.99,879.74 L1726.99,879.79 L1727,876.79 L1707,876.74 L1706.99,879.74 Z M1756.99,879.87 L1776.99,879.92 L1777,876.92 L1757,876.87 L1756.99,879.87 Z M1806.99,879.99 L1826.99,880.04 L1827,877.04 L1807,876.99 L1806.99,879.99 Z M1856.99,880.12 L1876.99,880.17 L1877,877.17 L1857,877.12 L1856.99,880.12 Z M1906.99,880.24 L1926.99,880.29 L1927,877.29 L1907,877.24 L1906.99,880.24 Z M1956.99,880.37 L1976.99,880.42 L1976.99,877.42 L1956.99,877.37 L1956.99,880.37 Z M2006.99,880.49 L2010,880.5 L2010,877.5 L2006.99,877.49 L2006.99,880.49 Z" id="Fill-1614" fill="#FFFFFE"></path>
        </g>
    </g>
</svg>