<?xml version="1.0" encoding="UTF-8"?>
<svg width="50px" height="50px" viewBox="0 0 50 50" version="1.1" xmlns="http://www.w3.org/2000/svg" xmlns:xlink="http://www.w3.org/1999/xlink">
    <!-- Generator: Sketch 52.6 (67491) - http://www.bohemiancoding.com/sketch -->
    <title>icon-train</title>
    <desc>Created with Sketch.</desc>
    <g id="Page-1" stroke="none" stroke-width="1" fill="none" fill-rule="evenodd">
        <g id="mobile" transform="translate(-145.000000, -1623.000000)" fill="#2AC8EC" fill-rule="nonzero">
            <g id="icon-train" transform="translate(145.000000, 1623.000000)">
                <path d="M20.9844438,10.679197 C20.7138667,10.7041851 20.4753098,10.8678939 20.3535709,11.1121316 L18.5961391,14.6360178 L14.78086,14.6360178 C12.8292346,14.6415141 11.2469425,16.2279064 11.2359551,18.1901088 L11.2359551,33.9972555 C11.2442159,35.9606036 12.8281028,37.5485949 14.78086,37.5513465 L18.8765271,37.5513465 L15.0912896,46.6127682 C14.9004874,47.0061763 15.063009,47.4806125 15.4542919,47.6724511 C15.8455747,47.8642897 16.3174479,47.7008853 16.5082502,47.3074772 L16.5432987,47.216863 L17.9302177,43.8540687 L32.0747892,43.8540687 L33.481736,46.9852933 C33.6199985,47.4023337 34.0683341,47.6277191 34.4831215,47.4887056 C34.897909,47.3496921 35.1220768,46.8989214 34.9838143,46.481881 C34.9838143,46.4516763 34.9838143,46.4214715 34.9437589,46.3963009 L31.1384937,37.5412783 L35.2341607,37.5412783 C37.1783013,37.5330266 38.7530783,35.951942 38.7640449,33.9972555 L38.7640449,18.1850747 C38.7557982,16.2236858 37.1749497,14.6364991 35.2241469,14.6309837 L31.3888401,14.6309837 L29.6264014,11.1070975 C29.4933864,10.8407387 29.2218675,10.6730425 28.9254315,10.6741629 L20.9844438,10.6741629 L20.9844438,10.679197 Z M21.5352059,12.2599117 L28.4497734,12.2599117 L29.6264014,14.6309837 L20.3535709,14.6309837 L21.5352059,12.2599117 Z M14.78086,16.2116984 L35.2241469,16.2116984 C35.7471947,16.2048925 36.2508708,16.4104506 36.6212233,16.7818672 C36.9915758,17.1532838 37.1973061,17.6591703 37.1918696,18.1850747 L37.1918696,33.9972555 C37.1973061,34.5231599 36.9915758,35.0290464 36.6212233,35.400463 C36.2508708,35.7718796 35.7471947,35.9774377 35.2241469,35.9706318 L14.78086,35.9706318 C14.2518035,35.9871222 13.7389614,35.7858508 13.3609209,35.4133589 C12.9828804,35.0408669 12.7723779,34.5294102 12.7780889,33.9972555 L12.7780889,18.1850747 C12.7723779,17.65292 12.9828804,17.1414633 13.3609209,16.7689713 C13.7389614,16.3964794 14.2518035,16.195208 14.78086,16.2116984 Z M17.1391231,17.792413 C15.8401004,17.8006535 14.789056,18.8574067 14.78086,20.1634851 L14.78086,25.7010206 C14.789056,27.0070989 15.8401004,28.0638521 17.1391231,28.0720926 L32.8608769,28.0720926 C34.1618545,28.0665995 35.2159242,27.0090498 35.2241469,25.7010206 L35.2241469,20.1634851 C35.2159242,18.8554558 34.1618545,17.7979061 32.8608769,17.792413 L17.1391231,17.792413 Z M17.1391231,19.3731277 L24.2038985,19.3731277 L24.2038985,26.4863438 L17.1190954,26.4863438 C16.9093741,26.4904931 16.7070228,26.4085566 16.5586987,26.2594269 C16.4103746,26.1102972 16.3288808,25.9068469 16.3330077,25.6959864 L16.3330077,20.1584509 C16.3288808,19.9475905 16.4103746,19.7441402 16.5586987,19.5950105 C16.7070228,19.4458808 16.9093741,19.3639443 17.1190954,19.3680936 L17.1391231,19.3731277 Z M25.8011085,19.3731277 L32.8608769,19.3731277 C33.0714566,19.3675849 33.2751236,19.4489054 33.4245491,19.5981916 C33.5739746,19.7474778 33.6561473,19.9517306 33.6519715,20.1634851 L33.6519715,25.7010206 C33.6561473,25.912775 33.5739746,26.1170278 33.4245491,26.266314 C33.2751236,26.4156002 33.0714566,26.4969207 32.8608769,26.4913779 L25.7961015,26.4913779 L25.7961015,19.3731277 L25.8011085,19.3731277 Z M19.0868181,29.2551115 C17.5659343,29.2578943 16.3352577,30.4997658 16.3380237,32.0289103 C16.3407898,33.5580548 17.5759512,34.7954173 19.096835,34.7926378 C20.6177187,34.7898584 21.8483981,33.5479896 21.8456354,32.0188451 C21.8373845,30.4919991 20.6054358,29.257855 19.0868181,29.2551115 Z M30.8931542,29.2551115 C29.3722704,29.2578943 28.1415938,30.4997658 28.1443599,32.0289103 C28.1471259,33.5580548 29.3822873,34.7954173 30.9031711,34.7926378 C32.4240549,34.7898584 33.6547342,33.5479896 33.6519715,32.0188451 C33.6437206,30.4919991 32.4117719,29.257855 30.8931542,29.2551115 Z M19.0868181,30.8358262 C19.5656501,30.8337905 19.9983668,31.1225015 20.1825444,31.5669009 C20.366722,32.0113002 20.2659449,32.5235216 19.9273566,32.863949 C19.5887682,33.2043764 19.0793139,33.3057008 18.6373153,33.1205229 C18.1953167,32.935345 17.9081653,32.5002779 17.91019,32.0188451 C17.9074926,31.7042654 18.0305921,31.4017816 18.2518401,31.1793319 C18.4730881,30.9568822 18.7739378,30.8331141 19.0868181,30.8358262 Z M30.8931542,30.8358262 C31.3719862,30.8337905 31.8047029,31.1225015 31.9888805,31.5669009 C32.1730581,32.0113002 32.072281,32.5235216 31.7336927,32.863949 C31.3951043,33.2043764 30.88565,33.3057008 30.4436514,33.1205229 C30.0016528,32.935345 29.7145014,32.5002779 29.7165261,32.0188451 C29.7138287,31.7042654 29.8369282,31.4017816 30.0581762,31.1793319 C30.2794242,30.9568822 30.5802739,30.8331141 30.8931542,30.8358262 Z M20.5638618,37.5513465 L29.4211174,37.5513465 L30.0820319,39.1370953 L19.8979404,39.1370953 L20.5638618,37.5513465 Z M19.2370259,40.7429806 L30.7529602,40.7429806 L31.4188816,42.3236953 L18.5711045,42.3236953 L19.2370259,40.7429806 Z" id="Shape"></path>
                <path d="M25.0053568,49.9999995 C14.8930402,50.0020185 5.77541856,43.9117932 1.90466981,34.5696171 C-1.96607895,25.2274409 0.172466414,14.473442 7.3229542,7.3229542 C14.473442,0.172466414 25.2274409,-1.96607895 34.5696171,1.90466981 C43.9117932,5.77541856 50.0020185,14.8930402 49.9999995,25.0053568 C49.9834955,38.8026748 38.8026748,49.9834955 25.0053568,49.9999995 Z M25.0053568,1.50330413 C15.4992098,1.50128499 6.92797664,7.22609593 3.28873251,16.0080511 C-0.350511627,24.7900063 1.65899187,34.8994768 8.38013904,41.6220519 C15.1012862,48.344627 25.2103296,50.356278 33.9930577,46.7188994 C42.7757858,43.0815209 48.5024173,34.511504 48.5024176,25.0053568 C48.4886659,12.0331804 37.97753,1.5198114 25.0053568,1.50330413 Z" id="Shape"></path>
            </g>
        </g>
    </g>
</svg>