<?xml version="1.0" encoding="UTF-8"?>
<svg width="50px" height="50px" viewBox="0 0 50 50" version="1.1" xmlns="http://www.w3.org/2000/svg" xmlns:xlink="http://www.w3.org/1999/xlink">
    <!-- Generator: Sketch 52.6 (67491) - http://www.bohemiancoding.com/sketch -->
    <title>icon-bajo-nivel</title>
    <desc>Created with Sketch.</desc>
    <g id="Page-1" stroke="none" stroke-width="1" fill="none" fill-rule="evenodd">
        <g id="mobile" transform="translate(-163.000000, -819.000000)" fill="#2AC8EC" fill-rule="nonzero">
            <g id="icon-bajo-nivel" transform="translate(163.000000, 819.000000)">
                <g id="Group">
                    <path d="M25,31.7 C25.4,31.7 25.75,31.35 25.75,30.95 L25.75,29.45 C25.75,29.05 25.4,28.7 25,28.7 C24.6,28.7 24.25,29.05 24.25,29.45 L24.25,30.95 C24.25,31.35 24.6,31.7 25,31.7 Z" id="Shape"></path>
                    <path d="M25,26.7 C25.4,26.7 25.75,26.35 25.75,25.95 L25.75,25.45 C25.75,25.05 25.4,24.7 25,24.7 C24.6,24.7 24.25,25.05 24.25,25.45 L24.25,25.95 C24.25,26.35 24.6,26.7 25,26.7 Z" id="Shape"></path>
                    <path d="M25,39.7 C25.4,39.7 25.75,39.35 25.75,38.95 L25.75,34.45 C25.75,34.05 25.4,33.7 25,33.7 C24.6,33.7 24.25,34.05 24.25,34.45 L24.25,38.95 C24.25,39.35 24.6,39.7 25,39.7 Z" id="Shape"></path>
                    <path d="M25,0.25 C11.35,0.25 0.25,11.35 0.25,25 C0.25,38.65 11.35,49.75 25,49.75 C38.65,49.75 49.75,38.65 49.75,25 C49.75,11.35 38.65,0.25 25,0.25 Z M32.9,21.75 L36,19.95 C36.45,21.2 36.7,22.6 36.7,24 L36.7,24.7 L33.2,24.7 L33.2,24 C33.25,23.2 33.15,22.45 32.9,21.75 Z M32.35,20.3 C31.85,19.3 31.15,18.4 30.3,17.7 L32.05,14.65 C33.4,15.7 34.55,17.05 35.35,18.55 L32.35,20.3 Z M29.1,16.85 C28.1,16.25 26.95,15.9 25.75,15.8 L25.75,12.3 C27.6,12.4 29.35,12.95 30.85,13.85 L29.1,16.85 Z M24.25,15.8 C23.05,15.9 21.9,16.3 20.9,16.85 L19.15,13.8 C20.65,12.95 22.4,12.4 24.25,12.25 L24.25,15.8 Z M17.9,14.65 L19.65,17.7 C18.8,18.4 18.1,19.3 17.6,20.3 L14.55,18.55 C15.4,17 16.55,15.7 17.9,14.65 Z M13.25,24 C13.25,22.55 13.5,21.2 13.95,19.95 L17.05,21.75 C16.85,22.45 16.7,23.25 16.7,24 L16.7,24.7 L13.2,24.7 L13.2,24 L13.25,24 Z M22.15,25.6 C22.35,25.25 22.25,24.8 21.9,24.55 C21.55,24.35 21.1,24.45 20.85,24.8 L18.25,29 L18.25,24 C18.25,20.3 21.3,17.25 25,17.25 C28.7,17.25 31.75,20.3 31.75,24 L31.75,29 L29.15,24.8 C28.95,24.45 28.45,24.35 28.1,24.55 C27.75,24.75 27.65,25.25 27.85,25.6 L39,43.55 C35.3,46.35 30.7,48.1 25.75,48.25 L25.75,42.2 C25.75,41.8 25.4,41.45 25,41.45 C24.6,41.45 24.25,41.8 24.25,42.2 L24.25,48.25 C19.3,48.1 14.7,46.35 11,43.55 L22.15,25.6 Z M40.2,42.6 L33.2,31.35 C33.25,31.25 33.25,31.15 33.25,31.05 L33.25,26.25 L36.75,26.25 L36.75,31 C36.75,31.4 37.1,31.75 37.5,31.75 C37.9,31.75 38.25,31.4 38.25,31 L38.25,24 C38.25,16.7 32.3,10.75 25,10.75 C17.7,10.75 11.75,16.7 11.75,24 L11.75,31 C11.75,31.4 12.1,31.75 12.5,31.75 C12.9,31.75 13.25,31.4 13.25,31 L13.25,26.2 L16.75,26.2 L16.75,31 C16.75,31.1 16.75,31.2 16.8,31.3 L9.8,42.55 C4.9,38.3 1.75,32 1.75,25 C1.75,12.2 12.2,1.75 25,1.75 C37.8,1.75 48.25,12.2 48.25,25 C48.25,32 45.1,38.3 40.2,42.6 Z" id="Shape"></path>
                </g>
            </g>
        </g>
    </g>
</svg>