<?xml version="1.0" encoding="UTF-8"?>
<svg width="50px" height="50px" viewBox="0 0 50 50" version="1.1" xmlns="http://www.w3.org/2000/svg" xmlns:xlink="http://www.w3.org/1999/xlink">
    <!-- Generator: Sketch 52.6 (67491) - http://www.bohemiancoding.com/sketch -->
    <title>icon-faucet</title>
    <desc>Created with Sketch.</desc>
    <g id="Page-1" stroke="none" stroke-width="1" fill="none" fill-rule="evenodd">
        <g id="mobile" transform="translate(-163.000000, -2622.000000)" fill="#2AC8EC" fill-rule="nonzero">
            <g id="icon-faucet" transform="translate(163.000000, 2622.000000)">
                <path d="M41.5784314,16.2598039 L36.2303922,16.2598039 L36.0931373,15.9901961 C35.7175318,15.249191 35.2657466,14.5493347 34.745098,13.9019608 L34.1029412,13.1029412 L41.5784314,13.1029412 L41.5784314,16.2598039 Z M36.8284314,15.2794118 L40.5980392,15.2794118 L40.5980392,14.0833333 L36.1029412,14.0833333 C36.3654585,14.4691051 36.6076194,14.8683433 36.8284314,15.2794118 Z" id="Shape"></path>
                <path d="M44.7892157,18.4313725 L37.5882353,18.4313725 L37.5882353,15.2794118 L44.7892157,15.2794118 L44.7892157,18.4313725 Z M38.5686275,17.4509804 L43.8088235,17.4509804 L43.8088235,16.2598039 L38.5686275,16.2598039 L38.5686275,17.4509804 Z" id="Shape"></path>
                <path d="M42.3480392,20.9362745 L37.4460784,20.9362745 L37.4117647,20.4901961 C37.3459344,19.7817344 37.2213223,19.0799714 37.0392157,18.3921569 L36.877451,17.7794118 L42.3480392,17.7794118 L42.3480392,20.9362745 Z M38.3137255,19.9558824 L41.3676471,19.9558824 L41.3676471,18.7598039 L38.1127451,18.7598039 C38.2009804,19.1617647 38.2647059,19.5588235 38.3137255,19.9558824 Z" id="Shape"></path>
                <path d="M45.5588235,23.1127451 L38.3529412,23.1127451 L38.3529412,19.9558824 L45.5588235,19.9558824 L45.5588235,23.1127451 Z M39.3333333,22.1323529 L44.5784314,22.1323529 L44.5784314,20.9362745 L39.3333333,20.9362745 L39.3333333,22.1323529 Z" id="Shape"></path>
                <path d="M15.25,29.5343137 L8.33333333,29.5343137 L8.33333333,26.377451 L13.3823529,26.377451 L13.5098039,26.6666667 C13.8439446,27.4008904 14.2442926,28.1031401 14.7058824,28.7647059 L15.25,29.5343137 Z M9.31372549,28.5539216 L13.3921569,28.5539216 C13.1579187,28.1664 12.9435882,27.7671891 12.75,27.3578431 L9.31372549,27.3578431 L9.31372549,28.5539216 Z" id="Shape"></path>
                <path d="M12.3480392,27.3578431 L5.14215686,27.3578431 L5.14215686,24.2009804 L12.3480392,24.2009804 L12.3480392,27.3578431 Z M6.12254902,26.377451 L11.3676471,26.377451 L11.3676471,25.1813725 L6.12254902,25.1813725 L6.12254902,26.377451 Z" id="Shape"></path>
                <path d="M12.8872549,24.8578431 L7.58333333,24.8578431 L7.58333333,21.7009804 L12.4852941,21.7009804 L12.4852941,22.1666667 C12.5138468,22.8719845 12.6007449,23.5737278 12.745098,24.2647059 L12.8872549,24.8578431 Z M8.56372549,23.877451 L11.6862745,23.877451 C11.622549,23.4852941 11.5735294,23.0833333 11.5392157,22.6813725 L8.56372549,22.6813725 L8.56372549,23.877451 Z" id="Shape"></path>
                <path d="M11.5784314,22.6813725 L4.37254902,22.6813725 L4.37254902,19.5245098 L11.5784314,19.5245098 L11.5784314,22.6813725 Z M5.35294118,21.7009804 L10.5980392,21.7009804 L10.5980392,20.504902 L5.35294118,20.504902 L5.35294118,21.7009804 Z" id="Shape"></path>
                <path d="M30.2058824,29.6078431 L29.2254902,25.0637255 C29.0074505,24.0855444 28.4628643,23.2107488 27.6813725,22.5833333 C26.4893533,21.616711 24.880654,21.339005 23.43355,21.8500418 C21.986446,22.3610785 20.9088925,23.5874197 20.5882353,25.0882353 L19.6078431,29.5392157 L18.6715686,28.7107843 C15.7242165,26.0907603 14.7100095,21.9179512 16.1260007,18.2374106 C17.5419919,14.55687 21.0914738,12.1398201 25.0348795,12.1708339 C28.9782852,12.2018477 32.4893115,14.6744265 33.8472382,18.3767833 C35.2051649,22.07914 34.1254514,26.235481 31.1372549,28.8088235 L30.2058824,29.6078431 Z M24.9068627,20.1421569 C27.6617641,20.145589 30.0452632,22.060537 30.6421569,24.75 L31.0833333,26.7745098 C33.7951891,23.5451344 33.5325823,18.7647353 30.4833068,15.8518422 C27.4340313,12.9389491 22.6466245,12.8952025 19.5446274,15.7518861 C16.4426302,18.6085697 16.0927094,23.3833715 18.745098,26.6617647 L19.1715686,24.7745098 C19.7585486,22.0753073 22.1445803,20.1481278 24.9068627,20.1421569 Z" id="Shape"></path>
                <path d="M30.2058824,29.6078431 L29.2254902,25.0637255 C29.0074505,24.0855444 28.4628643,23.2107488 27.6813725,22.5833333 C26.4893533,21.616711 24.880654,21.339005 23.43355,21.8500418 C21.986446,22.3610785 20.9088925,23.5874197 20.5882353,25.0882353 L19.6078431,29.5392157 L18.6715686,28.7107843 C15.7242165,26.0907603 14.7100095,21.9179512 16.1260007,18.2374106 C17.5419919,14.55687 21.0914738,12.1398201 25.0348795,12.1708339 C28.9782852,12.2018477 32.4893115,14.6744265 33.8472382,18.3767833 C35.2051649,22.07914 34.1254514,26.235481 31.1372549,28.8088235 L30.2058824,29.6078431 Z M24.9068627,20.1421569 C27.6617641,20.145589 30.0452632,22.060537 30.6421569,24.75 L31.0833333,26.7745098 C33.7951891,23.5451344 33.5325823,18.7647353 30.4833068,15.8518422 C27.4340313,12.9389491 22.6466245,12.8952025 19.5446274,15.7518861 C16.4426302,18.6085697 16.0927094,23.3833715 18.745098,26.6617647 L19.1715686,24.7745098 C19.7585486,22.0753073 22.1445803,20.1481278 24.9068627,20.1421569 Z" id="Shape"></path>
                <path d="M30.6568627,28.9852941 C30.318868,28.9884989 30.0228281,28.7593721 29.9411765,28.4313725 L29.2058824,25.0882353 C28.9878426,24.1100542 28.4432565,23.2352586 27.6617647,22.6078431 C26.473365,21.6511012 24.8749963,21.3762678 23.4352819,21.8811157 C21.9955674,22.3859636 20.9188731,23.5988301 20.5882353,25.0882353 L19.8578431,28.3235294 C19.8149109,28.5942632 19.6249452,28.8186387 19.3650022,28.905642 C19.1050592,28.9926453 18.8183009,28.9278301 18.6210457,28.7374875 C18.4237905,28.5471448 18.3487915,28.26288 18.4264706,28 L19.1519608,24.7745098 C19.7619456,22.0979925 22.142109,20.1992443 24.8872549,20.1992443 C27.6324008,20.1992443 30.0125642,22.0979925 30.622549,24.7745098 L31.372549,28.0931373 C31.4573917,28.4896735 31.2051874,28.8800419 30.8088235,28.9656863 C30.7592749,28.9789894 30.7081653,28.9855842 30.6568627,28.9852941 Z" id="Shape"></path>
                <path d="M33.0343137,39.7598039 C32.689014,39.7604075 32.3904679,39.5191168 32.3186275,39.1813725 L30.9362745,32.9068627 C30.827763,32.6362721 30.8893678,32.3271275 31.0933152,32.118802 C31.2972626,31.9104765 31.6050292,31.8423206 31.8778633,31.9450613 C32.1506973,32.0478019 32.3370633,32.3020325 32.3529412,32.5931373 L33.7352941,38.8676471 C33.8201368,39.2641833 33.5679325,39.6545517 33.1715686,39.7401961 C33.1268294,39.752506 33.0807101,39.7590945 33.0343137,39.7598039 Z" id="Shape"></path>
                <path d="M16.2303922,41.9215686 C16.1767114,41.9287757 16.1223082,41.9287757 16.0686275,41.9215686 C15.8783519,41.8794791 15.712786,41.7630968 15.6087587,41.5983102 C15.5047314,41.4335235 15.4708697,41.2339984 15.5147059,41.0441176 L17.4313725,32.5294118 C17.5207127,32.1327955 17.9146583,31.883699 18.3112745,31.9730392 C18.7078908,32.0623794 18.9569872,32.4563249 18.8676471,32.8529412 L16.9460784,41.3480392 C16.8722402,41.6838345 16.574208,41.9226685 16.2303922,41.9215686 Z" id="Shape"></path>
                <path d="M28.7107843,31.7892157 C28.3547961,31.7859367 28.0508586,31.5312863 27.9852941,31.1813725 L26.9607843,25.4117647 C26.9143748,25.1490694 27.0116369,24.8815698 27.215933,24.7100303 C27.420229,24.5384909 27.7005215,24.4889725 27.9512271,24.5801284 C28.2019326,24.6712842 28.3849631,24.8892655 28.4313725,25.1519608 L29.4705882,30.9215686 C29.5419356,31.3208057 29.2765558,31.7024262 28.877451,31.7745098 C28.8228389,31.787071 28.7667521,31.7920198 28.7107843,31.7892157 Z" id="Shape"></path>
                <path d="M29.8284314,36.5539216 C29.4728599,36.5521916 29.1694721,36.2962726 29.1078431,35.9460784 L28.6911765,33.622549 C28.6198291,33.2233119 28.8852089,32.8416914 29.2843137,32.7696078 C29.6823135,32.7038288 30.0603819,32.9667385 30.1372549,33.3627451 L30.5539216,35.6862745 C30.5895488,35.8781756 30.5468869,36.0763533 30.4354534,36.2365966 C30.3240199,36.3968398 30.1530858,36.5058167 29.9607843,36.5392157 C29.9173384,36.5489501 29.8729545,36.5538817 29.8284314,36.5539216 Z" id="Shape"></path>
                <path d="M31.1568627,33.9068627 L29.8431373,27.9803922 L30.1764706,27.6911765 C32.7007631,25.5171795 33.6124515,22.0057809 32.4646023,18.8783606 C31.3167531,15.7509403 28.3499706,13.6630472 25.0186497,13.6382214 C21.6873288,13.6133955 18.6897585,15.6568407 17.4954267,18.7668065 C16.3010948,21.8767722 17.1603492,25.4013683 19.6519608,27.6127451 L19.9754902,27.9019608 L18.627451,33.8235294 L17.75,33.2794118 C16.1640382,32.2938729 14.7948418,30.9963884 13.7254902,29.4656863 C13.2248509,28.740452 12.7916699,27.9708994 12.4313725,27.1666667 C12.0502805,26.3132729 11.757895,25.4229757 11.5588235,24.5098039 C11.4005874,23.7540258 11.3022429,22.9869386 11.2647059,22.2156863 L11.2647059,22.1666667 C11.2647059,21.9901961 11.2647059,21.8088235 11.2647059,21.6323529 C11.2992242,15.8189084 14.992465,10.6577816 20.4837723,8.74915036 C25.9750796,6.84051907 32.0731937,8.59843319 35.7058824,13.1372549 C36.2739897,13.850873 36.7668051,14.6213077 37.1764706,15.4362745 C37.6059204,16.2791977 37.9460067,17.1647365 38.1911765,18.0784314 C38.3918662,18.8334824 38.5279776,19.6042336 38.5980392,20.3823529 C38.6372549,20.7892157 38.6568627,21.2156863 38.6568627,21.6421569 C38.6780137,26.4493081 36.1603452,30.9106688 32.0343137,33.377451 L31.1568627,33.9068627 Z M31.4656863,28.5147059 L32.1421569,31.5539216 C35.330435,29.261602 37.2132958,25.5689303 37.1960784,21.6421569 C37.1960784,21.2647059 37.1960784,20.8872549 37.1421569,20.5196078 C37.076092,19.8221012 36.9498041,19.1316181 36.7647059,18.4558824 C36.5435044,17.642677 36.2396328,16.8542532 35.8578431,16.1029412 C35.4921037,15.3751648 35.0500807,14.6883037 34.5392157,14.0539216 C31.2897333,10.0242575 25.8586929,8.47100202 20.9699323,10.1731616 C16.0811716,11.8753212 12.7892213,16.4657314 12.745098,21.6421569 C12.745098,21.8039216 12.745098,21.9705882 12.745098,22.1323529 C12.776408,22.8296115 12.864941,23.5231199 13.0098039,24.2058824 C13.1803493,25.0177086 13.4349912,25.8095627 13.7696078,26.5686275 C14.0883797,27.2863024 14.4740716,27.9723415 14.9215686,28.6176471 C15.6705159,29.7049591 16.5909807,30.6635008 17.6470588,31.4558824 L18.3529412,28.4313725 C15.5865337,25.7345879 14.7366496,21.627227 16.2056942,18.054054 C17.6747389,14.4808809 21.1678605,12.1590673 25.0311264,12.1879515 C28.8943923,12.2168357 32.3524065,14.5906205 33.7678593,18.1853599 C35.1833122,21.7800993 34.272108,25.8742931 31.4656863,28.5294118 L31.4656863,28.5147059 Z" id="Shape"></path>
                <path d="M41.0588235,42.6470588 C39.6180496,42.6582256 38.2287363,42.1119849 37.1813725,41.122549 C36.372549,40.4754902 35.6764706,39.9166667 34.2401961,39.9166667 C32.8039216,39.9166667 32.0931373,40.4754902 31.2990196,41.122549 C29.1173069,43.154932 25.7356343,43.154932 23.5539216,41.122549 C22.745098,40.4754902 22.0441176,39.9166667 20.6127451,39.9166667 C19.1813725,39.9166667 18.4656863,40.4754902 17.6715686,41.122549 C15.4898559,43.154932 12.1081833,43.154932 9.92647059,41.122549 C9.11764706,40.4754902 8.42156863,39.9166667 6.98529412,39.9166667 C6.57920239,39.9166667 6.25,39.5874643 6.25,39.1813725 C6.25,38.7752808 6.57920239,38.4460784 6.98529412,38.4460784 C8.40002717,38.4543285 9.75848307,39.0012166 10.7843137,39.9754902 C11.5931373,40.6176471 12.2892157,41.1764706 13.7254902,41.1764706 C15.1617647,41.1764706 15.872549,40.6176471 16.6666667,39.9754902 C17.7231271,38.9717987 19.1311985,38.4226509 20.5882353,38.4460784 C22.5490196,38.4460784 23.5637255,39.2598039 24.4607843,39.9754902 C25.2696078,40.6176471 25.9656863,41.1764706 27.4019608,41.1764706 C28.8382353,41.1764706 29.5490196,40.6176471 30.3431373,39.9705882 C32.526482,37.9375572 35.9097925,37.9375572 38.0931373,39.9705882 C38.9019608,40.6176471 39.5980392,41.1764706 41.0343137,41.1764706 C41.4404055,41.1764706 41.7696078,41.505673 41.7696078,41.9117647 C41.7696078,42.3178564 41.4404055,42.6470588 41.0343137,42.6470588 L41.0588235,42.6470588 Z" id="Shape"></path>
                <path d="M16.3823529,46.4068627 C15.3082621,46.3993733 14.2695617,46.0219788 13.4411765,45.3382353 C12.7918283,44.7676114 11.9406064,44.4815161 11.0784314,44.5441176 C10.6723396,44.5698368 10.3222878,44.2614839 10.2965686,43.8553922 C10.2708495,43.4493004 10.5792024,43.0992486 10.9852941,43.0735294 C12.176845,42.984167 13.3569022,43.358203 14.2794118,44.1176471 C14.933674,44.6979062 15.7944385,44.989541 16.6666667,44.9264706 C17.5295426,44.8804564 18.3373058,44.4880638 18.9068627,43.8382353 C20.6179827,42.0408322 23.4243527,41.8635653 25.3480392,43.4313725 C26.7081026,44.6035956 28.7558947,44.4728854 29.9558824,43.1372549 C31.6618316,41.3343948 34.4703772,41.1547163 36.3921569,42.7254902 C37.0341409,43.2886464 37.8732548,43.5742272 38.7254902,43.5196078 C38.9212333,43.5048238 39.1146128,43.5699918 39.2614825,43.7002348 C39.4083522,43.8304778 39.496175,44.0146777 39.504902,44.2107843 C39.5273474,44.6143966 39.2218344,44.9613721 38.8186275,44.9901961 C37.6234546,45.076758 36.4411723,44.6973034 35.5196078,43.9313725 C34.1595444,42.7591495 32.1117524,42.8898597 30.9117647,44.2254902 C29.206781,46.0007152 26.4281581,46.1794321 24.5098039,44.6372549 C23.1528488,43.4584145 21.1008649,43.5872092 19.9019608,44.9264706 C19.0873499,45.8061433 17.9619516,46.3336737 16.7647059,46.3970588 L16.3823529,46.4068627 Z" id="Shape"></path>
                <path d="M25.0392157,49.5833333 C15.1091722,49.585316 6.15589446,43.6048661 2.35491542,34.4310814 C-1.44606361,25.2572967 0.653934763,14.6971372 7.67553598,7.67553598 C14.6971372,0.653934763 25.2572967,-1.44606361 34.4310814,2.35491542 C43.6048661,6.15589446 49.585316,15.1091722 49.5833333,25.0392157 C49.5671268,38.5878389 38.5878389,49.5671268 25.0392157,49.5833333 Z M25.0392157,1.96078431 C15.7044157,1.95880156 7.28767784,7.58042357 3.71403058,16.2040852 C0.14038333,24.8277469 2.1136658,34.7549955 8.71366521,41.3563971 C15.3136646,47.9577987 25.2404939,49.9331899 33.8649145,46.3613746 C42.4893351,42.7895594 48.1127449,34.3740159 48.1127451,25.0392157 C48.0992413,12.300861 37.7775672,1.97699404 25.0392157,1.96078431 Z" id="Shape"></path>
            </g>
        </g>
    </g>
</svg>