<svg xmlns="http://www.w3.org/2000/svg" viewBox="0 0 83.4 78.99"><path fill="#848689" d="M20.748 44.522c.154-5.6 2.1-10.28 5.832-14.055 3.732-3.77 8.435-5.694 14.113-5.774v18.43L22.847 53.386c-1.4-2.64-2.1-5.6-2.1-8.865zm19.945 19.946c-3.5 0-6.688-.796-9.564-2.39-2.88-1.592-5.25-3.75-7.116-6.474l16.213-9.33 9.33 16.095c-2.722 1.398-5.677 2.098-8.864 2.098zm19.83-19.946c0 3.5-.8 6.69-2.392 9.564-1.594 2.878-3.752 5.25-6.472 7.115l-9.564-16.678h18.428zm5.014-4.898H45.592V19.678c5.676.158 10.38 2.1 14.113 5.832s5.676 8.44 5.832 14.114z"/></svg>