<svg xmlns="http://www.w3.org/2000/svg" viewBox="0 0 83.4 78.99"><path fill="#848689" d="M71.137 42.13v12.487H66.12c-.08 2.1-.818 3.85-2.218 5.25s-3.15 2.1-5.25 2.1-3.852-.7-5.252-2.1c-1.4-1.4-2.14-3.15-2.217-5.25H36.246c-.08 2.1-.817 3.85-2.217 5.25s-3.152 2.1-5.252 2.1-3.85-.7-5.25-2.1-2.14-3.15-2.218-5.25h-5.018V27.194c.077-1.4.583-2.567 1.517-3.5.933-.935 2.1-1.44 3.5-1.518H56.2v10.036h7.468l7.47 9.92zM31.46 57.186c.7-.7 1.05-1.575 1.05-2.626s-.35-1.926-1.05-2.627c-.7-.7-1.595-1.05-2.683-1.05-1.09 0-1.984.35-2.684 1.05-.7.7-1.05 1.575-1.05 2.626s.35 1.924 1.05 2.625c.7.7 1.594 1.092 2.684 1.167 1.088-.075 1.984-.467 2.684-1.167zm29.875 0c.7-.7 1.05-1.575 1.05-2.626s-.35-1.926-1.05-2.627-1.596-1.05-2.684-1.05c-1.09 0-1.983.35-2.683 1.05s-1.05 1.575-1.05 2.626.35 1.924 1.05 2.625 1.594 1.092 2.684 1.167c1.09-.075 1.985-.467 2.685-1.167zM56.2 35.945v6.186h11.086l-4.9-6.184H56.2z"/></svg>