<svg xmlns="http://www.w3.org/2000/svg" viewBox="0 0 83.4 78.99"><g fill="#848689"><path d="M64.698 58.467c-5.478-2.884-9.54-4.363-13.173-4.797-.032-.004-.065-.006-.098-.006h-.377c-.265 0-.513.127-.67.34l-5.17 7.11h-5.78l-5.172-7.11c-.156-.213-.405-.34-.67-.34h-.376c-.033 0-.065.002-.1.006-3.63.434-7.694 1.913-13.17 4.797-1.518.798-2.46 2.36-2.46 4.077v3.54c0 .457.37.827.827.827h20.18l7.62-.006c.013 0 .025.007.04.007h20.18c.457 0 .828-.37.828-.827v-3.54c0-1.717-.943-3.278-2.46-4.076z"/><path d="M57.9 34.778h-.677v-.984c0-6.546-4.298-12.05-10.763-13.885v-.176c0-1.377-1.12-2.498-2.498-2.498H40.68c-1.38 0-2.5 1.12-2.5 2.498v.175c-6.464 1.835-10.762 7.34-10.762 13.884v.984h-.677c-.827 0-1.5.67-1.5 1.5s.673 1.5 1.5 1.5h2.334v1.812c0 7.426 5.666 15.73 13.247 15.73S55.57 47.017 55.57 39.59v-1.812h2.334c.828 0 1.5-.67 1.5-1.5s-.673-1.5-1.5-1.5zM42.947 18.81c0-.55.447-1 1-1s1 .45 1 1v10.5c0 .553-.447 1-1 1s-1-.447-1-1v-10.5zm-3.25 0c0-.55.447-1 1-1s1 .45 1 1v10.5c0 .553-.447 1-1 1s-1-.447-1-1v-10.5zm15.87 16.25H29.075c-.27 0-.514-.11-.694-.283-.188-.182-.306-.434-.306-.716 0-.55.447-1 1-1h26.493c.553 0 1 .45 1 1 0 .283-.12.535-.306.717-.18.175-.423.284-.693.284z"/></g></svg>